<svg xmlns="http://www.w3.org/2000/svg" version="1.1" xmlns:xlink="http://www.w3.org/1999/xlink" width="512" height="512" x="0" y="0" viewBox="0 0 512 512" style="enable-background:new 0 0 512 512" xml:space="preserve" class=""><g><path d="M255.967 449.103v-58.008M118.898 392.975l19.978-19.979M371.485 140.391l20.931-20.932M255.967 120.119V63.111M391.956 256.107h56.995M63.6 256.107h56.995M349.542 283.271h-82.358c-4.118 0-6.697-4.453-4.647-8.025l48.926-85.232a10.325 10.325 0 0 1 8.956-5.186h0c5.703 0 10.327 4.623 10.327 10.326v131.173M238.864 327.386h-70.938l49.549-70.274c10.587-15.951 16.91-27.102 14.927-41.935-2.296-17.177-17.547-29.291-35.06-29.291-17.31 0-31.737 12.348-34.952 28.716" style="stroke-width:22;stroke-linecap:round;stroke-linejoin:round;stroke-miterlimit:10;" fill="none" stroke="#2cb6ce" stroke-width="22" stroke-linecap="round" stroke-linejoin="round" stroke-miterlimit="10" data-original="#33cccc" opacity="1"></path><path d="M373.778 470.864c-78.398 42.895-177.515 41.187-256.274-12.792C14.091 387.197-17.937 251.079 38.783 142.693L11.771 124.18l81.579-15.222 15.236 81.575-28.191-19.321c-41.35 85.342-15.233 190.376 65.374 245.621 63.435 43.476 143.451 44.348 206.187 8.951l21.822 45.08zM500.543 388.034l-81.579 15.222-15.236-81.575 27.878 19.107c41.35-85.342 15.233-190.376-65.374-245.621-61.175-41.928-137.769-44.237-199.423-12.596l-21.782-45.016c77.265-39.174 172.97-36.059 249.469 16.371 103.413 70.875 135.441 206.993 78.721 315.379l27.326 18.729z" style="stroke-width:22;stroke-linecap:round;stroke-linejoin:round;stroke-miterlimit:10;" fill="none" stroke="#11142a" stroke-width="22" stroke-linecap="round" stroke-linejoin="round" stroke-miterlimit="10" data-original="#000000" opacity="1" class=""></path></g></svg>