<svg xmlns="http://www.w3.org/2000/svg" version="1.1" xmlns:xlink="http://www.w3.org/1999/xlink" width="512" height="512" x="0" y="0" viewBox="0 0 512 512" style="enable-background:new 0 0 512 512" xml:space="preserve" class=""><g><path d="M282.405 113.283c20.429 3.756 39.359 11.791 55.829 23.14l20.872-17.733 34.205 34.205-17.732 20.871c11.349 16.471 19.386 35.4 23.142 55.83L426 231.813v48.374l-27.277 2.217c-3.758 20.429-11.795 39.359-23.145 55.828l17.734 20.873-34.206 34.205-20.874-17.735c-16.471 11.347-35.398 19.386-55.826 23.142L280.187 426h-48.374l-2.218-27.277c-20.429-3.758-39.359-11.794-55.828-23.145l-20.872 17.734-34.205-34.205 17.735-20.875c-11.347-16.471-19.386-35.397-23.141-55.826L86 280.187v-48.374l27.277-2.218c3.758-20.428 11.795-39.359 23.145-55.828l-17.734-20.873 34.206-34.205 20.874 17.735c16.471-11.347 35.398-19.386 55.826-23.142L231.813 86h48.374l2.218 27.283z" style="fill-rule:evenodd;clip-rule:evenodd;stroke-width:22;stroke-linecap:round;stroke-linejoin:round;stroke-miterlimit:22.9256;" fill-rule="evenodd" clip-rule="evenodd" fill="none" stroke="#11142a" stroke-width="22" stroke-linecap="round" stroke-linejoin="round" stroke-miterlimit="22.9256" data-original="#000000" opacity="1" class=""></path><path d="M133.5 43.824a244.997 244.997 0 0 1 295.741 38.935" style="fill-rule:evenodd;clip-rule:evenodd;stroke-width:22;stroke-linecap:round;stroke-linejoin:round;stroke-miterlimit:2.6131;" fill-rule="evenodd" clip-rule="evenodd" fill="none" stroke="#11142a" stroke-width="22" stroke-linecap="round" stroke-linejoin="round" stroke-miterlimit="2.6131" data-original="#000000" opacity="1" class=""></path><path d="M442.986 61.079v36.606H406.38M43.824 378.5A244.997 244.997 0 0 1 82.759 82.759" style="fill-rule:evenodd;clip-rule:evenodd;stroke-width:22;stroke-linecap:round;stroke-linejoin:round;stroke-miterlimit:2.6131;" fill-rule="evenodd" clip-rule="evenodd" fill="none" stroke="#11142a" stroke-width="22" stroke-linecap="round" stroke-linejoin="round" stroke-miterlimit="2.6131" data-original="#000000" opacity="1" class=""></path><path d="M61.079 69.014h36.606v36.606M378.5 468.177a245.001 245.001 0 0 1-295.741-38.936" style="fill-rule:evenodd;clip-rule:evenodd;stroke-width:22;stroke-linecap:round;stroke-linejoin:round;stroke-miterlimit:2.6131;" fill-rule="evenodd" clip-rule="evenodd" fill="none" stroke="#11142a" stroke-width="22" stroke-linecap="round" stroke-linejoin="round" stroke-miterlimit="2.6131" data-original="#000000" opacity="1" class=""></path><path d="M69.014 450.922v-36.606h36.606M468.177 133.5a245.004 245.004 0 0 1-38.936 295.741" style="fill-rule:evenodd;clip-rule:evenodd;stroke-width:22;stroke-linecap:round;stroke-linejoin:round;stroke-miterlimit:2.6131;" fill-rule="evenodd" clip-rule="evenodd" fill="none" stroke="#11142a" stroke-width="22" stroke-linecap="round" stroke-linejoin="round" stroke-miterlimit="2.6131" data-original="#000000" opacity="1" class=""></path><path d="M450.922 442.986h-36.606V406.38" style="fill-rule:evenodd;clip-rule:evenodd;stroke-width:22;stroke-linecap:round;stroke-linejoin:round;stroke-miterlimit:2.6131;" fill-rule="evenodd" clip-rule="evenodd" fill="none" stroke="#11142a" stroke-width="22" stroke-linecap="round" stroke-linejoin="round" stroke-miterlimit="2.6131" data-original="#000000" opacity="1" class=""></path><circle cx="256" cy="256" r="100" style="fill-rule:evenodd;clip-rule:evenodd;stroke-width:22;stroke-linecap:round;stroke-linejoin:round;stroke-miterlimit:22.9256;" transform="rotate(-45.001 255.998 256.004)" fill-rule="evenodd" clip-rule="evenodd" fill="none" stroke="#2cb6ce" stroke-width="22" stroke-linecap="round" stroke-linejoin="round" stroke-miterlimit="22.9256" data-original="#33cccc" opacity="1"></circle><path d="M206 236.97c7.652-29.331 47.719-8.044 27.245 14.707-8.76 9.734-24.204 26.319-27.245 37.657h33.334M301.837 260.164h-31.256l4.163-37.497m31.256 0v66.666" style="fill-rule:evenodd;clip-rule:evenodd;stroke-width:22;stroke-linecap:round;stroke-linejoin:round;stroke-miterlimit:22.9256;" fill-rule="evenodd" clip-rule="evenodd" fill="none" stroke="#2cb6ce" stroke-width="22" stroke-linecap="round" stroke-linejoin="round" stroke-miterlimit="22.9256" data-original="#33cccc" opacity="1"></path></g></svg>