<svg xmlns="http://www.w3.org/2000/svg" version="1.1" xmlns:xlink="http://www.w3.org/1999/xlink" width="512" height="512" x="0" y="0" viewBox="0 0 512 512" style="enable-background:new 0 0 512 512" xml:space="preserve" class=""><g><path d="M296.982 176.555c-12.15 0-22-9.85-22-22v-11.096c0-12.15 9.85-22 22-22s22 9.85 22 22v11.096c0 12.15-9.85 22-22 22zM385.235 176.555c-12.15 0-22-9.85-22-22v-11.096c0-12.15 9.85-22 22-22s22 9.85 22 22v11.096c0 12.15-9.849 22-22 22zM269.217 445.443H413v-74.859H269.217v74.859z" style="stroke-width:22;stroke-linejoin:round;stroke-miterlimit:10;" fill="none" stroke="#2cb6ce" stroke-width="22" stroke-linejoin="round" stroke-miterlimit="10" data-original="#33cccc" opacity="1" class=""></path><path d="M397.202 55h-112.44c-30.806 0-55.78 24.973-55.78 55.78v103.776c0 30.806 24.973 55.78 55.78 55.78h112.44c30.806 0 55.78-24.973 55.78-55.78V110.78c0-30.807-24.974-55.78-55.78-55.78zM452.982 123.722h48v77.893h-48z" style="stroke-width:22;stroke-linejoin:round;stroke-miterlimit:10;" fill="none" stroke="#11142a" stroke-width="22" stroke-linejoin="round" stroke-miterlimit="10" data-original="#000000" opacity="1" class=""></path><path d="M180.982 123.722h48v77.893h-48z" style="stroke-width:22;stroke-linejoin:round;stroke-miterlimit:10;" transform="rotate(-180 204.982 162.668)" fill="none" stroke="#11142a" stroke-width="22" stroke-linejoin="round" stroke-miterlimit="10" data-original="#000000" opacity="1" class=""></path><path d="M193.399 122.797V87.184c0-42.075 34.109-76.184 76.184-76.184H412.38c42.075 0 76.184 34.109 76.184 76.184v35.613M381.109 271.027v44M301.109 315.027v-44M421.163 315.027H261.054c-19.792 0-35.837 16.045-35.837 35.837V501H457V350.865c0-19.793-16.045-35.838-35.837-35.838zM488.565 201.614v39.68c0 16.039-13.002 29.042-29.042 29.042h-59.188" style="stroke-width:22;stroke-linejoin:round;stroke-miterlimit:10;" fill="none" stroke="#11142a" stroke-width="22" stroke-linejoin="round" stroke-miterlimit="10" data-original="#000000" opacity="1" class=""></path><path d="M400.335 270.336h-30.198c-13.606 0-24.636-11.03-24.636-24.636s11.03-24.636 24.636-24.636h30.198c13.606 0 24.636 11.03 24.636 24.636s-11.03 24.636-24.636 24.636zM457 501h44V383.083c0-24.301-19.699-44-44-44M225.217 501h-44V383.083c0-24.301 19.699-44 44-44" style="stroke-width:22;stroke-linejoin:round;stroke-miterlimit:10;" fill="none" stroke="#11142a" stroke-width="22" stroke-linejoin="round" stroke-miterlimit="10" data-original="#000000" opacity="1" class=""></path><path d="m177.118 312.078-37.643-37.643v-51.232c0-10.236-8.298-18.533-18.533-18.533H29.533C19.298 204.67 11 212.968 11 223.203v120.279c0 10.236 8.298 18.533 18.533 18.533h91.408c10.235 0 18.533-8.298 18.533-18.533v-31.404h37.644z" style="stroke-width:22;stroke-linejoin:round;stroke-miterlimit:10;" fill="none" stroke="#2cb6ce" stroke-width="22" stroke-linejoin="round" stroke-miterlimit="10" data-original="#33cccc" opacity="1" class=""></path></g></svg>