<svg xmlns="http://www.w3.org/2000/svg" version="1.1" xmlns:xlink="http://www.w3.org/1999/xlink" width="512" height="512" x="0" y="0" viewBox="0 0 512 512" style="enable-background:new 0 0 512 512" xml:space="preserve" class=""><g><path d="M149.809 71.956s-1.418-1.386-2.211-1.936c-2.661-1.847-9.542-5.544-18.975-2.702-11.242 3.386-14.034 18.768-6.394 24.76 4.387 3.441 10.987 6.269 19.882 9.414 19.909 7.037 12.549 35.115-7.702 35.249-7.903.053-11.598-.449-18.541-4.991M134.408 136.742v10.248M134.408 56.802v9.478" style="stroke-width:22;stroke-linecap:round;stroke-linejoin:round;stroke-miterlimit:10;" fill="none" stroke="#2cb6ce" stroke-width="22" stroke-linecap="round" stroke-linejoin="round" stroke-miterlimit="10" data-original="#33cccc" opacity="1"></path><circle cx="132.291" cy="101.896" r="90.896" style="stroke-width:22;stroke-linecap:round;stroke-linejoin:round;stroke-miterlimit:10;" fill="none" stroke="#2cb6ce" stroke-width="22" stroke-linecap="round" stroke-linejoin="round" stroke-miterlimit="10" data-original="#33cccc" opacity="1"></circle><path d="M145.291 501H56.724V371.274c0-11.046 8.954-20 20-20h48.567c11.046 0 20 8.954 20 20V501zM300.284 501h-88.567V305.083c0-11.046 8.954-20 20-20h48.567c11.046 0 20 8.954 20 20V501zM455.276 501h-88.567V195.227c0-11.046 8.954-20 20-20h48.567c11.046 0 20 8.954 20 20V501zM16.962 501h478.076M59.278 267.674s192.854 16.874 304.876-203.429" style="stroke-width:22;stroke-linecap:round;stroke-linejoin:round;stroke-miterlimit:10;" fill="none" stroke="#11142a" stroke-width="22" stroke-linecap="round" stroke-linejoin="round" stroke-miterlimit="10" data-original="#000000" opacity="1" class=""></path><path d="m326.823 71.479 38.54-12.244 12.244 38.54" style="stroke-width:22;stroke-linecap:round;stroke-linejoin:round;stroke-miterlimit:10;" fill="none" stroke="#11142a" stroke-width="22" stroke-linecap="round" stroke-linejoin="round" stroke-miterlimit="10" data-original="#000000" opacity="1" class=""></path></g></svg>