<svg xmlns="http://www.w3.org/2000/svg" version="1.1" xmlns:xlink="http://www.w3.org/1999/xlink" width="512" height="512" x="0" y="0" viewBox="0 0 512.05 512.05" style="enable-background:new 0 0 512 512" xml:space="preserve" class=""><g><path d="m449.518 69.054-.59 35.929-35.929-.59" style="stroke-width:22;stroke-linecap:round;stroke-linejoin:round;stroke-miterlimit:10;" fill="none" stroke="#2cb6ce" stroke-width="22" stroke-linecap="round" stroke-linejoin="round" stroke-miterlimit="10" data-original="#33cccc" opacity="1"></path><path d="M23.669 333.895C12.407 300.369 8.262 263.868 12.82 226.42 29.17 92.102 151.311-3.53 285.629 12.82c66.234 8.063 123.062 41.849 161.693 90.136M62.532 442.996l.59-35.929 35.928.589" style="stroke-width:22;stroke-linecap:round;stroke-linejoin:round;stroke-miterlimit:10;" fill="none" stroke="#2cb6ce" stroke-width="22" stroke-linecap="round" stroke-linejoin="round" stroke-miterlimit="10" data-original="#33cccc" opacity="1"></path><path d="M488.38 178.154c11.262 33.526 15.408 70.027 10.849 107.475-16.35 134.318-138.491 229.95-272.809 213.6-66.234-8.063-123.062-41.849-161.693-90.136" style="stroke-width:22;stroke-linecap:round;stroke-linejoin:round;stroke-miterlimit:10;" fill="none" stroke="#2cb6ce" stroke-width="22" stroke-linecap="round" stroke-linejoin="round" stroke-miterlimit="10" data-original="#33cccc" opacity="1"></path><path d="M352.137 276.167c-4.508-2.492-15-7.031-26.81-3.473-14.459 4.356-18.05 24.14-8.224 31.847 5.642 4.425 14.131 8.064 25.573 12.108 25.607 9.052 16.141 45.164-9.907 45.338-10.165.068-14.917-.578-23.847-6.419M332.769 363.664v11.505M332.769 259.169v11.111" style="stroke-width:22;stroke-linecap:round;stroke-linejoin:round;stroke-miterlimit:10;" fill="none" stroke="#2cb6ce" stroke-width="22" stroke-linecap="round" stroke-linejoin="round" stroke-miterlimit="10" data-original="#33cccc" opacity="1"></path><path d="m86.23 149.901 131.437-91.195 131.437 91.195H86.23z" style="stroke-width:22;stroke-linecap:round;stroke-linejoin:round;stroke-miterlimit:10;" fill="none" stroke="#11142a" stroke-width="22" stroke-linecap="round" stroke-linejoin="round" stroke-miterlimit="10" data-original="#000000" opacity="1"></path><path d="M151.668 149.901v126.625M107.668 276.526V149.901M283.668 149.901v78.167M327.668 215.328v-65.427M239.767 276.526H92.323v44h139.079M239.668 149.901v126.625M195.668 276.526V149.901" style="stroke-width:22;stroke-linejoin:round;stroke-miterlimit:10;" fill="none" stroke="#11142a" stroke-width="22" stroke-linejoin="round" stroke-miterlimit="10" data-original="#000000" opacity="1"></path><circle cx="333.341" cy="317.169" r="102" style="stroke-width:22;stroke-linecap:round;stroke-linejoin:round;stroke-miterlimit:10;" fill="none" stroke="#11142a" stroke-width="22" stroke-linecap="round" stroke-linejoin="round" stroke-miterlimit="10" data-original="#000000" opacity="1"></circle></g></svg>