<svg xmlns="http://www.w3.org/2000/svg" version="1.1" xmlns:xlink="http://www.w3.org/1999/xlink" width="512" height="512" x="0" y="0" viewBox="0 0 512 512" style="enable-background:new 0 0 512 512" xml:space="preserve" class=""><g><path d="M353.355 423.306H501V11H11v412.306h260.855" style="stroke-width:22;stroke-linejoin:round;stroke-miterlimit:10;" fill="none" stroke="#11142a" stroke-width="22" stroke-linejoin="round" stroke-miterlimit="10" data-original="#000000" class="" opacity="1"></path><path d="M84.999 375.306h96M242.588 234.989H445M242.588 278.989h101.206" style="stroke-width:22;stroke-linecap:round;stroke-linejoin:round;stroke-miterlimit:10;" fill="none" stroke="#11142a" stroke-width="22" stroke-linecap="round" stroke-linejoin="round" stroke-miterlimit="10" data-original="#000000" class="" opacity="1"></path><path d="M353.354 375.306h65.487c14.447 0 26.158-11.712 26.158-26.158 0-14.447-11.711-26.158-26.158-26.158H268.747c-14.447 0-26.158 11.711-26.158 26.158 0 14.447 11.712 26.158 26.158 26.158h70.202M501 107.341H11" style="stroke-width:22;stroke-linejoin:round;stroke-miterlimit:10;" fill="none" stroke="#11142a" stroke-width="22" stroke-linejoin="round" stroke-miterlimit="10" data-original="#000000" class="" opacity="1"></path><path d="M64.891 59.341h0M113.232 59.341h0M161.572 59.341h0M447.109 59.341h-231.17" style="stroke-width:22;stroke-linecap:round;stroke-linejoin:round;stroke-miterlimit:10;" fill="none" stroke="#11142a" stroke-width="22" stroke-linecap="round" stroke-linejoin="round" stroke-miterlimit="10" data-original="#000000" class="" opacity="1"></path><path d="M259.412 155v17.689M276.235 167.223l-16.823 5.466M269.809 187l-10.397-14.311M242.588 167.223l16.824 5.466M249.014 187l10.398-14.311M343.794 155v17.689M360.618 167.223l-16.824 5.466M354.192 187l-10.398-14.311M326.971 167.223l16.823 5.466M333.397 187l10.397-14.311M428.177 155v17.689M445 167.223l-16.823 5.466M438.574 187l-10.397-14.311M411.353 167.223l16.824 5.466M417.779 187l10.398-14.311" style="stroke-width:22;stroke-linecap:round;stroke-linejoin:round;stroke-miterlimit:10;" fill="none" stroke="#2cb6ce" stroke-width="22" stroke-linecap="round" stroke-linejoin="round" stroke-miterlimit="10" data-original="#33cccc" opacity="1"></path><path d="m353.355 366.989-86.226 49.782 19.531 11.277-26.398 45.723L307.424 501l26.399-45.723 19.531 11.277zM66.999 155.306h132v176h-132z" style="stroke-width:22;stroke-linejoin:round;stroke-miterlimit:10;" fill="none" stroke="#2cb6ce" stroke-width="22" stroke-linejoin="round" stroke-miterlimit="10" data-original="#33cccc" opacity="1"></path><path d="M155.126 331.306v-44h-44v44" style="stroke-width:22;stroke-linejoin:round;stroke-miterlimit:10;" fill="none" stroke="#2cb6ce" stroke-width="22" stroke-linejoin="round" stroke-miterlimit="10" data-original="#33cccc" opacity="1"></path><path d="M110.999 205.306v-6M154.999 205.306v-6M110.999 251.306v-6M154.999 251.306v-6" style="stroke-width:22;stroke-linecap:round;stroke-linejoin:round;stroke-miterlimit:10;" fill="none" stroke="#2cb6ce" stroke-width="22" stroke-linecap="round" stroke-linejoin="round" stroke-miterlimit="10" data-original="#33cccc" opacity="1"></path></g></svg>