<svg xmlns="http://www.w3.org/2000/svg" version="1.1" xmlns:xlink="http://www.w3.org/1999/xlink" width="512" height="512" x="0" y="0" viewBox="0 0 512 512" style="enable-background:new 0 0 512 512" xml:space="preserve" class=""><g><path d="M113.47 304.973H85.627c-11.046 0-20-8.954-20-20V257.13c0-11.046 8.954-20 20-20h27.843c11.046 0 20 8.954 20 20v27.842c0 11.047-8.955 20.001-20 20.001zM231.398 304.973h-27.842c-11.046 0-20-8.954-20-20V257.13c0-11.046 8.954-20 20-20h27.842c11.046 0 20 8.954 20 20v27.842c0 11.047-8.955 20.001-20 20.001zM113.47 411.326H85.627c-11.046 0-20-8.954-20-20v-27.843c0-11.046 8.954-20 20-20h27.843c11.046 0 20 8.954 20 20v27.843c0 11.046-8.955 20-20 20zM231.398 411.326h-27.842c-11.046 0-20-8.954-20-20v-27.843c0-11.046 8.954-20 20-20h27.842c11.046 0 20 8.954 20 20v27.843c0 11.046-8.955 20-20 20z" style="stroke-width:22;stroke-linecap:round;stroke-linejoin:round;stroke-miterlimit:10;" fill="none" stroke="#2cb6ce" stroke-width="22" stroke-linecap="round" stroke-linejoin="round" stroke-miterlimit="10" data-original="#33cccc" opacity="1" class=""></path><path d="M389.161 82.217h16.188c19.676 0 35.627 15.951 35.627 35.627v61.947H11v-61.947c0-19.676 15.951-35.627 35.627-35.627h17.55M122.973 82.217h208.104" style="stroke-width:22;stroke-linecap:round;stroke-linejoin:round;stroke-miterlimit:10;" fill="none" stroke="#11142a" stroke-width="22" stroke-linecap="round" stroke-linejoin="round" stroke-miterlimit="10" data-original="#000000" opacity="1"></path><path d="M440.975 225.478V179.79H11v262.945c0 11.001 8.918 19.919 19.919 19.919h390.138c11.001 0 19.919-8.918 19.919-19.919v-31.409M93.091 120.746h0c-13.082 0-23.686-10.605-23.686-23.686V73.033c0-13.082 10.605-23.686 23.686-23.686h0c13.082 0 23.686 10.605 23.686 23.686V97.06c0 13.081-10.604 23.686-23.686 23.686zM358.884 120.746h0c-13.082 0-23.686-10.605-23.686-23.686V73.033c0-13.082 10.605-23.686 23.686-23.686h0c13.082 0 23.686 10.605 23.686 23.686V97.06c.001 13.081-10.604 23.686-23.686 23.686z" style="stroke-width:22;stroke-linecap:round;stroke-linejoin:round;stroke-miterlimit:10;" fill="none" stroke="#11142a" stroke-width="22" stroke-linecap="round" stroke-linejoin="round" stroke-miterlimit="10" data-original="#000000" opacity="1"></path><path d="m419.015 285.763-1.29-.997c-2.004-1.441-10.088-5.857-20.22-2.879-12.003 3.528-14.954 19.999-6.814 26.384 4.674 3.666 11.707 6.68 21.186 10.031 21.215 7.499 13.372 37.417-8.207 37.561-8.421.056-12.359-.478-19.756-5.318M404.143 355.862v10.921M404.143 270.681v10.1" style="stroke-width:22;stroke-linecap:round;stroke-linejoin:round;stroke-miterlimit:10;" fill="none" stroke="#11142a" stroke-width="22" stroke-linecap="round" stroke-linejoin="round" stroke-miterlimit="10" data-original="#000000" opacity="1"></path><circle cx="404.143" cy="318.732" r="96.857" style="stroke-width:22;stroke-linecap:round;stroke-linejoin:round;stroke-miterlimit:10;" fill="none" stroke="#11142a" stroke-width="22" stroke-linecap="round" stroke-linejoin="round" stroke-miterlimit="10" data-original="#000000" opacity="1"></circle></g></svg>