<svg xmlns="http://www.w3.org/2000/svg" version="1.1" xmlns:xlink="http://www.w3.org/1999/xlink" width="512" height="512" x="0" y="0" viewBox="0 0 512 512" style="enable-background:new 0 0 512 512" xml:space="preserve" class=""><g><path d="M331.757 304.715H459.4c22.876 0 41.601 18.725 41.601 41.601v71.76c0 22.88-18.72 41.6-41.601 41.6h-55.781L351.617 501v-41.324H318.45c-22.881 0-41.6-18.72-41.6-41.6V375.1" style="fill-rule:evenodd;clip-rule:evenodd;stroke-width:22;stroke-linecap:round;stroke-linejoin:round;stroke-miterlimit:2.6131;" fill-rule="evenodd" clip-rule="evenodd" fill="none" stroke="#11142a" stroke-width="22" stroke-linecap="round" stroke-linejoin="round" stroke-miterlimit="2.6131" data-original="#000000" opacity="1"></path><path d="M321.757 190.101v135c0 22-18.002 40-40 40h-99.398v50.809l-50-50.809H51c-22 0-40-18-40-40v-135c0-22 18.002-40 40-40h230.757c21.997 0 40 18.002 40 40z" style="fill-rule:evenodd;clip-rule:evenodd;stroke-width:22;stroke-linecap:round;stroke-linejoin:round;stroke-miterlimit:2.6131;" fill-rule="evenodd" clip-rule="evenodd" fill="none" stroke="#11142a" stroke-width="22" stroke-linecap="round" stroke-linejoin="round" stroke-miterlimit="2.6131" data-original="#000000" opacity="1"></path><path d="M171.438 140.101v-82.99c0-25.361 20.75-46.111 46.111-46.111h237.34C480.246 11 501 31.754 501 57.111v85.526c0 25.361-20.75 46.111-46.111 46.111h-10l-57.639 47.043v-47.043h-58.004" style="fill-rule:evenodd;clip-rule:evenodd;stroke-width:22;stroke-linecap:round;stroke-linejoin:round;stroke-miterlimit:2.6131;" fill-rule="evenodd" clip-rule="evenodd" fill="none" stroke="#11142a" stroke-width="22" stroke-linecap="round" stroke-linejoin="round" stroke-miterlimit="2.6131" data-original="#000000" opacity="1"></path><path d="M451.001 404.696h-29.15M451.001 122.374h-79.562m-150.001-45H451M384.379 359.696h66.622M56 257.601h220.757M56 302.601h89.562M276.757 212.6H56" style="fill-rule:evenodd;clip-rule:evenodd;stroke-width:22;stroke-linecap:round;stroke-linejoin:round;stroke-miterlimit:2.6131;" fill-rule="evenodd" clip-rule="evenodd" fill="none" stroke="#2cb6ce" stroke-width="22" stroke-linecap="round" stroke-linejoin="round" stroke-miterlimit="2.6131" data-original="#33cccc" opacity="1" class=""></path></g></svg>