<svg xmlns="http://www.w3.org/2000/svg" version="1.1" xmlns:xlink="http://www.w3.org/1999/xlink" width="512" height="512" x="0" y="0" viewBox="0 0 512 512" style="enable-background:new 0 0 512 512" xml:space="preserve" class=""><g><path d="M372.205 106.942C340.15 81.917 299.819 67 256 67 151.618 67 67 151.618 67 256s84.618 189 189 189 189-84.618 189-189c0-29.655-6.837-57.711-19.01-82.688" style="stroke-width:22;stroke-linejoin:round;stroke-miterlimit:10;" fill="none" stroke="#11142a" stroke-width="22" stroke-linejoin="round" stroke-miterlimit="10" data-original="#000000" opacity="1"></path><path d="M412.037 67.111C369.658 32.063 315.29 11 256 11 120.69 11 11 120.69 11 256s109.69 245 245 245 245-109.69 245-245c0-45.257-12.285-87.637-33.681-124.016" style="stroke-width:22;stroke-linejoin:round;stroke-miterlimit:10;" fill="none" stroke="#11142a" stroke-width="22" stroke-linejoin="round" stroke-miterlimit="10" data-original="#000000" opacity="1"></path><path d="M247.518 351.785 122.072 226.339l60.077-60.078 65.369 65.369L440.923 38.225 501 98.302z" style="stroke-width:22;stroke-linejoin:round;stroke-miterlimit:10;" fill="none" stroke="#2cb6ce" stroke-width="22" stroke-linejoin="round" stroke-miterlimit="10" data-original="#33cccc" opacity="1"></path></g></svg>