<svg xmlns="http://www.w3.org/2000/svg" version="1.1" xmlns:xlink="http://www.w3.org/1999/xlink" width="512" height="512" x="0" y="0" viewBox="0 0 512 512" style="enable-background:new 0 0 512 512" xml:space="preserve" class=""><g><path d="m451.187 44.548-30.27 30.27C375.712 33.582 317.593 11 256 11c-54.212 0-105.727 17.505-148.12 49.813M174.672 124.598c23.624-14.653 51.485-23.121 81.328-23.121 38.53 0 73.764 14.105 100.827 37.43l-35.765 35.765" style="stroke-width:22;stroke-linecap:round;stroke-linejoin:round;stroke-miterlimit:10;" fill="none" stroke="#11142a" stroke-width="22" stroke-linecap="round" stroke-linejoin="round" stroke-miterlimit="10" data-original="#000000" opacity="1" class=""></path><path d="M124.599 337.328c-14.653-23.624-23.121-51.485-23.121-81.328 0-38.531 14.105-73.764 37.43-100.827l35.765 35.765V60.813H44.548l30.27 30.27C33.582 136.288 11 194.406 11 256c0 54.212 17.505 105.727 49.813 148.12" style="stroke-width:22;stroke-linecap:round;stroke-linejoin:round;stroke-miterlimit:22.9256;" fill="none" stroke="#2cb6ce" stroke-width="22" stroke-linecap="round" stroke-linejoin="round" stroke-miterlimit="22.9256" data-original="#79caca" opacity="1" class=""></path><path d="M337.328 387.402c-23.624 14.652-51.485 23.121-81.328 23.121-38.531 0-73.764-14.105-100.827-37.43l35.765-35.765H60.813v130.125l30.27-30.27C136.288 478.418 194.406 501 256 501c54.212 0 105.727-17.504 148.12-49.813" style="stroke-width:22;stroke-linejoin:round;stroke-miterlimit:10;" fill="none" stroke="#11142a" stroke-width="22" stroke-linejoin="round" stroke-miterlimit="10" data-original="#000000" opacity="1" class=""></path><path d="M387.402 174.672c14.653 23.624 23.121 51.485 23.121 81.328 0 38.53-14.105 73.764-37.43 100.827l-35.765-35.765v130.125h130.125l-30.27-30.27C478.418 375.712 501 317.594 501 256c0-54.212-17.504-105.727-49.813-148.12" style="stroke-width:22;stroke-linecap:round;stroke-linejoin:round;stroke-miterlimit:22.9256;" fill="none" stroke="#2cb6ce" stroke-width="22" stroke-linecap="round" stroke-linejoin="round" stroke-miterlimit="22.9256" data-original="#79caca" opacity="1" class=""></path><path d="M321.062 174.672h130.125V44.548" style="stroke-width:22;stroke-linecap:round;stroke-linejoin:round;stroke-miterlimit:10;" fill="none" stroke="#11142a" stroke-width="22" stroke-linecap="round" stroke-linejoin="round" stroke-miterlimit="10" data-original="#000000" opacity="1" class=""></path></g></svg>