<svg xmlns="http://www.w3.org/2000/svg" version="1.1" xmlns:xlink="http://www.w3.org/1999/xlink" width="512" height="512" x="0" y="0" viewBox="0 0 512.05 512.05" style="enable-background:new 0 0 512 512" xml:space="preserve" class=""><g><path d="M235.24 114.325a56.451 56.451 0 0 0 0-51.65h0a56.451 56.451 0 0 1 0-51.65M307.933 114.325a49.86 49.86 0 0 0 0-45.615h0a49.86 49.86 0 0 1 0-45.615M162.547 114.325a49.86 49.86 0 0 0 0-45.615h0a49.86 49.86 0 0 1 0-45.615" style="stroke-width:22;stroke-linecap:round;stroke-linejoin:round;stroke-miterlimit:10;" fill="none" stroke="#2cb6ce" stroke-width="22" stroke-linecap="round" stroke-linejoin="round" stroke-miterlimit="10" data-original="#33cccc" opacity="1"></path><path d="M413.514 226.452H56.966M64.158 282.452h342.165" style="stroke-width:22;stroke-linejoin:round;stroke-miterlimit:10;" fill="none" stroke="#2cb6ce" stroke-width="22" stroke-linejoin="round" stroke-miterlimit="10" data-original="#33cccc" opacity="1"></path><path d="M453 457.025H59c-26.51 0-48-21.49-48-48v0h490v0c0 26.51-21.49 48-48 48z" style="stroke-width:22;stroke-linecap:round;stroke-linejoin:round;stroke-miterlimit:10;" fill="none" stroke="#11142a" stroke-width="22" stroke-linecap="round" stroke-linejoin="round" stroke-miterlimit="10" data-original="#000000" opacity="1" class=""></path><path d="M430 457.025c0 24.301-19.699 44-44 44H126c-24.301 0-44-19.699-44-44M412.628 237.014h10.422c18.748 0 34 15.252 34 34s-15.252 34-34 34h-21.764" style="stroke-width:22;stroke-linejoin:round;stroke-miterlimit:10;" fill="none" stroke="#11142a" stroke-width="22" stroke-linejoin="round" stroke-miterlimit="10" data-original="#000000" opacity="1" class=""></path><path d="M386.102 349.014h36.948c43.01 0 78-34.991 78-78s-34.99-78-78-78h-7.867" style="stroke-width:22;stroke-linejoin:round;stroke-miterlimit:10;" fill="none" stroke="#11142a" stroke-width="22" stroke-linejoin="round" stroke-miterlimit="10" data-original="#000000" opacity="1" class=""></path><path d="M345.138 409.025c43.689-43.509 70.342-111.51 70.342-238.573H55c0 127.062 26.653 195.064 70.342 238.573" style="stroke-width:22;stroke-linejoin:round;stroke-miterlimit:10;" fill="none" stroke="#11142a" stroke-width="22" stroke-linejoin="round" stroke-miterlimit="10" data-original="#000000" opacity="1" class=""></path></g></svg>