<svg xmlns="http://www.w3.org/2000/svg" version="1.1" xmlns:xlink="http://www.w3.org/1999/xlink" width="512" height="512" x="0" y="0" viewBox="0 0 512 512" style="enable-background:new 0 0 512 512" xml:space="preserve" class=""><g><path d="M170.31 338.03a132.501 132.501 0 0 1-46.811-101.063c0-73.178 59.323-132.5 132.5-132.5s132.5 59.323 132.5 132.5A132.5 132.5 0 0 1 326.9 348.902" style="fill-rule:evenodd;clip-rule:evenodd;stroke-width:22;stroke-linecap:round;stroke-linejoin:round;stroke-miterlimit:2.6131;" fill-rule="evenodd" clip-rule="evenodd" fill="none" stroke="#2cb6ce" stroke-width="22" stroke-linecap="round" stroke-linejoin="round" stroke-miterlimit="2.6131" data-original="#33cccc" opacity="1" class=""></path><path d="M248.621 400.853h100.672l80.408-80.408c20.084-20.084 49.707-18.868 71.3 2.724L371.308 463.332c-4.908 5.304-11.809 7.666-18.506 7.666L106 471" style="fill-rule:evenodd;clip-rule:evenodd;stroke-width:22;stroke-linecap:round;stroke-linejoin:round;stroke-miterlimit:22.9256;" fill-rule="evenodd" clip-rule="evenodd" fill="none" stroke="#11142a" stroke-width="22" stroke-linecap="round" stroke-linejoin="round" stroke-miterlimit="22.9256" data-original="#000000" opacity="1"></path><path d="M106 366.303h27.98c36.26-42.545 81.385-37.75 114.642-17.797h64.913c14.395 0 26.173 11.778 26.173 26.173 0 14.3-11.622 26.018-25.887 26.172M11 336.303h90V501H11z" style="fill-rule:evenodd;clip-rule:evenodd;stroke-width:22;stroke-linecap:round;stroke-linejoin:round;stroke-miterlimit:22.9256;" fill-rule="evenodd" clip-rule="evenodd" fill="none" stroke="#11142a" stroke-width="22" stroke-linecap="round" stroke-linejoin="round" stroke-miterlimit="22.9256" data-original="#000000" opacity="1"></path><path d="M430.317 319.634a191.382 191.382 0 0 0 15.385-47.57l36.265-2.948v-64.299l-36.257-2.948c-4.995-27.154-15.677-52.316-30.765-74.208l23.572-27.744-45.467-45.466-27.747 23.574c-21.893-15.083-47.051-25.768-74.204-30.76L288.15 11h-64.3l-2.948 36.265c-27.153 4.992-52.311 15.677-74.204 30.76l-27.747-23.574-45.467 45.466 23.572 27.744c-15.088 21.892-25.771 47.054-30.765 74.208l-36.258 2.948v64.299l36.265 2.948a191.6 191.6 0 0 0 23.749 63.256" style="fill-rule:evenodd;clip-rule:evenodd;stroke-width:22;stroke-linecap:round;stroke-linejoin:round;stroke-miterlimit:22.9256;" fill-rule="evenodd" clip-rule="evenodd" fill="none" stroke="#11142a" stroke-width="22" stroke-linecap="round" stroke-linejoin="round" stroke-miterlimit="22.9256" data-original="#000000" opacity="1"></path><path d="m240.756 273.768 5.389 2.232c10.121 4.192 21.831-.658 26.023-10.779s-.658-21.83-10.778-26.023l-5.39-2.232-5.39-2.232c-10.12-4.192-14.97-15.902-10.778-26.023 4.192-10.122 15.902-14.971 26.023-10.779l5.389 2.232M256 280.814v11.152M256 181.967v12.151" style="fill-rule:evenodd;clip-rule:evenodd;stroke-width:22;stroke-linecap:round;stroke-linejoin:round;stroke-miterlimit:22.9256;" fill-rule="evenodd" clip-rule="evenodd" fill="none" stroke="#11142a" stroke-width="22" stroke-linecap="round" stroke-linejoin="round" stroke-miterlimit="22.9256" data-original="#000000" opacity="1"></path></g></svg>