<svg xmlns="http://www.w3.org/2000/svg" version="1.1" xmlns:xlink="http://www.w3.org/1999/xlink" width="512" height="512" x="0" y="0" viewBox="0 0 512 512" style="enable-background:new 0 0 512 512" xml:space="preserve" class=""><g><path d="m188.689 133.08 63.317 63.317 43.569-43.569c8.786-8.786 23.031-8.786 31.817 0l109.747 109.747L466 233.714v89.538h-89.538l28.861-28.861-93.839-93.839-43.569 43.569c-8.786 8.786-23.031 8.786-31.817 0l-72.975-72.975M46 496V247.521h60V496M166 496V303.521h60V496M286 496V381.52h60V496M406 496v-61.479h60V496" style="fill-rule:evenodd;clip-rule:evenodd;stroke-width:22;stroke-linecap:round;stroke-linejoin:round;stroke-miterlimit:2.6131;" fill-rule="evenodd" clip-rule="evenodd" fill="none" stroke="#11142a" stroke-width="22" stroke-linecap="round" stroke-linejoin="round" stroke-miterlimit="2.6131" data-original="#000000" opacity="1"></path><path d="M11 501h490" style="fill-rule:evenodd;clip-rule:evenodd;stroke-width:22;stroke-linecap:round;stroke-linejoin:round;stroke-miterlimit:2.6131;" fill-rule="evenodd" clip-rule="evenodd" fill="none" stroke="#2cb6ce" stroke-width="22" stroke-linecap="round" stroke-linejoin="round" stroke-miterlimit="2.6131" data-original="#33cccc" opacity="1"></path><path d="m113.936 69.77-4.573-1.894c-8.589-3.557-18.526.558-22.083 9.147-3.557 8.588.559 18.526 9.147 22.083L101 101l4.574 1.894c8.588 3.558 12.703 13.494 9.146 22.083-3.557 8.589-13.494 12.704-22.083 9.147l-4.573-1.894M101 63.79v-9.463M101 147.673v-10.312" style="fill-rule:evenodd;clip-rule:evenodd;stroke-width:22;stroke-linecap:round;stroke-linejoin:round;stroke-miterlimit:22.9256;" fill-rule="evenodd" clip-rule="evenodd" fill="none" stroke="#2cb6ce" stroke-width="22" stroke-linecap="round" stroke-linejoin="round" stroke-miterlimit="22.9256" data-original="#33cccc" opacity="1"></path><path d="M101 191c49.57 0 90-40.43 90-90s-40.43-90-90-90c-49.571 0-90 40.43-90 90s40.43 90 90 90z" style="fill-rule:evenodd;clip-rule:evenodd;stroke-width:22;stroke-linecap:round;stroke-linejoin:round;stroke-miterlimit:2.6131;" fill-rule="evenodd" clip-rule="evenodd" fill="none" stroke="#2cb6ce" stroke-width="22" stroke-linecap="round" stroke-linejoin="round" stroke-miterlimit="2.6131" data-original="#33cccc" opacity="1"></path></g></svg>