<svg xmlns="http://www.w3.org/2000/svg" version="1.1" xmlns:xlink="http://www.w3.org/1999/xlink" width="512" height="512" x="0" y="0" viewBox="0 0 512.039 512.039" style="enable-background:new 0 0 512 512" xml:space="preserve" class=""><g><path d="M169.647 148.246h228.847v94.112H169.647z" style="stroke-width:22;stroke-linecap:round;stroke-linejoin:round;stroke-miterlimit:10;" fill="none" stroke="#2cb6ce" stroke-width="22" stroke-linecap="round" stroke-linejoin="round" stroke-miterlimit="10" data-original="#33cccc" opacity="1"></path><path d="M445.02 99H123.121" style="stroke-width:22;stroke-linejoin:round;stroke-miterlimit:10;" fill="none" stroke="#11142a" stroke-width="22" stroke-linejoin="round" stroke-miterlimit="10" data-original="#000000" class="" opacity="1"></path><path d="M67.02 115.952h56.101M33.02 212.809h90.101M11.02 164.38h44" style="stroke-width:22;stroke-linecap:round;stroke-linejoin:round;stroke-miterlimit:10;" fill="none" stroke="#2cb6ce" stroke-width="22" stroke-linecap="round" stroke-linejoin="round" stroke-miterlimit="10" data-original="#33cccc" opacity="1"></path><path d="M123.121 283.794V11H445.02v302.62" style="stroke-width:22;stroke-linejoin:round;stroke-miterlimit:10;" fill="none" stroke="#11142a" stroke-width="22" stroke-linejoin="round" stroke-miterlimit="10" data-original="#000000" class="" opacity="1"></path><path d="M172.173 55h0M216.173 55h0M260.173 55h0M395.968 55h-86.311M11.02 370.135c27.052-27.069 51.713-51.748 54.583-54.635 20.43-20.549 48.214-32.103 77.328-32.103h0c17.622 0 35.002 4.577 50.114 13.641 14.745 8.843 31.735 13.588 48.926 13.587l41.876-.004c19.805-.003 35.855 16.051 35.855 36.032v0c0 19.713-15.982 35.693-35.695 35.689l-79.878-.013" style="stroke-width:22;stroke-linecap:round;stroke-linejoin:round;stroke-miterlimit:10;" fill="none" stroke="#11142a" stroke-width="22" stroke-linecap="round" stroke-linejoin="round" stroke-miterlimit="10" data-original="#000000" class="" opacity="1"></path><path d="m88.734 501.039 53.921-49.308h119.932c27.775 0 55.191-6.282 80.195-18.376l140.504-67.961c15.364-7.432 21.979-25.775 14.893-41.302h0c-7.121-15.603-25.445-22.605-41.156-15.727l-150.242 65.77" style="stroke-width:22;stroke-linecap:round;stroke-linejoin:round;stroke-miterlimit:10;" fill="none" stroke="#11142a" stroke-width="22" stroke-linecap="round" stroke-linejoin="round" stroke-miterlimit="10" data-original="#000000" class="" opacity="1"></path></g></svg>