<svg xmlns="http://www.w3.org/2000/svg" version="1.1" xmlns:xlink="http://www.w3.org/1999/xlink" width="512" height="512" x="0" y="0" viewBox="0 0 512 512" style="enable-background:new 0 0 512 512" xml:space="preserve" class=""><g><path d="m135.555 295.41 53.957-71.501a35.502 35.502 0 0 0 4.665-33.032L152.838 89.966l.459-.198c24.213-11.031 48.937-1.033 60.167 23.096l8.746 18.483c2.849 6.199 11.313 7.034 15.331 1.524l82.679-113.55c6.377-8.767 21.144-11.052 29.869-4.707 9.664 7.045 11.438 20.623 4.696 29.869l-34.89 47.935c.24-.324.48-.637.731-.939 7.086-8.923 20.017-10.75 29.306-3.987l.01.01c9.382 7.086 11.397 20.664 4.477 30.172l-4.258 5.855c7.118-9.706 20.904-11.668 30.464-4.154 9.121 7.149 10.582 20.435 3.767 29.807l-9.142 12.555c7.024-9.205 20.153-11.167 29.567-4.31 9.372 6.815 11.564 19.829 5.083 29.327-.23.344-.449.678-.699 1.012l-39.241 54.448c-11.898 16.354-27.166 23.2-37.321 26.05-2.442.689-5.876 1.252-9.748 2.014a48.711 48.711 0 0 0-32.092 22.46l-3.914 5.876" style="stroke-width:22;stroke-linecap:round;stroke-linejoin:round;stroke-miterlimit:10;" fill="none" stroke="#2cb6ce" stroke-width="22" stroke-linecap="round" stroke-linejoin="round" stroke-miterlimit="10" data-original="#33cccc" opacity="1"></path><path d="M299.593 156.652h0c-9.547-6.951-11.651-20.324-4.7-29.871L320.071 92.2c6.951-9.547 20.324-11.651 29.871-4.7l.001.001c9.547 6.951 11.651 20.325 4.7 29.872l-25.179 34.58c-6.951 9.545-20.324 11.649-29.871 4.699z" style="stroke-width:22;stroke-linecap:round;stroke-linejoin:round;stroke-miterlimit:10;" fill="none" stroke="#2cb6ce" stroke-width="22" stroke-linecap="round" stroke-linejoin="round" stroke-miterlimit="10" data-original="#33cccc" opacity="1"></path><path d="M334.166 181.823h0c-9.547-6.951-11.651-20.324-4.701-29.871l20.648-28.359c6.951-9.547 20.324-11.651 29.871-4.7l.001.001c9.547 6.951 11.651 20.325 4.7 29.872l-20.649 28.359c-6.95 9.545-20.323 11.649-29.87 4.698z" style="stroke-width:22;stroke-linecap:round;stroke-linejoin:round;stroke-miterlimit:10;" fill="none" stroke="#2cb6ce" stroke-width="22" stroke-linecap="round" stroke-linejoin="round" stroke-miterlimit="10" data-original="#33cccc" opacity="1"></path><path d="M368.734 206.991h0c-9.547-6.951-11.651-20.325-4.701-29.871l10.914-14.99c6.951-9.547 20.324-11.651 29.871-4.7l.001.001c9.547 6.951 11.651 20.325 4.7 29.872l-10.915 14.99c-6.951 9.544-20.324 11.648-29.87 4.698zM244.975 42.438l9.918-25.854M202.372 42.438l-10.658-25.854" style="stroke-width:22;stroke-linecap:round;stroke-linejoin:round;stroke-miterlimit:10;" fill="none" stroke="#2cb6ce" stroke-width="22" stroke-linecap="round" stroke-linejoin="round" stroke-miterlimit="10" data-original="#33cccc" opacity="1"></path><path d="M447.332 501c26.945 0 48.788-21.843 48.788-48.788V347.406c0-26.945-21.843-48.788-48.788-48.788H64.667c-26.945 0-48.788 21.843-48.788 48.788v104.807C15.88 479.157 37.723 501 64.667 501h382.665z" style="stroke-width:22;stroke-linecap:round;stroke-linejoin:round;stroke-miterlimit:10;" fill="none" stroke="#11142a" stroke-width="22" stroke-linecap="round" stroke-linejoin="round" stroke-miterlimit="10" data-original="#000000" opacity="1"></path><path d="m143.228 444.269 33.738-88.583c.689-1.686 3.075-1.688 3.768-.004l33.431 88.586M151.601 422.207h54.137M112.064 354.831H74.551v89.028h37.513M109.298 399.345H74.551M297.927 363.657s-16.122-13.552-35.134-7.825c-17.457 5.259-19.899 25.388-7.269 33.622 0 0 12.393 5.529 26.138 10.599 33.088 12.205 18.835 44.216-7.802 44.216-13.339 0-24.534-5.841-31.31-13.318M327.331 354.421l28.699 43.953 28.464-43.725M355.918 444.269l.112-45.895M430.097 354.421v53.639M430.097 444.269h0" style="stroke-width:22;stroke-linecap:round;stroke-linejoin:round;stroke-miterlimit:10;" fill="none" stroke="#11142a" stroke-width="22" stroke-linecap="round" stroke-linejoin="round" stroke-miterlimit="10" data-original="#000000" opacity="1"></path></g></svg>