<svg xmlns="http://www.w3.org/2000/svg" version="1.1" xmlns:xlink="http://www.w3.org/1999/xlink" width="512" height="512" x="0" y="0" viewBox="0 0 512 512" style="enable-background:new 0 0 512 512" xml:space="preserve" class=""><g><path d="M103.896 342.902a502.78 502.78 0 0 1-53.175-20.263l6.673 55.448L11 411.434a599.62 599.62 0 0 0 129.784 41.139l29.097-39.618M406.246 343.488a502.592 502.592 0 0 0 55.033-20.849l-6.673 55.448L501 411.434a599.62 599.62 0 0 1-129.784 41.139l-29.096-39.617" style="stroke-width:22;stroke-linecap:round;stroke-linejoin:round;stroke-miterlimit:10;" fill="none" stroke="#11142a" stroke-width="22" stroke-linecap="round" stroke-linejoin="round" stroke-miterlimit="10" data-original="#000000" opacity="1"></path><path d="M419.08 394.363a555.21 555.21 0 0 1-326.159 0l28.577-92.982a457.917 457.917 0 0 0 269.005 0l28.577 92.982z" style="stroke-width:22;stroke-linecap:round;stroke-linejoin:round;stroke-miterlimit:10;" fill="none" stroke="#11142a" stroke-width="22" stroke-linecap="round" stroke-linejoin="round" stroke-miterlimit="10" data-original="#000000" opacity="1"></path><path d="m405.084 182.699 28.412-11.86a4.49 4.49 0 0 1 3.463 0l34.395 14.358c3.116 1.301 6.499-1.168 6.23-4.547l-2.964-37.298a4.548 4.548 0 0 1 1.07-3.309l24.221-28.425c2.194-2.575.902-6.57-2.38-7.357l-36.227-8.694a4.512 4.512 0 0 1-2.802-2.045l-19.425-31.925c-1.76-2.892-5.941-2.892-7.701 0l-19.425 31.925a4.512 4.512 0 0 1-2.802 2.045l-28.995 6.958M106.509 182.53l-28.006-11.691a4.49 4.49 0 0 0-3.463 0l-34.395 14.358c-3.116 1.301-6.499-1.168-6.23-4.547l2.964-37.298a4.548 4.548 0 0 0-1.07-3.309l-24.221-28.425c-2.194-2.575-.902-6.57 2.38-7.357l36.227-8.694a4.512 4.512 0 0 0 2.802-2.045l19.425-31.925c1.76-2.892 5.941-2.892 7.701 0l19.425 31.925a4.512 4.512 0 0 0 2.802 2.045l28.641 6.873" style="stroke-width:22;stroke-linecap:round;stroke-linejoin:round;stroke-miterlimit:10;" fill="none" stroke="#2cb6ce" stroke-width="22" stroke-linecap="round" stroke-linejoin="round" stroke-miterlimit="10" data-original="#33cccc" opacity="1" class=""></path><path d="m191.102 215.786-32.615-13.615a5.232 5.232 0 0 0-4.033 0l-40.052 16.719c-3.628 1.515-7.567-1.36-7.255-5.295l3.452-43.433a5.295 5.295 0 0 0-1.246-3.853l-28.205-33.1c-2.555-2.999-1.05-7.65 2.771-8.568l42.186-10.124a5.255 5.255 0 0 0 3.263-2.381l22.62-37.176c2.049-3.368 6.918-3.368 8.967 0l22.62 37.176a5.255 5.255 0 0 0 3.263 2.381l33.213 7.97M321.146 215.682l32.366-13.511a5.232 5.232 0 0 1 4.033 0l40.052 16.719c3.628 1.515 7.567-1.36 7.255-5.295l-3.452-43.433a5.295 5.295 0 0 1 1.246-3.853l28.205-33.1c2.555-2.999 1.051-7.65-2.771-8.568l-42.186-10.124a5.255 5.255 0 0 1-3.263-2.381l-22.62-37.176c-2.049-3.368-6.918-3.368-8.967 0l-22.62 37.176a5.255 5.255 0 0 1-3.263 2.381l-33.213 7.97" style="stroke-width:22;stroke-linecap:round;stroke-linejoin:round;stroke-miterlimit:10;" fill="none" stroke="#2cb6ce" stroke-width="22" stroke-linecap="round" stroke-linejoin="round" stroke-miterlimit="10" data-original="#33cccc" opacity="1" class=""></path><path d="m261.984 81.545 30.19 49.617a7.013 7.013 0 0 0 4.355 3.178l56.302 13.512c5.1 1.224 7.109 7.433 3.698 11.435l-37.644 44.177a7.065 7.065 0 0 0-1.663 5.143l4.607 57.968c.417 5.251-4.84 9.088-9.682 7.067l-53.455-22.314a6.984 6.984 0 0 0-5.382 0l-53.455 22.314c-4.842 2.021-10.1-1.816-9.682-7.067l4.607-57.968a7.071 7.071 0 0 0-1.663-5.143l-37.644-44.177c-3.41-4.002-1.402-10.211 3.698-11.435l56.302-13.512a7.013 7.013 0 0 0 4.355-3.178l30.19-49.617c2.733-4.495 9.231-4.495 11.966 0zM342.12 363.611a515.018 515.018 0 0 1-86.12 7.242 514.998 514.998 0 0 1-86.119-7.242" style="stroke-width:22;stroke-linecap:round;stroke-linejoin:round;stroke-miterlimit:10;" fill="none" stroke="#2cb6ce" stroke-width="22" stroke-linecap="round" stroke-linejoin="round" stroke-miterlimit="10" data-original="#33cccc" opacity="1" class=""></path></g></svg>