<svg xmlns="http://www.w3.org/2000/svg" version="1.1" xmlns:xlink="http://www.w3.org/1999/xlink" width="512" height="512" x="0" y="0" viewBox="0 0 512 512" style="enable-background:new 0 0 512 512" xml:space="preserve" class=""><g><path d="M190.899 208.703v45.774c0 35.954 29.147 65.101 65.101 65.101s65.101-29.147 65.101-65.101v-45.774" style="stroke-width:22;stroke-linejoin:round;stroke-miterlimit:10;" fill="none" stroke="#11142a" stroke-width="22" stroke-linejoin="round" stroke-miterlimit="10" data-original="#000000" opacity="1" class=""></path><path d="M173.551 208.703h164.898" style="stroke-width:22;stroke-linecap:round;stroke-linejoin:round;stroke-miterlimit:10;" fill="none" stroke="#11142a" stroke-width="22" stroke-linecap="round" stroke-linejoin="round" stroke-miterlimit="10" data-original="#000000" opacity="1" class=""></path><path d="M325.101 208.703H186.899l19.831-64.984h98.54z" style="stroke-width:22;stroke-linejoin:round;stroke-miterlimit:10;" fill="none" stroke="#11142a" stroke-width="22" stroke-linejoin="round" stroke-miterlimit="10" data-original="#000000" opacity="1" class=""></path><path d="M190.899 208.703v11.755c0 19.983 16.199 36.182 36.182 36.182 11.821 0 22.316-5.671 28.919-14.438 6.603 8.768 17.098 14.438 28.919 14.438 19.983 0 36.182-16.199 36.182-36.182v-11.755M224.887 351.531v-39.953M287.113 311.578v39.953M203.812 293.401l-42.321 22.321L226 350.691l30 65.37 30-65.37 64.509-34.969-42.321-22.321" style="stroke-width:22;stroke-linejoin:round;stroke-miterlimit:10;" fill="none" stroke="#11142a" stroke-width="22" stroke-linejoin="round" stroke-miterlimit="10" data-original="#000000" opacity="1" class=""></path><path d="m161.491 315.722 9.364 39.496-44.222 24.222M350.509 315.722l-12.06 39.496 45.693 25.693" style="stroke-width:22;stroke-linejoin:round;stroke-miterlimit:10;" fill="none" stroke="#11142a" stroke-width="22" stroke-linejoin="round" stroke-miterlimit="10" data-original="#000000" opacity="1" class=""></path><path d="M501 234h-21.544C469.104 127.561 384.439 42.896 278 32.544V11h-44v21.544C127.561 42.896 42.896 127.561 32.544 234H11v44h21.544C42.896 384.439 127.561 469.104 234 479.456V501h44v-21.544C384.439 469.104 469.104 384.439 479.456 278H501v-44z" style="stroke-width:22;stroke-linejoin:round;stroke-miterlimit:10;" fill="none" stroke="#2cb6ce" stroke-width="22" stroke-linejoin="round" stroke-miterlimit="10" data-original="#33cccc" opacity="1" class=""></path><path d="M416.061 234h19.132C425.216 151.885 360.115 86.784 278 76.806v19.132h-44V76.806C151.885 86.784 86.784 151.885 76.806 234h19.132v44H76.806C86.784 360.115 151.885 425.216 234 435.194v-19.132h44v19.132c82.115-9.978 147.216-75.079 157.194-157.194h-19.132v-44z" style="stroke-width:22;stroke-linejoin:round;stroke-miterlimit:10;" fill="none" stroke="#2cb6ce" stroke-width="22" stroke-linejoin="round" stroke-miterlimit="10" data-original="#33cccc" opacity="1" class=""></path></g></svg>