<svg xmlns="http://www.w3.org/2000/svg" version="1.1" xmlns:xlink="http://www.w3.org/1999/xlink" width="512" height="512" x="0" y="0" viewBox="0 0 512 512" style="enable-background:new 0 0 512 512" xml:space="preserve" class=""><g><path d="M499.958 314.758 272.56 87.359M386.101 200.901l-22.954-31.29c-8.312-11.331-7.113-27.031 2.824-36.968h0c11.117-11.117 29.142-11.117 40.259 0h0c9.937 9.937 11.136 25.637 2.824 36.968l-22.953 31.29z" style="stroke-width:22;stroke-linecap:round;stroke-linejoin:round;stroke-miterlimit:10;" fill="none" stroke="#2cb6ce" stroke-width="22" stroke-linecap="round" stroke-linejoin="round" stroke-miterlimit="10" data-original="#33cccc" opacity="1"></path><path d="m386.101 200.901 31.29 22.954c11.331 8.312 27.031 7.113 36.968-2.824h0c11.117-11.117 11.117-29.142 0-40.259h0c-9.937-9.937-25.637-11.136-36.968-2.824l-31.29 22.953zM386.101 200.901l22.954 31.29c8.312 11.331 7.113 27.031-2.824 36.968h0c-11.117 11.117-29.142 11.117-40.259 0h0c-9.937-9.937-11.136-25.637-2.824-36.968l22.953-31.29z" style="stroke-width:22;stroke-linecap:round;stroke-linejoin:round;stroke-miterlimit:10;" fill="none" stroke="#2cb6ce" stroke-width="22" stroke-linecap="round" stroke-linejoin="round" stroke-miterlimit="10" data-original="#33cccc" opacity="1"></path><path d="m386.101 200.901-31.29-22.954c-11.331-8.312-27.031-7.113-36.968 2.824h0c-11.117 11.117-11.117 29.142 0 40.259h0c9.937 9.937 25.637 11.136 36.968 2.824l31.29-22.953zM230.908 342.69H209.26v-45.456h21.649c10.08 0 18.327 8.247 18.327 18.327v8.801c0 10.123-8.206 18.328-18.328 18.328zM209.26 342.69v36.428M226.508 342.69l22.714 35.417M99.909 358.414c0 11.434-9.269 20.704-20.704 20.704h-2.501c-11.192 0-20.264-9.073-20.264-20.264v-41.355c0-11.192 9.073-20.264 20.264-20.264h2.501c11.434 0 20.704 9.269 20.704 20.704M132.431 379.118v-61.413c0-11.306 9.258-20.471 20.679-20.471h0c11.421 0 20.679 9.165 20.679 20.471v61.413M135.264 347.71h35.692M303.765 379.118h-23.527v-81.884h23.527c11.996 0 21.721 9.725 21.721 21.721v38.441c0 11.997-9.725 21.722-21.721 21.722z" style="stroke-width:22;stroke-linecap:round;stroke-linejoin:round;stroke-miterlimit:10;" fill="none" stroke="#2cb6ce" stroke-width="22" stroke-linecap="round" stroke-linejoin="round" stroke-miterlimit="10" data-original="#33cccc" opacity="1"></path><path d="M471 425.62H41c-16.569 0-30-13.431-30-30V116.38c0-16.569 13.431-30 30-30h430c16.569 0 30 13.431 30 30v279.24c0 16.569-13.431 30-30 30z" style="stroke-width:22;stroke-linecap:round;stroke-linejoin:round;stroke-miterlimit:10;" fill="none" stroke="#11142a" stroke-width="22" stroke-linecap="round" stroke-linejoin="round" stroke-miterlimit="10" data-original="#000000" opacity="1"></path><path d="M99.299 181.381c-3.748-5.314-9.934-8.786-16.931-8.786h-5.54c-12.03 0-21.783 9.753-21.783 21.783v38.318c0 12.03 9.753 21.783 21.783 21.783h5.54c11.434 0 20.704-9.269 20.704-20.704V221.88H92.617M207.239 172.595h-30.515v81.883M177.393 210.264h26.946M137.917 172.595v81.706M254.404 173.595v80.706M236.248 172.595h36.312" style="stroke-width:22;stroke-linecap:round;stroke-linejoin:round;stroke-miterlimit:10;" fill="none" stroke="#11142a" stroke-width="22" stroke-linecap="round" stroke-linejoin="round" stroke-miterlimit="10" data-original="#000000" opacity="1"></path></g></svg>