<svg xmlns="http://www.w3.org/2000/svg" version="1.1" xmlns:xlink="http://www.w3.org/1999/xlink" width="512" height="512" x="0" y="0" viewBox="0 0 512 512" style="enable-background:new 0 0 512 512" xml:space="preserve" class=""><g><path d="M248 377.512V237.407M248 295.656l-28.534-28.534c-18.393-18.393-18.393-48.215 0-66.608L248 171.98l28.534 28.534c18.393 18.393 18.393 48.215 0 66.608L248 295.656zM417.445 315.043V78.128M417.445 130.227l-27.262-27.262c-17.574-17.574-17.574-46.067 0-63.64l27.262-27.262 27.262 27.262c17.574 17.574 17.574 46.067 0 63.64l-27.262 27.262zM417.445 212.042c0-24.853 20.147-45.001 45.001-45.001h38.555v38.555c0 24.853-20.147 45.001-45.001 45.001h-36.666M416.101 250.597H378.89c-24.853 0-45.001-20.147-45.001-45.001v-38.555h38.555c24.853 0 45.001 20.147 45.001 45.001" style="stroke-width:22;stroke-linecap:round;stroke-linejoin:round;stroke-miterlimit:10;" fill="none" stroke="#2cb6ce" stroke-width="22" stroke-linecap="round" stroke-linejoin="round" stroke-miterlimit="10" data-original="#33cccc" opacity="1" class=""></path><path d="m375.667 208.82 41.778 41.777 41.777-41.777M92.667 387.842l-10.331-10.331c-19.025-19.025-19.025-49.87 0-68.895 0 0 0 0 0 0 5.706-5.706 14.956-5.706 20.662 0 0 0 0 0 0 0 19.025 19.025 19.025 49.87 0 68.895l-10.331 10.331zM92.667 441.575v-51.529" style="stroke-width:22;stroke-linecap:round;stroke-linejoin:round;stroke-miterlimit:10;" fill="none" stroke="#2cb6ce" stroke-width="22" stroke-linecap="round" stroke-linejoin="round" stroke-miterlimit="10" data-original="#33cccc" opacity="1" class=""></path><path d="M174.333 501H11v-56.204h159.431M337.667 501H174.333V381.77h159.556M337.667 318.743H501V501H337.667zM11 259.032l16.667-5.968C135.633 214.406 220.771 146.183 286.643 52.31L315.631 11" style="stroke-width:22;stroke-linecap:round;stroke-linejoin:round;stroke-miterlimit:10;" fill="none" stroke="#11142a" stroke-width="22" stroke-linecap="round" stroke-linejoin="round" stroke-miterlimit="10" data-original="#000000" opacity="1" class=""></path><path d="M267.293 19.136 315.631 11l8.737 46.988" style="stroke-width:22;stroke-linecap:round;stroke-linejoin:round;stroke-miterlimit:10;" fill="none" stroke="#11142a" stroke-width="22" stroke-linecap="round" stroke-linejoin="round" stroke-miterlimit="10" data-original="#000000" opacity="1" class=""></path></g></svg>