<svg xmlns="http://www.w3.org/2000/svg" version="1.1" xmlns:xlink="http://www.w3.org/1999/xlink" width="512" height="512" x="0" y="0" viewBox="0 0 512 512" style="enable-background:new 0 0 512 512" xml:space="preserve" class=""><g><path d="M283.956 232.218c2.351-62.237-38.396-120.072-101.1-136.873-72.815-19.511-147.66 23.701-167.171 96.516s23.701 147.66 96.516 167.171c41.494 11.118 83.641 1.86 115.838-21.629" style="stroke-width:22;stroke-linejoin:round;stroke-miterlimit:10;" fill="none" stroke="#2cb6ce" stroke-width="22" stroke-linejoin="round" stroke-miterlimit="10" data-original="#33cccc" opacity="1"></path><path d="m402.625 33-45.786 79.303M284.057 46.305l15.598 58.214M450.387 142.336l-58.214 15.598" style="stroke-width:22;stroke-linecap:round;stroke-linejoin:round;stroke-miterlimit:10;" fill="none" stroke="#2cb6ce" stroke-width="22" stroke-linecap="round" stroke-linejoin="round" stroke-miterlimit="10" data-original="#33cccc" opacity="1"></path><path d="m196.618 214.501 2.836-10.584M185.015 262.96c-6.499 24.256-31.431 38.65-55.687 32.151-24.256-6.499-38.65-31.431-32.151-55.687l87.838 23.536zM111.359 191.656l2.837-10.584" style="stroke-width:22;stroke-linecap:round;stroke-linejoin:round;stroke-miterlimit:10;" fill="none" stroke="#11142a" stroke-width="22" stroke-linecap="round" stroke-linejoin="round" stroke-miterlimit="10" data-original="#000000" opacity="1" class=""></path><circle cx="364.472" cy="342.472" r="136.494" style="stroke-width:22;stroke-linecap:round;stroke-linejoin:round;stroke-miterlimit:10;" fill="none" stroke="#11142a" stroke-width="22" stroke-linecap="round" stroke-linejoin="round" stroke-miterlimit="10" data-original="#000000" opacity="1" class=""></circle><path d="M380.274 308.042c7.794-13.5 25.056-18.125 38.556-10.331M415.089 355.705c6.499 24.256-7.895 49.187-32.151 55.687s-49.187-7.895-55.687-32.151l87.838-23.536zM295.016 330.887c7.794-13.5 25.056-18.125 38.556-10.331" style="stroke-width:22;stroke-linecap:round;stroke-linejoin:round;stroke-miterlimit:10;" fill="none" stroke="#11142a" stroke-width="22" stroke-linecap="round" stroke-linejoin="round" stroke-miterlimit="10" data-original="#000000" opacity="1" class=""></path></g></svg>