<svg xmlns="http://www.w3.org/2000/svg" version="1.1" xmlns:xlink="http://www.w3.org/1999/xlink" width="512" height="512" x="0" y="0" viewBox="0 0 512 512" style="enable-background:new 0 0 512 512" xml:space="preserve" class=""><g><path d="M198.293 180.255c31.82-31.852 83.594-31.852 115.414 0M229.122 211.116c14.844-14.859 38.911-14.859 53.755 0M297.559 269.595v75.59M349.838 269.595v75.59M297.559 306.094h52.279M264.124 328.671H215.07s24.348-49.272 28.366-54.205c4.063-4.988 10.886-1.877 11.253 2.523.366 4.4 0 68.196 0 68.196M194.391 345.016s-35.63.448-37.318-.115c-1.688-.563 2.706-3.536 26.066-36.933 4.363-6.237 6.764-11.499 7.786-15.907l.362-2.834c0-10.355-8.39-18.75-18.739-18.75-9.106 0-16.696 6.5-18.387 15.115" style="stroke-width:22;stroke-linecap:round;stroke-linejoin:round;stroke-miterlimit:10;" fill="none" stroke="#33cccc" stroke-width="22" stroke-linecap="round" stroke-linejoin="round" stroke-miterlimit="10" data-original="#33cccc" opacity="1" class=""></path><path d="M452.258 391.536v7.297c0 37.388-30.317 67.697-67.715 67.697h-87.32" style="stroke-width:22;stroke-linecap:round;stroke-linejoin:round;stroke-miterlimit:10;" fill="none" stroke="#000000" stroke-width="22" stroke-linecap="round" stroke-linejoin="round" stroke-miterlimit="10" data-original="#000000" opacity="1" class=""></path><ellipse cx="260.745" cy="466.531" rx="34.478" ry="34.469" style="stroke-width:22;stroke-linecap:round;stroke-linejoin:round;stroke-miterlimit:10;" fill="none" stroke="#000000" stroke-width="22" stroke-linecap="round" stroke-linejoin="round" stroke-miterlimit="10" data-original="#000000" opacity="1" class=""></ellipse><path d="M452.258 224.006v-11.741C452.258 101.109 362.125 11 250.941 11h0C139.756 11 49.623 101.109 49.623 212.265v11.741" style="stroke-width:22;stroke-linecap:round;stroke-linejoin:round;stroke-miterlimit:10;" fill="none" stroke="#000000" stroke-width="22" stroke-linecap="round" stroke-linejoin="round" stroke-miterlimit="10" data-original="#000000" opacity="1" class=""></path><path d="M98.296 224.006v-11.741c0-84.147 68.476-152.605 152.644-152.605 84.169 0 152.645 68.458 152.645 152.605v11.741M110.802 387.557h-60.34c-19.058 0-34.507-15.449-34.507-34.507v-90.023c0-19.058 15.449-34.507 34.507-34.507h60.34v159.037zM391.079 228.519h70.459c19.058 0 34.507 15.449 34.507 34.507v90.023c0 19.058-15.449 34.507-34.507 34.507h-70.459V228.519z" style="stroke-width:22;stroke-linecap:round;stroke-linejoin:round;stroke-miterlimit:10;" fill="none" stroke="#000000" stroke-width="22" stroke-linecap="round" stroke-linejoin="round" stroke-miterlimit="10" data-original="#000000" opacity="1" class=""></path></g></svg>