<svg xmlns="http://www.w3.org/2000/svg" version="1.1" xmlns:xlink="http://www.w3.org/1999/xlink" width="512" height="512" x="0" y="0" viewBox="0 0 512 512" style="enable-background:new 0 0 512 512" xml:space="preserve" class=""><g><path d="M256 41V11M389.7 96.38l21.213-21.213M445.081 230.081h30M389.7 363.781l21.213 21.213M122.3 96.38l-21.213-21.213M66.919 230.081h-30M122.3 363.781l-21.213 21.213" style="stroke-width:22;stroke-linecap:round;stroke-linejoin:round;stroke-miterlimit:10;" fill="none" stroke="#2cb6ce" stroke-width="22" stroke-linecap="round" stroke-linejoin="round" stroke-miterlimit="10" data-original="#33cccc" opacity="1"></path><circle cx="256" cy="247.603" r="36" style="stroke-width:22;stroke-linecap:round;stroke-linejoin:round;stroke-miterlimit:10;" fill="none" stroke="#2cb6ce" stroke-width="22" stroke-linecap="round" stroke-linejoin="round" stroke-miterlimit="10" data-original="#33cccc" opacity="1"></circle><path d="M256 283.603v126.604" style="stroke-width:22;stroke-linejoin:round;stroke-miterlimit:10;" fill="none" stroke="#2cb6ce" stroke-width="22" stroke-linejoin="round" stroke-miterlimit="10" data-original="#33cccc" opacity="1"></path><path d="M401.081 230.081c0-79.455-63.872-143.992-143.072-145.067-80.214-1.088-145.653 62.241-147.066 142.45-.764 43.352 17.491 82.454 46.975 109.519 12.624 11.589 19.786 27.957 19.786 45.094 0 15.536 12.594 28.13 28.13 28.13h100.334c15.536 0 28.13-12.594 28.13-28.13 0-17.127 7.145-33.495 19.765-45.075 28.9-26.52 47.018-64.605 47.018-106.921zM194.276 410.207v65.587c0 13.921 11.285 25.206 25.206 25.206h73.034c13.921 0 25.206-11.285 25.206-25.206v-65.587" style="stroke-width:22;stroke-linejoin:round;stroke-miterlimit:10;" fill="none" stroke="#11142a" stroke-width="22" stroke-linejoin="round" stroke-miterlimit="10" data-original="#000000" opacity="1"></path><path d="M177.703 455.603h156.594" style="stroke-width:22;stroke-linecap:round;stroke-linejoin:round;stroke-miterlimit:10;" fill="none" stroke="#11142a" stroke-width="22" stroke-linecap="round" stroke-linejoin="round" stroke-miterlimit="10" data-original="#000000" opacity="1"></path></g></svg>