<svg xmlns="http://www.w3.org/2000/svg" version="1.1" xmlns:xlink="http://www.w3.org/1999/xlink" width="512" height="512" x="0" y="0" viewBox="0 0 512 512" style="enable-background:new 0 0 512 512" xml:space="preserve" class=""><g><path d="M303.951 158.29c-5.333 19.564-23.304 34.062-44.5 34.062h-35.493l-57.639 47.043v-47.043h-54.207C86.75 192.352 66 171.602 66 146.241V95.715c0-25.362 20.75-46.111 46.111-46.111h109.943" style="fill-rule:evenodd;clip-rule:evenodd;stroke-width:22;stroke-linecap:round;stroke-linejoin:round;stroke-miterlimit:2.6131;" fill-rule="evenodd" clip-rule="evenodd" fill="none" stroke="#2cb6ce" stroke-width="22" stroke-linecap="round" stroke-linejoin="round" stroke-miterlimit="2.6131" data-original="#33cccc" opacity="1"></path><path d="M311.208 82.374h.007M356.208 82.374h.008M401.223 82.374h.008" style="fill-rule:evenodd;clip-rule:evenodd;stroke-width:22;stroke-linecap:round;stroke-linejoin:round;stroke-miterlimit:22.9256;" fill-rule="evenodd" clip-rule="evenodd" fill="none" stroke="#2cb6ce" stroke-width="22" stroke-linecap="round" stroke-linejoin="round" stroke-miterlimit="22.9256" data-original="#33cccc" opacity="1"></path><circle cx="114.513" cy="330.611" r="49.783" style="fill-rule:evenodd;clip-rule:evenodd;stroke-width:22;stroke-linecap:round;stroke-linejoin:round;stroke-miterlimit:2.6131;" transform="rotate(-67.5 114.512 330.604)" fill-rule="evenodd" clip-rule="evenodd" fill="none" stroke="#11142a" stroke-width="22" stroke-linecap="round" stroke-linejoin="round" stroke-miterlimit="2.6131" data-original="#000000" opacity="1"></circle><circle cx="342.013" cy="298.27" r="49.783" style="fill-rule:evenodd;clip-rule:evenodd;stroke-width:22;stroke-linecap:round;stroke-linejoin:round;stroke-miterlimit:2.6131;" transform="rotate(-70.099 342 298.262)" fill-rule="evenodd" clip-rule="evenodd" fill="none" stroke="#11142a" stroke-width="22" stroke-linecap="round" stroke-linejoin="round" stroke-miterlimit="2.6131" data-original="#000000" opacity="1"></circle><path d="M430.526 451v-10.747c0-50.706-39.831-92.195-88.513-92.195S253.5 389.545 253.5 440.253V451M385.682 153.749h54.207c25.362 0 46.111-20.75 46.111-46.111V57.111C486 31.75 465.251 11 439.889 11h-167.34c-25.346 0-46.111 20.765-46.111 46.111v50.526c0 25.354 20.75 46.111 46.111 46.111h55.494l57.639 47.043v-47.042zM207.526 456H481v45H203.026M26 472.595V501h177.026v-28.405c0-50.706-39.831-92.195-88.513-92.195S26 421.887 26 472.595z" style="fill-rule:evenodd;clip-rule:evenodd;stroke-width:22;stroke-linecap:round;stroke-linejoin:round;stroke-miterlimit:2.6131;" fill-rule="evenodd" clip-rule="evenodd" fill="none" stroke="#11142a" stroke-width="22" stroke-linecap="round" stroke-linejoin="round" stroke-miterlimit="2.6131" data-original="#000000" opacity="1"></path></g></svg>