<svg xmlns="http://www.w3.org/2000/svg" version="1.1" xmlns:xlink="http://www.w3.org/1999/xlink" width="512" height="512" x="0" y="0" viewBox="0 0 512 512" style="enable-background:new 0 0 512 512" xml:space="preserve" class=""><g><path d="m311.171 210.098-42.22-13.833M301.483 239.615l-42.22-13.833" style="stroke-width:22;stroke-linecap:round;stroke-linejoin:round;stroke-miterlimit:10;" fill="none" stroke="#2cb6ce" stroke-width="22" stroke-linecap="round" stroke-linejoin="round" stroke-miterlimit="10" data-original="#00cccc" opacity="1"></path><path d="M56.371 280.916h401.885v44.428H56.371z" style="stroke-width:22;stroke-linecap:round;stroke-linejoin:round;stroke-miterlimit:10;" transform="rotate(-71.856 257.326 303.126)" fill="none" stroke="#11142a" stroke-width="22" stroke-linecap="round" stroke-linejoin="round" stroke-miterlimit="10" data-original="#000000" opacity="1"></path><path d="M286.93 140.64c-71.942-29.923-119.756-74.327-109.302-103.855 11.431-32.287 88.199-34.562 171.467-5.082 83.268 29.48 141.503 79.553 130.072 111.839 0 0-7.77 21.505-28.424 22.476" style="stroke-width:22;stroke-linecap:round;stroke-linejoin:round;stroke-miterlimit:10;" fill="none" stroke="#11142a" stroke-width="22" stroke-linecap="round" stroke-linejoin="round" stroke-miterlimit="10" data-original="#000000" opacity="1"></path><path d="m464.778 354.811 35.443 19.385-35.443 19.385-19.385 35.443-19.384-35.443-35.444-19.385 35.444-19.385 19.384-35.443zM71.956 77.164l28.74 15.719-28.74 15.718-15.719 28.74-15.718-28.74-28.74-15.718 28.74-15.719 15.718-28.74zM450.742 166.019l28.74 15.719-28.74 15.718-15.718 28.74-15.719-28.74-28.74-15.718 28.74-15.719 15.719-28.74z" style="stroke-width:22;stroke-linecap:round;stroke-linejoin:round;stroke-miterlimit:10;" fill="none" stroke="#2cb6ce" stroke-width="22" stroke-linecap="round" stroke-linejoin="round" stroke-miterlimit="10" data-original="#00cccc" opacity="1"></path><path d="M147.75 137.341h0M59.595 196.265h0M383.352 277.522h0" style="stroke-width:22;stroke-linecap:round;stroke-linejoin:round;stroke-miterlimit:10;" fill="none" stroke="#11142a" stroke-width="22" stroke-linecap="round" stroke-linejoin="round" stroke-miterlimit="10" data-original="#000000" opacity="1"></path></g></svg>