<svg xmlns="http://www.w3.org/2000/svg" version="1.1" xmlns:xlink="http://www.w3.org/1999/xlink" width="512" height="512" x="0" y="0" viewBox="0 0 512 512" style="enable-background:new 0 0 512 512" xml:space="preserve" class=""><g><path d="M265.629 31.129 285.743 11M328.528 94.076l20.114-20.129M307.135 52.538l20.114-20.129M417.986 183.602l20.114-20.128M480.886 246.55 501 226.421M459.493 205.012l20.114-20.129M339.175 272.331l57.893 57.936M180.799 113.835l60.244 60.289" style="fill-rule:evenodd;clip-rule:evenodd;stroke-width:22;stroke-linecap:round;stroke-linejoin:round;stroke-miterlimit:2.6131;" fill-rule="evenodd" clip-rule="evenodd" fill="none" stroke="#2cb6ce" stroke-width="22" stroke-linecap="round" stroke-linejoin="round" stroke-miterlimit="2.6131" data-original="#33cccc" opacity="1"></path><path d="m234.179 62.603 62.899 62.947-150.917 151.032c-24.603 24.622-24.603 64.908-.001 89.528 24.602 24.62 64.855 24.622 89.46-.001l150.918-151.033 62.899 62.947-136.94 165.021c-63.594 76.634-173.589 76.718-246.731 3.521s-74.061-182.443 3.518-246.918L234.179 62.603z" style="fill-rule:evenodd;clip-rule:evenodd;stroke-width:22;stroke-linecap:round;stroke-linejoin:round;stroke-miterlimit:2.6131;" fill-rule="evenodd" clip-rule="evenodd" fill="none" stroke="#11142a" stroke-width="22" stroke-linecap="round" stroke-linejoin="round" stroke-miterlimit="2.6131" data-original="#000000" opacity="1"></path></g></svg>