<svg xmlns="http://www.w3.org/2000/svg" version="1.1" xmlns:xlink="http://www.w3.org/1999/xlink" width="512" height="512" x="0" y="0" viewBox="0 0 512 512" style="enable-background:new 0 0 512 512" xml:space="preserve" class=""><g><path d="M11 99h434.648" style="stroke-width:22;stroke-linejoin:round;stroke-miterlimit:10;" fill="none" stroke="#11142a" stroke-width="22" stroke-linejoin="round" stroke-miterlimit="10" data-original="#000000" opacity="1" class=""></path><path d="M350.048 426.25v-47.812c20.504-10.023 34.636-31.065 34.636-55.426 0-26.313-16.486-48.757-39.684-57.62v39.723l-22 18.499-22-18.499v-39.723c-23.198 8.863-39.684 31.307-39.684 57.62 0 24.36 14.132 45.403 34.636 55.426v47.812" style="stroke-width:22;stroke-linejoin:round;stroke-miterlimit:10;" fill="none" stroke="#2cb6ce" stroke-width="22" stroke-linejoin="round" stroke-miterlimit="10" data-original="#33cccc" opacity="1"></path><path d="M60.052 55h0M104.052 55h0M148.052 55h0M396.597 55h-182.37" style="stroke-width:22;stroke-linecap:round;stroke-linejoin:round;stroke-miterlimit:10;" fill="none" stroke="#11142a" stroke-width="22" stroke-linecap="round" stroke-linejoin="round" stroke-miterlimit="10" data-original="#000000" opacity="1" class=""></path><path d="M194.567 407.458H11V11h434.648v181.513" style="stroke-width:22;stroke-linejoin:round;stroke-miterlimit:10;" fill="none" stroke="#11142a" stroke-width="22" stroke-linejoin="round" stroke-miterlimit="10" data-original="#000000" opacity="1" class=""></path><path d="M501 352.226v-58.452h-29.109a150.854 150.854 0 0 0-22.947-55.387l20.586-20.586-41.332-41.332-20.586 20.586a150.854 150.854 0 0 0-55.387-22.947V145h-58.452v29.109a150.861 150.861 0 0 0-55.387 22.947L217.8 176.47l-41.332 41.332 20.586 20.586a150.854 150.854 0 0 0-22.947 55.387H145v58.452h29.109a150.854 150.854 0 0 0 22.947 55.387L176.47 428.2l41.332 41.332 20.586-20.586a150.854 150.854 0 0 0 55.387 22.947V501h58.452v-29.109a150.854 150.854 0 0 0 55.387-22.947L428.2 469.53l41.332-41.332-20.586-20.586a150.854 150.854 0 0 0 22.947-55.387H501z" style="stroke-width:22;stroke-linecap:round;stroke-linejoin:round;stroke-miterlimit:10;" fill="none" stroke="#11142a" stroke-width="22" stroke-linecap="round" stroke-linejoin="round" stroke-miterlimit="10" data-original="#000000" opacity="1" class=""></path><circle cx="323" cy="323" r="106.713" style="stroke-width:22;stroke-linecap:round;stroke-linejoin:round;stroke-miterlimit:10;" fill="none" stroke="#11142a" stroke-width="22" stroke-linecap="round" stroke-linejoin="round" stroke-miterlimit="10" data-original="#000000" opacity="1" class=""></circle><path d="M165.472 151.221H55M128 199.221H55M128 247.221H55" style="stroke-width:22;stroke-linecap:round;stroke-linejoin:round;stroke-miterlimit:10;" fill="none" stroke="#2cb6ce" stroke-width="22" stroke-linecap="round" stroke-linejoin="round" stroke-miterlimit="10" data-original="#33cccc" opacity="1"></path></g></svg>