<svg xmlns="http://www.w3.org/2000/svg" version="1.1" xmlns:xlink="http://www.w3.org/1999/xlink" width="512" height="512" x="0" y="0" viewBox="0 0 512 512" style="enable-background:new 0 0 512 512" xml:space="preserve" class=""><g><path d="M221.475 470.059c-61.866-.654-111.488-51.337-110.834-113.203" style="stroke-width:22;stroke-linecap:round;stroke-linejoin:round;stroke-miterlimit:10;" fill="none" stroke="#11142a" stroke-width="22" stroke-linecap="round" stroke-linejoin="round" stroke-miterlimit="10" data-original="#000000" opacity="1"></path><path d="m90.568 367.781 20.261-20.261 20.262 20.261M335.805 106.339c61.866.654 111.488 51.337 110.834 113.203" style="stroke-width:22;stroke-linecap:round;stroke-linejoin:round;stroke-miterlimit:10;" fill="none" stroke="#11142a" stroke-width="22" stroke-linecap="round" stroke-linejoin="round" stroke-miterlimit="10" data-original="#000000" opacity="1"></path><path d="m466.712 208.618-20.261 20.261-20.261-20.261M300.664 135.252h-9.511a13.116 13.116 0 0 1-12.47-9.048 121.515 121.515 0 0 0-7.178-17.329 13.128 13.128 0 0 1 2.41-15.235l6.726-6.726c5.127-5.127 5.127-13.439 0-18.566l-22.384-22.384c-5.127-5.127-13.439-5.127-18.566 0l-6.726 6.726a13.128 13.128 0 0 1-15.235 2.41 121.515 121.515 0 0 0-17.329-7.178 13.116 13.116 0 0 1-9.048-12.47v-9.511c0-7.251-5.878-13.128-13.128-13.128h-31.656c-7.251 0-13.128 5.878-13.128 13.128v9.511a13.116 13.116 0 0 1-9.048 12.47 121.515 121.515 0 0 0-17.329 7.178 13.128 13.128 0 0 1-15.235-2.41l-6.726-6.726c-5.127-5.127-13.439-5.127-18.566 0L44.151 68.348c-5.127 5.127-5.127 13.439 0 18.566l6.726 6.726a13.128 13.128 0 0 1 2.41 15.235 121.515 121.515 0 0 0-7.178 17.329 13.117 13.117 0 0 1-12.471 9.048h-9.511c-7.251 0-13.128 5.878-13.128 13.128v31.656c0 7.251 5.878 13.128 13.128 13.128h9.511a13.116 13.116 0 0 1 12.47 9.048 121.515 121.515 0 0 0 7.178 17.329 13.128 13.128 0 0 1-2.41 15.235l-6.726 6.726c-5.127 5.127-5.127 13.439 0 18.566l22.384 22.384c5.127 5.127 13.439 5.127 18.566 0l6.726-6.726a13.128 13.128 0 0 1 15.235-2.41 121.515 121.515 0 0 0 17.329 7.178 13.116 13.116 0 0 1 9.048 12.47v9.511c0 7.25 5.878 13.128 13.128 13.128h31.656c7.251 0 13.128-5.878 13.128-13.128v-9.511a13.116 13.116 0 0 1 9.048-12.47 121.515 121.515 0 0 0 17.329-7.178 13.13 13.13 0 0 1 15.235 2.41l6.726 6.726c5.127 5.127 13.439 5.127 18.566 0l22.384-22.384c5.127-5.127 5.127-13.439 0-18.566l-6.726-6.726a13.128 13.128 0 0 1-2.41-15.235 121.515 121.515 0 0 0 7.178-17.329 13.116 13.116 0 0 1 12.47-9.048h9.511c7.251 0 13.128-5.878 13.128-13.128V148.38c.003-7.25-5.874-13.128-13.125-13.128zM162.396 237.296c-40.365 0-73.087-32.722-73.087-73.087s32.722-73.087 73.087-73.087 73.087 32.722 73.087 73.087c0 40.364-32.722 73.087-73.087 73.087z" style="stroke-width:22;stroke-linecap:round;stroke-linejoin:round;stroke-miterlimit:10;" fill="none" stroke="#11142a" stroke-width="22" stroke-linecap="round" stroke-linejoin="round" stroke-miterlimit="10" data-original="#000000" opacity="1"></path><path d="M490.831 359.485h-7.367a10.16 10.16 0 0 1-9.66-7.009 94.128 94.128 0 0 0-5.56-13.423 10.17 10.17 0 0 1 1.867-11.801l5.21-5.21c3.971-3.971 3.971-10.41 0-14.382l-17.339-17.339c-3.971-3.971-10.41-3.971-14.381 0l-5.21 5.21a10.17 10.17 0 0 1-11.801 1.867 94.128 94.128 0 0 0-13.423-5.56 10.16 10.16 0 0 1-7.009-9.66v-7.367c0-5.616-4.553-10.169-10.169-10.169h-24.521c-5.616 0-10.169 4.553-10.169 10.169v7.367a10.16 10.16 0 0 1-7.009 9.66 94.128 94.128 0 0 0-13.423 5.56 10.17 10.17 0 0 1-11.801-1.867l-5.21-5.21c-3.971-3.971-10.41-3.971-14.382 0l-17.339 17.339c-3.971 3.971-3.971 10.41 0 14.382l5.21 5.21a10.17 10.17 0 0 1 1.867 11.801 94.128 94.128 0 0 0-5.56 13.423 10.16 10.16 0 0 1-9.66 7.009h-7.367c-5.616 0-10.169 4.553-10.169 10.169v24.521c0 5.616 4.553 10.169 10.169 10.169h7.367a10.16 10.16 0 0 1 9.66 7.009 94.128 94.128 0 0 0 5.56 13.423 10.17 10.17 0 0 1-1.867 11.801l-5.21 5.21c-3.971 3.971-3.971 10.41 0 14.382l17.339 17.339c3.971 3.971 10.41 3.971 14.382 0l5.21-5.21a10.17 10.17 0 0 1 11.801-1.867 94.128 94.128 0 0 0 13.423 5.56 10.16 10.16 0 0 1 7.009 9.66v7.367c0 5.616 4.553 10.169 10.169 10.169h24.521c5.616 0 10.169-4.553 10.169-10.169v-7.367a10.16 10.16 0 0 1 7.009-9.66 94.128 94.128 0 0 0 13.423-5.56 10.17 10.17 0 0 1 11.801 1.867l5.21 5.21c3.971 3.971 10.41 3.971 14.381 0l17.339-17.339c3.971-3.971 3.971-10.41 0-14.382l-5.21-5.21a10.17 10.17 0 0 1-1.867-11.801 94.128 94.128 0 0 0 5.56-13.423 10.16 10.16 0 0 1 9.66-7.009h7.367c5.616 0 10.169-4.553 10.169-10.169v-24.521c0-5.616-4.553-10.169-10.169-10.169zm-107.103 64.818c-23.41 0-42.388-18.978-42.388-42.388 0-23.41 18.978-42.388 42.388-42.388 23.41 0 42.388 18.978 42.388 42.388 0 23.41-18.978 42.388-42.388 42.388z" style="stroke-width:22;stroke-linecap:round;stroke-linejoin:round;stroke-miterlimit:10;" fill="none" stroke="#2cb6ce" stroke-width="22" stroke-linecap="round" stroke-linejoin="round" stroke-miterlimit="10" data-original="#33cccc" opacity="1"></path></g></svg>