<svg xmlns="http://www.w3.org/2000/svg" version="1.1" xmlns:xlink="http://www.w3.org/1999/xlink" width="512" height="512" x="0" y="0" viewBox="0 0 512 512" style="enable-background:new 0 0 512 512" xml:space="preserve" class=""><g><path d="M399.55 338.903a187.745 187.745 0 0 1-13.803 23.516l22.95 27.012-44.266 44.266-27.014-22.952c-21.315 14.685-45.808 25.088-72.245 29.948L262.301 476H199.7l-2.87-35.3c-26.437-4.862-50.935-15.263-72.248-29.953l-27.012 22.95-44.266-44.267 22.952-27.014c-14.685-21.315-25.088-45.808-29.948-72.245L11 287.3v-62.601l35.3-2.87c4.862-26.437 15.263-50.935 29.953-72.248l-22.95-27.012L97.57 78.304l27.014 22.951c21.315-14.685 45.809-25.088 72.245-29.948L199.699 36H262.3l2.871 35.307c26.437 4.86 50.935 15.259 72.249 29.945l27.011-22.949 44.266 44.266-22.948 27.009a187.72 187.72 0 0 1 13.532 22.97" style="fill-rule:evenodd;clip-rule:evenodd;stroke-width:22;stroke-linecap:round;stroke-linejoin:round;stroke-miterlimit:22.9256;" fill-rule="evenodd" clip-rule="evenodd" fill="none" stroke="#11142a" stroke-width="22" stroke-linecap="round" stroke-linejoin="round" stroke-miterlimit="22.9256" data-original="#000000" opacity="1" class=""></path><path d="M331.352 338.641A130.001 130.001 0 0 1 231 386c-71.797 0-130-58.203-130-130s58.203-130 130-130a130.001 130.001 0 0 1 100.018 46.955" style="fill-rule:evenodd;clip-rule:evenodd;stroke-width:22;stroke-linecap:round;stroke-linejoin:round;stroke-miterlimit:2.6131;" fill-rule="evenodd" clip-rule="evenodd" fill="none" stroke="#11142a" stroke-width="22" stroke-linecap="round" stroke-linejoin="round" stroke-miterlimit="2.6131" data-original="#000000" opacity="1" class=""></path><path d="M481 176H296c-11 0-20 9-20 20v120c0 11 9 20 20 20h185c11 0 20-9 20-20V196c0-11-9-20-20-20z" style="fill-rule:evenodd;clip-rule:evenodd;stroke-width:22;stroke-linecap:round;stroke-linejoin:round;stroke-miterlimit:2.6131;" fill-rule="evenodd" clip-rule="evenodd" fill="none" stroke="#2cb6ce" stroke-width="22" stroke-linecap="round" stroke-linejoin="round" stroke-miterlimit="2.6131" data-original="#33cccc" opacity="1"></path><path d="M279.446 216.982 388.5 275.5l109.247-58.622M230.999 301H211M230.999 256H196M230.999 211H181" style="fill-rule:evenodd;clip-rule:evenodd;stroke-width:22;stroke-linecap:round;stroke-linejoin:round;stroke-miterlimit:2.6131;" fill-rule="evenodd" clip-rule="evenodd" fill="none" stroke="#2cb6ce" stroke-width="22" stroke-linecap="round" stroke-linejoin="round" stroke-miterlimit="2.6131" data-original="#33cccc" opacity="1"></path></g></svg>