<svg xmlns="http://www.w3.org/2000/svg" version="1.1" xmlns:xlink="http://www.w3.org/1999/xlink" width="512" height="512" x="0" y="0" viewBox="0 0 512 512" style="enable-background:new 0 0 512 512" xml:space="preserve" class=""><g><ellipse cx="256" cy="194.972" rx="91.509" ry="91.508" style="stroke-width:22;stroke-linecap:round;stroke-linejoin:round;stroke-miterlimit:10;" transform="rotate(-45.001 255.999 194.976)" fill="none" stroke="#2cb6ce" stroke-width="22" stroke-linecap="round" stroke-linejoin="round" stroke-miterlimit="10" data-original="#33cccc" opacity="1"></ellipse><path d="M262.346 354.457 323.221 501l43.672-52.544 68.035 4.836L380.9 321.84M131.1 321.84 77.072 453.292l68.035-4.836L190.813 501l58.841-146.543M145.451 448.853l41.169-97.079M366.549 448.853l-41.169-97.079" style="stroke-width:22;stroke-linecap:round;stroke-linejoin:round;stroke-miterlimit:10;" fill="none" stroke="#2cb6ce" stroke-width="22" stroke-linecap="round" stroke-linejoin="round" stroke-miterlimit="10" data-original="#33cccc" opacity="1"></path><path d="M232.499 22.058a30.5 30.5 0 0 1 47.002 0l6.335 7.657a30.501 30.501 0 0 0 32.759 9.619l9.469-3.016c8.661-2.759 18.102-1.511 25.749 3.403s12.704 14 13.792 23.025l1.19 9.866c1.49 12.357 10.339 24.603 22.358 27.837l9.596 2.582a30.506 30.506 0 0 1 19.526 42.755l-4.333 8.943a30.503 30.503 0 0 0 4.859 33.795l6.677 7.36a30.503 30.503 0 0 1-6.689 46.525l-8.48 5.181a30.502 30.502 0 0 0-14.183 31.057l1.638 9.802a30.504 30.504 0 0 1-30.78 35.523l-9.935-.226a30.502 30.502 0 0 0-28.722 18.459l-3.921 9.131a30.501 30.501 0 0 1-45.099 13.242l-8.236-5.562a30.502 30.502 0 0 0-34.142 0l-8.236 5.562a30.504 30.504 0 0 1-45.099-13.242l-3.921-9.131a30.503 30.503 0 0 0-28.722-18.459l-9.935.226a30.502 30.502 0 0 1-30.78-35.523l1.638-9.802a30.502 30.502 0 0 0-14.183-31.057l-8.48-5.181a30.504 30.504 0 0 1-6.689-46.525l6.677-7.36a30.503 30.503 0 0 0 4.859-33.795l-4.333-8.943a30.501 30.501 0 0 1 19.525-42.755l9.596-2.582c12.019-3.234 20.868-15.479 22.359-27.837l1.19-9.866c1.088-9.025 6.145-18.111 13.792-23.025s17.088-6.162 25.749-3.403l9.469 3.016a30.5 30.5 0 0 0 32.759-9.619l6.335-7.657z" style="stroke-width:22;stroke-linecap:round;stroke-linejoin:round;stroke-miterlimit:10;" fill="none" stroke="#000000" stroke-width="22" stroke-linecap="round" stroke-linejoin="round" stroke-miterlimit="10" data-original="#000000" opacity="1" class=""></path></g></svg>