<svg xmlns="http://www.w3.org/2000/svg" version="1.1" xmlns:xlink="http://www.w3.org/1999/xlink" width="512" height="512" x="0" y="0" viewBox="0 0 512 512" style="enable-background:new 0 0 512 512" xml:space="preserve" class=""><g><path d="M99.981 445.524h9.111c15.734 0 31.254 3.628 45.352 10.602h0a102.287 102.287 0 0 0 45.352 10.602M200.189 138.379V38.96c0-15.378 12.582-27.96 27.96-27.96h244.89C488.418 11 501 23.582 501 38.96v434.08c0 15.378-12.582 27.96-27.96 27.96H228.15c-15.378 0-27.96-12.582-27.96-27.96V337.599M300.751 62.33h57.954M400.438 62.33h0" style="stroke-width:22;stroke-linecap:round;stroke-linejoin:round;stroke-miterlimit:10;" fill="none" stroke="#11142a" stroke-width="22" stroke-linecap="round" stroke-linejoin="round" stroke-miterlimit="10" data-original="#000000" opacity="1"></path><path d="M171.062 357.198c26.614-10.768 44.029-36.573 44.029-65.242v-13.511c0-32.866 3.429-65.642 10.232-97.798h0c4.607-21.778-12.034-42.267-34.329-42.267h0a13.852 13.852 0 0 0-13.399 10.308l-17.648 66.853a108.45 108.45 0 0 1-23.728 44.282h0a108.62 108.62 0 0 1-29.546 23.445h-6.692M421.631 448.893H281.565a9.166 9.166 0 0 1-9.166-9.166v-30.085a9.166 9.166 0 0 1 9.166-9.166h140.066a9.166 9.166 0 0 1 9.166 9.166v30.085a9.166 9.166 0 0 1-9.166 9.166z" style="stroke-width:22;stroke-linecap:round;stroke-linejoin:round;stroke-miterlimit:10;" fill="none" stroke="#11142a" stroke-width="22" stroke-linecap="round" stroke-linejoin="round" stroke-miterlimit="10" data-original="#000000" opacity="1"></path><path d="M97.858 452.648V275.942a8.368 8.368 0 0 0-8.368-8.368H19.368A8.368 8.368 0 0 0 11 275.942v176.706a8.368 8.368 0 0 0 8.368 8.368h70.121a8.369 8.369 0 0 0 8.369-8.368zM432.271 249.408l-18.872 88.738a11.06 11.06 0 0 1-10.819 8.76H298.61a11.06 11.06 0 0 1-10.819-8.76l-18.872-88.738M259.636 248.783h181.917M279.028 247.228l24.807-38.09M421.21 247.228l-24.806-38.09M351.598 114.643v63.975l26.032-20.714M351.598 178.618l-26.032-20.714" style="stroke-width:22;stroke-linecap:round;stroke-linejoin:round;stroke-miterlimit:10;" fill="none" stroke="#2cb6ce" stroke-width="22" stroke-linecap="round" stroke-linejoin="round" stroke-miterlimit="10" data-original="#33cccc" opacity="1"></path></g></svg>