<svg xmlns="http://www.w3.org/2000/svg" version="1.1" xmlns:xlink="http://www.w3.org/1999/xlink" width="512" height="512" x="0" y="0" viewBox="0 0 512 512" style="enable-background:new 0 0 512 512" xml:space="preserve" class=""><g><path d="M177.247 112.006C107.92 129.758 56.671 192.65 56.671 267.511v0c0 53.669 26.345 101.179 66.803 130.322v53.474c0 23.283 18.875 42.158 42.158 42.158h0c23.283 0 42.158-18.875 42.158-42.158v-23.564c3.11.18 94.506.164 97.672-.022v23.586c0 23.283 18.875 42.158 42.158 42.158h0c23.283 0 42.158-18.875 42.158-42.158V397.7c20.121-14.538 36.745-33.617 48.351-55.748 6.92-13.197 20.388-21.661 35.284-22.066l8.998-.849c10.348-.281 18.59-8.751 18.59-19.102v-64.848c0-10.351-8.242-18.821-18.59-19.102l-8.998-.849c-14.896-.405-28.364-8.869-35.284-22.066a160.924 160.924 0 0 0-25.897-36.131c-1.553-1.634-2.39-3.82-2.39-6.074V78.081a8.343 8.343 0 0 0-8.343-8.343h0c-21.536 0-40.525 10.898-51.756 27.48" style="stroke-width:22;stroke-linecap:round;stroke-linejoin:round;stroke-miterlimit:10;" fill="none" stroke="#11142a" stroke-width="22" stroke-linecap="round" stroke-linejoin="round" stroke-miterlimit="10" data-original="#000000" opacity="1"></path><path d="M196.528 187.119H331.71" style="stroke-width:22;stroke-linecap:round;stroke-linejoin:round;stroke-miterlimit:10;" fill="none" stroke="#2cb6ce" stroke-width="22" stroke-linecap="round" stroke-linejoin="round" stroke-miterlimit="10" data-original="#33cccc" opacity="1"></path><path d="M11 177.222c0 41.74 10.852 58.374 47.68 58.374h0M383.82 206.536v10.853M123.474 397.834v-35.189M305.458 428.721v-27.155" style="stroke-width:22;stroke-linecap:round;stroke-linejoin:round;stroke-miterlimit:10;" fill="none" stroke="#11142a" stroke-width="22" stroke-linecap="round" stroke-linejoin="round" stroke-miterlimit="10" data-original="#000000" opacity="1"></path><path d="M278.705 75.514s-10.424-5.594-18.229-2.81c-8.506 3.034-12.098 12.878-7.285 20.293 2.883 4.441 9.496 6.725 17.279 9.476 17.421 6.158 10.981 30.725-6.74 30.843-6.915.046-10.409.003-16.223-4.367M263.73 133.317v8.967M263.73 63.369v5.599" style="stroke-width:22;stroke-linecap:round;stroke-linejoin:round;stroke-miterlimit:10;" fill="none" stroke="#2cb6ce" stroke-width="22" stroke-linecap="round" stroke-linejoin="round" stroke-miterlimit="10" data-original="#33cccc" opacity="1"></path><circle cx="264.119" cy="102.827" r="84.292" style="stroke-width:22;stroke-linecap:round;stroke-linejoin:round;stroke-miterlimit:10;" fill="none" stroke="#2cb6ce" stroke-width="22" stroke-linecap="round" stroke-linejoin="round" stroke-miterlimit="10" data-original="#33cccc" opacity="1"></circle></g></svg>