<svg xmlns="http://www.w3.org/2000/svg" version="1.1" xmlns:xlink="http://www.w3.org/1999/xlink" width="512" height="512" x="0" y="0" viewBox="0 0 512 512" style="enable-background:new 0 0 512 512" xml:space="preserve" class=""><g><path d="M160.561 300.747c28.267 46.586 79.46 77.717 137.931 77.717 19.582 0 38.348-3.494 55.712-9.888l47.5 27.424v-54.907a162.09 162.09 0 0 0 33.673-38.64m23.105-105.238C448.624 117.617 380.759 56 298.493 56c-82.072 0-149.81 61.325-159.918 140.651" style="fill-rule:evenodd;clip-rule:evenodd;stroke-width:22;stroke-linecap:round;stroke-linejoin:round;stroke-miterlimit:2.6131;" fill-rule="evenodd" clip-rule="evenodd" fill="none" stroke="#11142a" stroke-width="22" stroke-linecap="round" stroke-linejoin="round" stroke-miterlimit="2.6131" data-original="#000000" opacity="1"></path><path d="M280.671 379.826c-27.34 36.357-70.834 59.876-119.827 59.876-18.199 0-35.639-3.247-51.776-9.189L64.922 456v-51.029C31.971 377.485 11 336.123 11 289.858c0-80.181 62.977-145.652 142.164-149.649" style="fill-rule:evenodd;clip-rule:evenodd;stroke-width:22;stroke-linecap:round;stroke-linejoin:round;stroke-miterlimit:2.6131;" fill-rule="evenodd" clip-rule="evenodd" fill="none" stroke="#11142a" stroke-width="22" stroke-linecap="round" stroke-linejoin="round" stroke-miterlimit="2.6131" data-original="#000000" opacity="1"></path><path d="m285.018 130.389-11.506 22.196-24.713 4.092c-12.483 2.049-16.697 17.159-8.143 25.68l17.413 17.659-3.758 24.856c-1.926 12.825 12.075 21.748 22.85 15.152l21.31-10.67 22.46 11.246c10.975 5.492 23.505-3.789 21.7-15.728l-3.758-24.856 17.607-17.856c8.597-8.729 3.688-23.514-8.337-25.482l-24.713-4.094-11.536-22.252c-5.697-11.017-21.365-10.766-26.876.057zM443.269 202.815l-15.438 16.905-22.829-2.237c-11.527-1.146-18.835 11.22-13.289 20.784l11.217 19.746-9.215 21.094c-4.743 10.887 5.526 22.097 16.62 18.817l21.377-4.387 17.2 15.27c8.406 7.458 21.688 2.219 22.921-8.768l2.566-22.876 19.805-11.62c9.672-5.684 8.835-19.924-1.335-24.515l-20.888-9.478-4.93-22.416c-2.425-11.094-16.343-14.585-23.782-6.319zM153.717 202.815l15.438 16.905 22.829-2.237c11.527-1.146 18.835 11.22 13.289 20.784l-11.217 19.746 9.215 21.094c4.743 10.887-5.526 22.097-16.619 18.817l-21.377-4.387-17.2 15.27c-8.406 7.458-21.688 2.219-22.921-8.768l-2.566-22.876-19.805-11.62c-9.672-5.684-8.834-19.924 1.335-24.515l20.888-9.478 4.929-22.416c2.425-11.094 16.343-14.585 23.782-6.319z" style="fill-rule:evenodd;clip-rule:evenodd;stroke-width:22;stroke-linecap:round;stroke-linejoin:round;stroke-miterlimit:2.6131;" fill-rule="evenodd" clip-rule="evenodd" fill="none" stroke="#2cb6ce" stroke-width="22" stroke-linecap="round" stroke-linejoin="round" stroke-miterlimit="2.6131" data-original="#33cccc" opacity="1"></path></g></svg>