<svg xmlns="http://www.w3.org/2000/svg" version="1.1" xmlns:xlink="http://www.w3.org/1999/xlink" width="512" height="512" x="0" y="0" viewBox="0 0 512 512" style="enable-background:new 0 0 512 512" xml:space="preserve" class=""><g><path d="M65.536 230.692H161M166 289.123h-37.295a14.595 14.595 0 0 0-12.886 7.737l-22.396 42.098M161 172.26h-32.295a14.595 14.595 0 0 1-12.886-7.737l-22.396-42.098M285.77 379.451c-45.736-30.065-73.042-80.691-73.042-135.424V116.381c38.065-15.985 79.247-24.347 120.582-24.347s82.517 8.361 120.582 24.347v127.645c0 54.734-27.306 105.36-73.042 135.424l-47.54 31.25-47.54-31.249z" style="stroke-width:22;stroke-linecap:round;stroke-linejoin:round;stroke-miterlimit:10;" fill="none" stroke="#2cb6ce" stroke-width="22" stroke-linecap="round" stroke-linejoin="round" stroke-miterlimit="10" data-original="#33cccc" opacity="1"></path><path d="M373.981 308.65H292.64c-9.145 0-16.558-7.413-16.558-16.558v-63.069c0-9.145 7.413-16.558 16.558-16.558h81.341c9.145 0 16.558 7.413 16.558 16.558v63.069c0 9.144-7.414 16.558-16.558 16.558zM296.828 167.554c2.69-13.542 14.638-23.751 28.971-23.751h15.022c16.313 0 29.537 13.224 29.537 29.537v39.124M333.31 254.195v11.741M80.767 336.269c14.635 0 26.5 11.855 26.5 26.479 0 14.624-11.864 26.479-26.5 26.479s-26.5-11.855-26.5-26.479c.001-14.624 11.865-26.479 26.5-26.479z" style="stroke-width:22;stroke-linecap:round;stroke-linejoin:round;stroke-miterlimit:10;" fill="none" stroke="#11142a" stroke-width="22" stroke-linecap="round" stroke-linejoin="round" stroke-miterlimit="10" data-original="#000000" opacity="1"></path><ellipse cx="37.5" cy="230.692" rx="26.5" ry="26.479" style="stroke-width:22;stroke-linecap:round;stroke-linejoin:round;stroke-miterlimit:10;" fill="none" stroke="#11142a" stroke-width="22" stroke-linecap="round" stroke-linejoin="round" stroke-miterlimit="10" data-original="#000000" opacity="1"></ellipse><ellipse cx="80.767" cy="98.636" rx="26.5" ry="26.479" style="stroke-width:22;stroke-linecap:round;stroke-linejoin:round;stroke-miterlimit:10;" fill="none" stroke="#11142a" stroke-width="22" stroke-linecap="round" stroke-linejoin="round" stroke-miterlimit="10" data-original="#000000" opacity="1"></ellipse><path d="m333.31 467.075 73.416-48.259C465.569 380.135 501 314.443 501 244.026V86.624h0c-52.44-27.799-110.065-41.698-167.69-41.698S218.061 58.825 165.62 86.624h0v157.402c0 70.418 35.431 136.109 94.274 174.789l73.416 48.26z" style="stroke-width:22;stroke-linecap:round;stroke-linejoin:round;stroke-miterlimit:10;" fill="none" stroke="#11142a" stroke-width="22" stroke-linecap="round" stroke-linejoin="round" stroke-miterlimit="10" data-original="#000000" opacity="1"></path></g></svg>