<svg xmlns="http://www.w3.org/2000/svg" version="1.1" xmlns:xlink="http://www.w3.org/1999/xlink" width="512" height="512" x="0" y="0" viewBox="0 0 512 512" style="enable-background:new 0 0 512 512" xml:space="preserve" class=""><g><path d="M202.575 411H11V11h450v305" style="fill-rule:evenodd;clip-rule:evenodd;stroke-width:22;stroke-linecap:round;stroke-linejoin:round;stroke-miterlimit:22.9256;" fill-rule="evenodd" clip-rule="evenodd" fill="none" stroke="#11142a" stroke-width="22" stroke-linecap="round" stroke-linejoin="round" stroke-miterlimit="22.9256" data-original="#000000" opacity="1" class=""></path><path d="M456 56H200.999l-35 45H16M56 56h.007M101 56h.007M145.999 56h.008" style="fill-rule:evenodd;clip-rule:evenodd;stroke-width:22;stroke-linecap:round;stroke-linejoin:round;stroke-miterlimit:22.9256;" fill-rule="evenodd" clip-rule="evenodd" fill="none" stroke="#11142a" stroke-width="22" stroke-linecap="round" stroke-linejoin="round" stroke-miterlimit="22.9256" data-original="#000000" opacity="1" class=""></path><path d="M237.575 321H471c16.5 0 30 13.5 30 30v120c0 16.501-13.5 30-30 30H237.575c-16.5 0-30-13.499-30-30V351c0-16.5 13.5-30 30-30z" style="fill-rule:evenodd;clip-rule:evenodd;stroke-width:22;stroke-linecap:round;stroke-linejoin:round;stroke-miterlimit:2.6131;" fill-rule="evenodd" clip-rule="evenodd" fill="none" stroke="#11142a" stroke-width="22" stroke-linecap="round" stroke-linejoin="round" stroke-miterlimit="2.6131" data-original="#000000" opacity="1" class=""></path><path d="m94.771 312.81 114.748-114.748 53.329 53.329 108.25-108.251" style="fill-rule:evenodd;clip-rule:evenodd;stroke-width:22;stroke-linecap:round;stroke-linejoin:round;stroke-miterlimit:2.6131;" fill-rule="evenodd" clip-rule="evenodd" fill="none" stroke="#33cccc" stroke-width="22" stroke-linecap="round" stroke-linejoin="round" stroke-miterlimit="2.6131" data-original="#33cccc" opacity="1"></path><path d="M377.228 167.444V137.01h-30.434" style="fill-rule:evenodd;clip-rule:evenodd;stroke-width:22;stroke-linecap:round;stroke-linejoin:round;stroke-miterlimit:2.6131;" fill-rule="evenodd" clip-rule="evenodd" fill="none" stroke="#33cccc" stroke-width="22" stroke-linecap="round" stroke-linejoin="round" stroke-miterlimit="2.6131" data-original="#33cccc" opacity="1"></path><path d="M370.712 455h-38.5v-88h38.5M338.263 411h21.036M427.712 367h0c12.1 0 22 9.9 22 22v44c0 12.1-9.9 22-22 22h0c-12.1 0-21.999-9.9-21.999-22v-44c0-12.1 9.899-22 21.999-22zM294.591 371.06l-5.849-2.423c-10.984-4.549-23.693.714-28.242 11.699-4.55 10.984.715 23.692 11.697 28.242l5.849 2.423 5.849 2.422c10.983 4.55 16.247 17.258 11.698 28.242-4.549 10.985-17.258 16.248-28.242 11.699l-5.848-2.422" style="fill-rule:evenodd;clip-rule:evenodd;stroke-width:22;stroke-linecap:round;stroke-linejoin:round;stroke-miterlimit:22.9256;" fill-rule="evenodd" clip-rule="evenodd" fill="none" stroke="#33cccc" stroke-width="22" stroke-linecap="round" stroke-linejoin="round" stroke-miterlimit="22.9256" data-original="#33cccc" opacity="1"></path></g></svg>