<svg xmlns="http://www.w3.org/2000/svg" version="1.1" xmlns:xlink="http://www.w3.org/1999/xlink" width="512" height="512" x="0" y="0" viewBox="0 0 512 512" style="enable-background:new 0 0 512 512" xml:space="preserve" class=""><g><path d="M270.937 184.354s-.372-.343-1.077-.832c-2.367-1.642-8.485-4.93-16.874-2.403-9.997 3.011-12.48 16.69-5.686 22.019 3.901 3.06 9.77 5.575 17.681 8.371 17.705 6.258 11.16 31.226-6.849 31.346-7.028.047-10.314-.399-16.488-4.438M258.131 242.855v9.114M258.131 171.767v8.429" style="stroke-width:22;stroke-linecap:round;stroke-linejoin:round;stroke-miterlimit:10;" fill="none" stroke="#2cb6ce" stroke-width="22" stroke-linecap="round" stroke-linejoin="round" stroke-miterlimit="10" data-original="#33cccc" opacity="1" class=""></path><circle cx="256" cy="211.868" r="89.637" style="stroke-width:22;stroke-linecap:round;stroke-linejoin:round;stroke-miterlimit:10;" fill="none" stroke="#2cb6ce" stroke-width="22" stroke-linecap="round" stroke-linejoin="round" stroke-miterlimit="10" data-original="#33cccc" opacity="1" class=""></circle><path d="M248.317 12.145 63.778 68.376a26.358 26.358 0 0 0-18.675 25.213v129.48c0 96.923 50.705 186.784 133.669 236.894l59.994 36.236a33.334 33.334 0 0 0 34.468 0l59.994-36.236c82.965-50.11 133.669-139.97 133.669-236.894V93.589a26.357 26.357 0 0 0-18.675-25.213l-184.54-56.232a26.349 26.349 0 0 0-15.365.001z" style="stroke-width:22;stroke-linecap:round;stroke-linejoin:round;stroke-miterlimit:10;" fill="none" stroke="#11142a" stroke-width="22" stroke-linecap="round" stroke-linejoin="round" stroke-miterlimit="10" data-original="#000000" opacity="1" class=""></path><path d="M206.577 413.929c-32.797-19.809-60.084-47.918-78.913-81.286-18.828-33.369-28.78-71.258-28.78-109.572v-109.17L256 66.025l157.117 47.876V223.07c0 38.314-9.952 76.204-28.781 109.572-18.828 33.369-46.116 61.478-78.913 81.286L256 443.779l-49.423-29.85zM203.585 353.217h104.067" style="stroke-width:22;stroke-linecap:round;stroke-linejoin:round;stroke-miterlimit:10;" fill="none" stroke="#11142a" stroke-width="22" stroke-linecap="round" stroke-linejoin="round" stroke-miterlimit="10" data-original="#000000" opacity="1" class=""></path></g></svg>