<svg xmlns="http://www.w3.org/2000/svg" version="1.1" xmlns:xlink="http://www.w3.org/1999/xlink" width="512" height="512" x="0" y="0" viewBox="0 0 512 512" style="enable-background:new 0 0 512 512" xml:space="preserve" class=""><g><path d="M501 99.003H11" style="stroke-width:22;stroke-linejoin:round;stroke-miterlimit:10;" fill="none" stroke="#11142a" stroke-width="22" stroke-linejoin="round" stroke-miterlimit="10" data-original="#000000" opacity="1" class=""></path><path d="m227.104 446.851 88.239-48.976-48.976 88.239c-7.74 13.945-25.319 18.975-39.264 11.235-13.945-7.74-18.975-25.319-11.235-39.264 2.703-4.867 6.709-8.703 11.236-11.234z" style="stroke-width:22;stroke-linecap:round;stroke-linejoin:round;stroke-miterlimit:10;" fill="none" stroke="#11142a" stroke-width="22" stroke-linecap="round" stroke-linejoin="round" stroke-miterlimit="10" data-original="#000000" opacity="1" class=""></path><path d="M58.495 413.338H11V11.003h490v402.335h-47.195M67 55.003h0M119 55.003h0M171 55.003h0M445 55.003H256" style="stroke-width:22;stroke-linecap:round;stroke-linejoin:round;stroke-miterlimit:10;" fill="none" stroke="#11142a" stroke-width="22" stroke-linecap="round" stroke-linejoin="round" stroke-miterlimit="10" data-original="#000000" opacity="1" class=""></path><path d="M256 300.003v27.868M144.984 345.987l19.743 19.743M367.016 345.987 347.4 365.604M385.386 457.003H413c0-86.709-70.291-157-157-157s-157 70.291-157 157h27.867" style="stroke-width:22;stroke-linecap:round;stroke-linejoin:round;stroke-miterlimit:10;" fill="none" stroke="#2cb6ce" stroke-width="22" stroke-linecap="round" stroke-linejoin="round" stroke-miterlimit="10" data-original="#33cccc" opacity="1"></path><path d="M256 256.003c-111.009 0-201 89.991-201 201 0 15.114 1.68 29.833 4.842 43.994h392.315a201.664 201.664 0 0 0 4.842-43.994c.001-111.009-89.99-201-200.999-201z" style="stroke-width:22;stroke-linecap:round;stroke-linejoin:round;stroke-miterlimit:10;" fill="none" stroke="#11142a" stroke-width="22" stroke-linecap="round" stroke-linejoin="round" stroke-miterlimit="10" data-original="#000000" opacity="1" class=""></path><path d="M67 157.97h148.793M67 217.966h112.088M445 157.97H296.207M445 217.966H332.912" style="stroke-width:22;stroke-linecap:round;stroke-linejoin:round;stroke-miterlimit:10;" fill="none" stroke="#2cb6ce" stroke-width="22" stroke-linecap="round" stroke-linejoin="round" stroke-miterlimit="10" data-original="#33cccc" opacity="1"></path></g></svg>