<svg xmlns="http://www.w3.org/2000/svg" version="1.1" xmlns:xlink="http://www.w3.org/1999/xlink" width="512" height="512" x="0" y="0" viewBox="0 0 512 512" style="enable-background:new 0 0 512 512" xml:space="preserve" class=""><g><path d="M451.229 143.812H11v-53.39c0-27.614 22.386-50 50-50h340.229c27.614 0 50 22.386 50 50v53.39z" style="stroke-width:22;stroke-linecap:round;stroke-linejoin:round;stroke-miterlimit:10;" fill="none" stroke="#11142a" stroke-width="22" stroke-linecap="round" stroke-linejoin="round" stroke-miterlimit="10" data-original="#000000" opacity="1"></path><path d="M451.229 197.403v-53.591H11v277.857c0 27.564 22.345 49.909 49.909 49.909h340.412c27.564 0 49.909-22.345 49.909-49.909v-48.704" style="stroke-width:22;stroke-linecap:round;stroke-linejoin:round;stroke-miterlimit:10;" fill="none" stroke="#11142a" stroke-width="22" stroke-linecap="round" stroke-linejoin="round" stroke-miterlimit="10" data-original="#000000" opacity="1"></path><path d="m132.201 253.72 12.42 62.787c.457 1.285 2.279 1.273 2.718-.018l19.392-62.652M166.73 253.72l19.343 62.787c.457 1.285 2.279 1.273 2.718-.018l12.469-62.652M254.191 253.72l12.42 62.787c.457 1.285 2.279 1.273 2.718-.018l19.392-62.652M288.72 253.72l19.343 62.787c.457 1.285 2.279 1.273 2.718-.018l12.469-62.652M376.181 253.72l12.42 62.787c.457 1.285 2.279 1.273 2.718-.018l19.392-62.652M410.71 253.72l19.343 62.787c.457 1.285 2.279 1.273 2.718-.018l12.469-62.652" style="stroke-width:22;stroke-linecap:round;stroke-linejoin:round;stroke-miterlimit:10;" fill="none" stroke="#2cb6ce" stroke-width="22" stroke-linecap="round" stroke-linejoin="round" stroke-miterlimit="10" data-original="#33cccc" opacity="1"></path><path d="M451 367.233H126.441c-27.614 0-50-22.386-50-50v-63.282c0-27.614 22.386-50 50-50H451c27.614 0 50 22.386 50 50v63.282c0 27.614-22.386 50-50 50z" style="stroke-width:22;stroke-linecap:round;stroke-linejoin:round;stroke-miterlimit:10;" fill="none" stroke="#2cb6ce" stroke-width="22" stroke-linecap="round" stroke-linejoin="round" stroke-miterlimit="10" data-original="#33cccc" opacity="1"></path><path d="M288.72 92.117h0M335.054 92.117h0M381.387 92.117h0" style="stroke-width:22;stroke-linecap:round;stroke-linejoin:round;stroke-miterlimit:10;" fill="none" stroke="#11142a" stroke-width="22" stroke-linecap="round" stroke-linejoin="round" stroke-miterlimit="10" data-original="#000000" opacity="1"></path></g></svg>