<svg xmlns="http://www.w3.org/2000/svg" version="1.1" xmlns:xlink="http://www.w3.org/1999/xlink" width="512" height="512" x="0" y="0" viewBox="0 0 511.999 511.999" style="enable-background:new 0 0 512 512" xml:space="preserve" class=""><g><path d="M298.929 190.056h-52.93l-68.018 67.87h-39.16" style="stroke-width:22;stroke-linejoin:round;stroke-miterlimit:10;" fill="none" stroke="#11142a" stroke-width="22" stroke-linejoin="round" stroke-miterlimit="10" data-original="#000000" opacity="1"></path><path d="M365.577 427.053v40.622c0 18.404-14.92 33.324-33.324 33.324-18.404 0-33.324-14.92-33.324-33.324v-40.68M365.577 234.059v-90.93c23.388-12.085 39.386-36.472 39.386-64.613 0-30.619-18.935-56.798-45.726-67.516v56.132l-26.984 12.265-26.984-12.265V11c-27.349 10.941-46.512 37.995-45.702 69.435.7 27.172 16.577 50.739 39.361 62.603v91.021" style="stroke-width:22;stroke-linejoin:round;stroke-miterlimit:10;" fill="none" stroke="#2cb6ce" stroke-width="22" stroke-linejoin="round" stroke-miterlimit="10" data-original="#33cccc" opacity="1" class=""></path><path d="M138.821 402.853h39.16l43.519 24.142h151.367c13.319 0 24.117-10.798 24.117-24.117v0c0-13.319-10.798-24.117-24.117-24.117h-28.534 44.612c13.319 0 24.117-10.798 24.117-24.117v0c0-13.319-10.798-24.117-24.117-24.117h-44.612 58.729c13.319 0 24.117-10.798 24.117-24.117v0c0-13.319-10.798-24.117-24.117-24.117h-58.729 44.612c13.319 0 24.117-10.798 24.117-24.117v0c0-13.319-10.798-24.117-24.117-24.117H274.852" style="stroke-width:22;stroke-linecap:round;stroke-linejoin:round;stroke-miterlimit:10;" fill="none" stroke="#11142a" stroke-width="22" stroke-linecap="round" stroke-linejoin="round" stroke-miterlimit="10" data-original="#000000" opacity="1"></path><path d="M84.821 247.926h54v164.928h-54z" style="stroke-width:22;stroke-linejoin:round;stroke-miterlimit:10;" fill="none" stroke="#11142a" stroke-width="22" stroke-linejoin="round" stroke-miterlimit="10" data-original="#000000" opacity="1"></path></g></svg>