<svg width="6" height="10" viewBox="0 0 6 10" fill="none" xmlns="http://www.w3.org/2000/svg">
<path d="M0.370569 8.93307L4.30362 5L0.370569 1.06693C0.254534 0.949481 0.189687 0.790888 0.190188 0.625785C0.19069 0.460683 0.256498 0.302486 0.373244 0.185741C0.489989 0.0689955 0.648186 0.00318674 0.813288 0.00268557C0.978391 0.00218439 1.13698 0.0670315 1.25444 0.183066L5.62944 4.55807C5.74664 4.67528 5.81249 4.83424 5.81249 5C5.81249 5.16576 5.74664 5.32472 5.62944 5.44193L1.25444 9.81693C1.13698 9.93297 0.978391 9.99781 0.813288 9.99731C0.648186 9.99681 0.489989 9.931 0.373244 9.81426C0.256498 9.69751 0.19069 9.53932 0.190188 9.37421C0.189687 9.20911 0.254534 9.05052 0.370569 8.93307Z" fill="white"/>
</svg>
