<svg width="572" height="572" viewBox="0 0 572 572" fill="none" xmlns="http://www.w3.org/2000/svg">
<path d="M351.613 7.60361C351.644 7.61206 351.673 7.62796 351.697 7.64993C351.72 7.67191 351.738 7.69931 351.749 7.72979C351.76 7.76027 351.763 7.79291 351.759 7.82493C351.754 7.85695 351.742 7.88738 351.723 7.91361L170.783 257.114C170.751 257.157 170.71 257.192 170.662 257.217C170.614 257.241 170.562 257.254 170.508 257.254C170.454 257.254 170.401 257.241 170.354 257.217C170.306 257.192 170.265 257.157 170.233 257.114L62.373 108.674C62.2948 108.562 62.2544 108.429 62.258 108.293C62.2616 108.158 62.309 108.028 62.393 107.924C131.443 21.6436 243.513 -17.7964 351.613 7.60361Z" fill="#11142A"/>
<path d="M278.052 167.391C277.984 167.37 277.923 167.333 277.872 167.283C277.821 167.233 277.783 167.172 277.76 167.105C277.736 167.037 277.729 166.964 277.738 166.893C277.747 166.821 277.772 166.752 277.812 166.691L378.442 11.7114C378.589 11.4853 378.81 11.3171 379.067 11.2351C379.324 11.1531 379.601 11.1624 379.852 11.2614C444.862 36.3714 498.902 84.3114 533.662 144.511C554.755 181.051 567.289 220.245 571.262 262.091C571.267 262.155 571.256 262.219 571.23 262.278C571.204 262.337 571.164 262.388 571.114 262.428C571.063 262.467 571.004 262.494 570.941 262.505C570.878 262.516 570.813 262.511 570.752 262.491L278.052 167.391Z" fill="#2CB6CE"/>
<path d="M-0.00217899 290.53V290.01C-0.328846 235.124 13.5512 184.337 41.6378 137.65C41.6544 137.622 41.6779 137.598 41.7063 137.582C41.7347 137.565 41.7671 137.556 41.8007 137.555C41.8343 137.554 41.8681 137.561 41.8989 137.576C41.9298 137.591 41.9569 137.613 41.9778 137.64L222.958 386.73C222.995 386.782 223.019 386.842 223.028 386.905C223.038 386.968 223.032 387.033 223.012 387.094C222.991 387.155 222.957 387.211 222.911 387.257C222.865 387.303 222.809 387.339 222.748 387.36L48.5978 443.95C48.4079 444.011 48.2032 444.008 48.0153 443.941C47.8274 443.874 47.6667 443.747 47.5578 443.58C21.4845 404.007 6.09115 360.56 1.37782 313.24C0.904488 308.447 0.444488 300.877 -0.00217899 290.53Z" fill="#9B86FE"/>
<path d="M396.723 549.676C396.693 549.687 396.66 549.691 396.628 549.687C396.595 549.683 396.565 549.671 396.538 549.652C396.511 549.634 396.49 549.609 396.475 549.58C396.46 549.551 396.453 549.519 396.453 549.486L396.493 241.546C396.494 241.493 396.507 241.441 396.531 241.394C396.556 241.348 396.59 241.307 396.633 241.276C396.676 241.245 396.725 241.224 396.777 241.216C396.829 241.207 396.883 241.21 396.933 241.226L571.413 297.986C571.541 298.031 571.652 298.116 571.727 298.228C571.803 298.34 571.84 298.472 571.833 298.606C566.643 408.976 499.123 506.726 396.723 549.676Z" fill="#9B86FE"/>
<path d="M69.5693 472.669C69.5481 472.644 69.5336 472.613 69.5272 472.581C69.5208 472.548 69.5226 472.514 69.5325 472.482C69.5425 472.451 69.5602 472.422 69.5841 472.399C69.608 472.375 69.6373 472.358 69.6693 472.349L362.479 377.249C362.531 377.234 362.585 377.23 362.638 377.239C362.691 377.249 362.74 377.27 362.783 377.302C362.826 377.335 362.861 377.376 362.885 377.425C362.908 377.473 362.92 377.526 362.919 377.579L362.849 561.009C362.848 561.146 362.804 561.278 362.723 561.386C362.642 561.494 362.528 561.573 362.399 561.609C255.839 590.769 142.039 556.759 69.5693 472.669Z" fill="#2CB6CE"/>
</svg>
