<svg width="1052" height="218" viewBox="0 0 1052 218" fill="none" xmlns="http://www.w3.org/2000/svg">
<path d="M270.348 161V70.55H239.448V56H319.098V70.55H288.198V161H270.348ZM333.335 161V53H351.335V97.1C353.835 93 357.235 89.75 361.535 87.35C365.835 84.85 370.685 83.6 376.085 83.6C382.285 83.6 387.535 84.9 391.835 87.5C396.135 90 399.385 93.75 401.585 98.75C403.885 103.65 405.035 109.8 405.035 117.2V161H387.185V118.85C387.185 112.35 385.785 107.4 382.985 104C380.285 100.6 376.135 98.9 370.535 98.9C366.935 98.9 363.685 99.8 360.785 101.6C357.885 103.3 355.585 105.8 353.885 109.1C352.185 112.3 351.335 116.25 351.335 120.95V161H333.335ZM449.355 162.8C443.155 162.8 438.005 161.75 433.905 159.65C429.805 157.55 426.755 154.75 424.755 151.25C422.755 147.75 421.755 143.95 421.755 139.85C421.755 135.05 422.955 130.9 425.355 127.4C427.855 123.9 431.505 121.2 436.305 119.3C441.105 117.3 447.005 116.3 454.005 116.3H473.055C473.055 112.3 472.505 109 471.405 106.4C470.305 103.7 468.605 101.7 466.305 100.4C464.005 99.1 461.055 98.45 457.455 98.45C453.355 98.45 449.855 99.4 446.955 101.3C444.055 103.1 442.255 105.9 441.555 109.7H423.855C424.455 104.3 426.255 99.7 429.255 95.9C432.255 92 436.205 89 441.105 86.9C446.105 84.7 451.555 83.6 457.455 83.6C464.555 83.6 470.605 84.85 475.605 87.35C480.605 89.75 484.405 93.25 487.005 97.85C489.705 102.35 491.055 107.8 491.055 114.2V161H475.755L473.955 148.85C472.955 150.85 471.655 152.7 470.055 154.4C468.555 156.1 466.805 157.6 464.805 158.9C462.805 160.1 460.505 161.05 457.905 161.75C455.405 162.45 452.555 162.8 449.355 162.8ZM453.405 148.55C456.305 148.55 458.855 148.05 461.055 147.05C463.355 145.95 465.305 144.45 466.905 142.55C468.605 140.55 469.905 138.35 470.805 135.95C471.705 133.55 472.305 131 472.605 128.3V128H455.955C452.455 128 449.555 128.45 447.255 129.35C444.955 130.15 443.305 131.35 442.305 132.95C441.305 134.55 440.805 136.4 440.805 138.5C440.805 140.6 441.305 142.4 442.305 143.9C443.305 145.4 444.755 146.55 446.655 147.35C448.555 148.15 450.805 148.55 453.405 148.55ZM511.038 161V85.4H529.038V161H511.038ZM520.038 73.4C516.738 73.4 513.988 72.4 511.788 70.4C509.688 68.3 508.638 65.75 508.638 62.75C508.638 59.65 509.688 57.15 511.788 55.25C513.988 53.25 516.738 52.25 520.038 52.25C523.338 52.25 526.038 53.25 528.138 55.25C530.338 57.15 531.438 59.65 531.438 62.75C531.438 65.75 530.338 68.3 528.138 70.4C526.038 72.4 523.338 73.4 520.038 73.4ZM585.689 162.8C578.089 162.8 571.339 161.45 565.439 158.75C559.539 156.05 554.939 152.2 551.639 147.2C548.339 142.2 546.639 136.25 546.539 129.35H565.589C565.589 132.85 566.389 136 567.989 138.8C569.689 141.5 571.989 143.65 574.889 145.25C577.889 146.85 581.489 147.65 585.689 147.65C589.289 147.65 592.389 147.1 594.989 146C597.689 144.8 599.739 143.15 601.139 141.05C602.639 138.85 603.389 136.3 603.389 133.4C603.389 130.1 602.589 127.4 600.989 125.3C599.489 123.1 597.389 121.25 594.689 119.75C591.989 118.25 588.889 116.95 585.389 115.85C581.889 114.65 578.189 113.4 574.289 112.1C565.989 109.3 559.739 105.75 555.539 101.45C551.339 97.05 549.239 91.2 549.239 83.9C549.239 77.8 550.689 72.55 553.589 68.15C556.489 63.75 560.539 60.35 565.739 57.95C571.039 55.45 577.139 54.2 584.039 54.2C591.039 54.2 597.139 55.45 602.339 57.95C607.639 60.45 611.789 63.95 614.789 68.45C617.889 72.85 619.489 78.15 619.589 84.35H600.389C600.289 81.75 599.589 79.35 598.289 77.15C596.989 74.85 595.089 73 592.589 71.6C590.189 70.1 587.239 69.35 583.739 69.35C580.739 69.25 578.039 69.75 575.639 70.85C573.339 71.85 571.489 73.35 570.089 75.35C568.789 77.25 568.139 79.65 568.139 82.55C568.139 85.35 568.739 87.7 569.939 89.6C571.239 91.4 573.089 92.95 575.489 94.25C577.889 95.45 580.689 96.6 583.889 97.7C587.089 98.8 590.589 100 594.389 101.3C599.589 103 604.289 105.1 608.489 107.6C612.789 110 616.189 113.15 618.689 117.05C621.189 120.95 622.439 126 622.439 132.2C622.439 137.6 621.039 142.65 618.239 147.35C615.439 151.95 611.339 155.7 605.939 158.6C600.539 161.4 593.789 162.8 585.689 162.8ZM639.341 194V85.4H655.391L657.341 96.35C658.941 94.15 660.841 92.1 663.041 90.2C665.341 88.2 668.091 86.6 671.291 85.4C674.591 84.2 678.341 83.6 682.541 83.6C689.641 83.6 695.891 85.35 701.291 88.85C706.791 92.35 711.091 97.1 714.191 103.1C717.291 109 718.841 115.75 718.841 123.35C718.841 130.95 717.241 137.75 714.041 143.75C710.941 149.65 706.641 154.3 701.141 157.7C695.741 161.1 689.541 162.8 682.541 162.8C676.841 162.8 671.841 161.75 667.541 159.65C663.341 157.45 659.941 154.35 657.341 150.35V194H639.341ZM678.791 147.2C682.991 147.2 686.741 146.2 690.041 144.2C693.341 142.2 695.891 139.4 697.691 135.8C699.591 132.2 700.541 128.05 700.541 123.35C700.541 118.55 699.591 114.35 697.691 110.75C695.891 107.15 693.341 104.35 690.041 102.35C686.741 100.35 682.991 99.35 678.791 99.35C674.491 99.35 670.691 100.35 667.391 102.35C664.191 104.35 661.641 107.15 659.741 110.75C657.941 114.35 657.041 118.5 657.041 123.2C657.041 128 657.941 132.2 659.741 135.8C661.641 139.3 664.191 142.1 667.391 144.2C670.691 146.2 674.491 147.2 678.791 147.2ZM761.514 162.8C755.314 162.8 750.164 161.75 746.064 159.65C741.964 157.55 738.914 154.75 736.914 151.25C734.914 147.75 733.914 143.95 733.914 139.85C733.914 135.05 735.114 130.9 737.514 127.4C740.014 123.9 743.664 121.2 748.464 119.3C753.264 117.3 759.164 116.3 766.164 116.3H785.214C785.214 112.3 784.664 109 783.564 106.4C782.464 103.7 780.764 101.7 778.464 100.4C776.164 99.1 773.214 98.45 769.614 98.45C765.514 98.45 762.014 99.4 759.114 101.3C756.214 103.1 754.414 105.9 753.714 109.7H736.014C736.614 104.3 738.414 99.7 741.414 95.9C744.414 92 748.364 89 753.264 86.9C758.264 84.7 763.714 83.6 769.614 83.6C776.714 83.6 782.764 84.85 787.764 87.35C792.764 89.75 796.564 93.25 799.164 97.85C801.864 102.35 803.214 107.8 803.214 114.2V161H787.914L786.114 148.85C785.114 150.85 783.814 152.7 782.214 154.4C780.714 156.1 778.964 157.6 776.964 158.9C774.964 160.1 772.664 161.05 770.064 161.75C767.564 162.45 764.714 162.8 761.514 162.8ZM765.564 148.55C768.464 148.55 771.014 148.05 773.214 147.05C775.514 145.95 777.464 144.45 779.064 142.55C780.764 140.55 782.064 138.35 782.964 135.95C783.864 133.55 784.464 131 784.764 128.3V128H768.114C764.614 128 761.714 128.45 759.414 129.35C757.114 130.15 755.464 131.35 754.464 132.95C753.464 134.55 752.964 136.4 752.964 138.5C752.964 140.6 753.464 142.4 754.464 143.9C755.464 145.4 756.914 146.55 758.814 147.35C760.714 148.15 762.964 148.55 765.564 148.55ZM823.046 161V56H860.846C869.246 56 876.196 57.45 881.696 60.35C887.196 63.15 891.296 66.95 893.996 71.75C896.696 76.55 898.046 82.05 898.046 88.25C898.046 94.05 896.746 99.4 894.146 104.3C891.546 109.1 887.496 113 881.996 116C876.496 118.9 869.446 120.35 860.846 120.35H841.046V161H823.046ZM841.046 105.65H859.796C866.896 105.65 871.996 104.1 875.096 101C878.196 97.8 879.746 93.55 879.746 88.25C879.746 82.75 878.196 78.45 875.096 75.35C871.996 72.25 866.896 70.7 859.796 70.7H841.046V105.65ZM912.974 161V85.4H929.024L930.674 99.5C932.474 96.2 934.724 93.4 937.424 91.1C940.124 88.7 943.274 86.85 946.874 85.55C950.574 84.25 954.624 83.6 959.024 83.6V102.65H952.724C949.724 102.65 946.874 103.05 944.174 103.85C941.474 104.55 939.124 105.75 937.124 107.45C935.224 109.05 933.724 111.3 932.624 114.2C931.524 117 930.974 120.55 930.974 124.85V161H912.974ZM1006.23 162.8C999.032 162.8 992.532 161.15 986.732 157.85C981.032 154.45 976.532 149.8 973.232 143.9C970.032 137.9 968.432 131.05 968.432 123.35C968.432 115.45 970.082 108.55 973.382 102.65C976.682 96.65 981.182 92 986.882 88.7C992.682 85.3 999.182 83.6 1006.38 83.6C1013.58 83.6 1020.03 85.3 1025.73 88.7C1031.53 92 1036.03 96.6 1039.23 102.5C1042.53 108.4 1044.18 115.3 1044.18 123.2C1044.18 131.1 1042.53 138 1039.23 143.9C1035.93 149.8 1031.38 154.45 1025.58 157.85C1019.88 161.15 1013.43 162.8 1006.23 162.8ZM1006.23 147.35C1009.83 147.35 1013.08 146.45 1015.98 144.65C1018.98 142.85 1021.38 140.15 1023.18 136.55C1024.98 132.95 1025.88 128.5 1025.88 123.2C1025.88 117.9 1024.98 113.5 1023.18 110C1021.48 106.4 1019.13 103.7 1016.13 101.9C1013.23 100.1 1009.98 99.2 1006.38 99.2C1002.88 99.2 999.632 100.1 996.632 101.9C993.632 103.7 991.232 106.4 989.432 110C987.632 113.5 986.732 117.9 986.732 123.2C986.732 128.5 987.632 132.95 989.432 136.55C991.232 140.15 993.582 142.85 996.482 144.65C999.482 146.45 1002.73 147.35 1006.23 147.35Z" fill="#11142A"/>
<path d="M80.0312 29.3867C82.7157 27.8988 86.2437 27.3589 89.2109 27.5801C94.5597 27.9868 100.591 30.2227 103.622 34.4131H103.623C104.578 35.7312 104.875 36.8304 104.795 37.7334C104.715 38.6351 104.251 39.4263 103.515 40.1162C102.02 41.5159 99.5121 42.3889 97.4688 42.748C94.174 43.3289 88.8926 44.0362 84.3535 43.4551C82.084 43.1645 80.0476 42.5571 78.541 41.4922C77.0549 40.4417 76.0627 38.9325 75.875 36.7568C75.5712 33.2371 77.3715 30.8611 80.0312 29.3867Z" fill="#11142A" stroke="#2CB6CE"/>
<path d="M76.2217 51.96C88.5952 50.4237 101.571 49.7863 115.15 50.0459L117.875 50.1094C121.671 50.2124 129.717 50.4874 137.194 51.4961C140.935 52.0007 144.512 52.687 147.335 53.6182C148.746 54.0837 149.953 54.6048 150.893 55.1855C151.718 55.696 152.31 56.2358 152.664 56.7969L152.802 57.0391C152.96 57.3529 152.994 57.6282 152.947 57.8809C152.899 58.1403 152.758 58.4188 152.494 58.7158C151.956 59.3215 150.985 59.9231 149.637 60.499C146.956 61.6444 143.021 62.5966 138.845 63.3633C130.507 64.894 121.36 65.6573 119.769 65.7754C106.33 66.7785 96.0714 67.4961 88.9912 67.9287C80.9559 68.4165 73.1397 68.1888 65.542 67.2451L64.0254 67.0469L63.4434 66.957C60.5599 66.4584 58.0897 65.214 56.0186 63.2236L56.0166 63.2217L55.873 63.0664C55.7416 62.9028 55.6435 62.714 55.5859 62.5107V62.5088L55.5098 62.2021C55.198 60.6852 55.8644 59.3525 57.2539 58.1416C58.7494 56.8384 61.0129 55.7496 63.5186 54.8643C68.5181 53.0978 74.2867 52.2068 76.2227 51.9609L76.2217 51.96Z" fill="#11142A" stroke="#2CB6CE"/>
<path d="M91.3896 75.2754C108.809 73.4944 125.894 74.4881 142.646 78.2549C145.361 78.8647 148.188 80.0884 151.126 81.9395L151.715 82.3174C155.744 84.9589 158.411 89.445 159.094 94.1172C159.776 98.7818 158.477 103.589 154.64 106.926C149.563 111.331 142.761 113.595 135.531 114.526C128.306 115.457 120.695 115.049 114.049 114.146C101.254 112.399 89.9929 109.294 80.2617 104.839C76.898 103.299 73.7599 101.281 70.8467 98.7822L70.8457 98.7812L70.5654 98.5371C67.7003 95.9868 65.8446 92.6805 65.6465 89.5293C65.4449 86.3227 66.9521 83.1899 71.0781 81.0771C77.1322 77.9753 83.9012 76.0392 91.3896 75.2754Z" fill="#11142A" stroke="#2CB6CE"/>
<path d="M70.3359 116.334C83.864 115.267 97.9675 116.385 112.647 119.693C133.851 124.484 153.156 129.739 170.372 139.286C173.069 140.782 177.638 143.973 180.7 147.759C182.231 149.651 183.356 151.656 183.712 153.642C184.063 155.603 183.672 157.574 182.112 159.462C178.84 163.417 173.33 165.576 167.14 166.852C160.96 168.125 154.218 168.499 148.55 168.97C130.23 170.487 112.285 170.987 94.7158 170.473C81.562 170.089 69.4651 168.509 58.4229 165.736H58.4219C52.6856 164.302 46.6807 161.963 42.125 158.291C37.5844 154.631 34.4897 149.656 34.5098 142.9C34.5233 138.493 35.5799 134.646 37.6641 131.343C39.6192 128.244 42.4939 125.599 46.3115 123.416L47.0879 122.985C54.0924 119.221 61.8395 117.002 70.3359 116.334Z" fill="#11142A" stroke="#2CB6CE"/>
<circle cx="109" cy="109" r="103" stroke="#2CB6CE" stroke-width="12"/>
</svg>
