<svg width="817" height="612" viewBox="0 0 817 612" fill="none" xmlns="http://www.w3.org/2000/svg">
<path d="M35.348 566V475.55H4.44805V461H84.098V475.55H53.198V566H35.348ZM98.3352 566V458H116.335V502.1C118.835 498 122.235 494.75 126.535 492.35C130.835 489.85 135.685 488.6 141.085 488.6C147.285 488.6 152.535 489.9 156.835 492.5C161.135 495 164.385 498.75 166.585 503.75C168.885 508.65 170.035 514.8 170.035 522.2V566H152.185V523.85C152.185 517.35 150.785 512.4 147.985 509C145.285 505.6 141.135 503.9 135.535 503.9C131.935 503.9 128.685 504.8 125.785 506.6C122.885 508.3 120.585 510.8 118.885 514.1C117.185 517.3 116.335 521.25 116.335 525.95V566H98.3352ZM214.355 567.8C208.155 567.8 203.005 566.75 198.905 564.65C194.805 562.55 191.755 559.75 189.755 556.25C187.755 552.75 186.755 548.95 186.755 544.85C186.755 540.05 187.955 535.9 190.355 532.4C192.855 528.9 196.505 526.2 201.305 524.3C206.105 522.3 212.005 521.3 219.005 521.3H238.055C238.055 517.3 237.505 514 236.405 511.4C235.305 508.7 233.605 506.7 231.305 505.4C229.005 504.1 226.055 503.45 222.455 503.45C218.355 503.45 214.855 504.4 211.955 506.3C209.055 508.1 207.255 510.9 206.555 514.7H188.855C189.455 509.3 191.255 504.7 194.255 500.9C197.255 497 201.205 494 206.105 491.9C211.105 489.7 216.555 488.6 222.455 488.6C229.555 488.6 235.605 489.85 240.605 492.35C245.605 494.75 249.405 498.25 252.005 502.85C254.705 507.35 256.055 512.8 256.055 519.2V566H240.755L238.955 553.85C237.955 555.85 236.655 557.7 235.055 559.4C233.555 561.1 231.805 562.6 229.805 563.9C227.805 565.1 225.505 566.05 222.905 566.75C220.405 567.45 217.555 567.8 214.355 567.8ZM218.405 553.55C221.305 553.55 223.855 553.05 226.055 552.05C228.355 550.95 230.305 549.45 231.905 547.55C233.605 545.55 234.905 543.35 235.805 540.95C236.705 538.55 237.305 536 237.605 533.3V533H220.955C217.455 533 214.555 533.45 212.255 534.35C209.955 535.15 208.305 536.35 207.305 537.95C206.305 539.55 205.805 541.4 205.805 543.5C205.805 545.6 206.305 547.4 207.305 548.9C208.305 550.4 209.755 551.55 211.655 552.35C213.555 553.15 215.805 553.55 218.405 553.55ZM276.038 566V490.4H294.038V566H276.038ZM285.038 478.4C281.738 478.4 278.988 477.4 276.788 475.4C274.688 473.3 273.638 470.75 273.638 467.75C273.638 464.65 274.688 462.15 276.788 460.25C278.988 458.25 281.738 457.25 285.038 457.25C288.338 457.25 291.038 458.25 293.138 460.25C295.338 462.15 296.438 464.65 296.438 467.75C296.438 470.75 295.338 473.3 293.138 475.4C291.038 477.4 288.338 478.4 285.038 478.4ZM350.689 567.8C343.089 567.8 336.339 566.45 330.439 563.75C324.539 561.05 319.939 557.2 316.639 552.2C313.339 547.2 311.639 541.25 311.539 534.35H330.589C330.589 537.85 331.389 541 332.989 543.8C334.689 546.5 336.989 548.65 339.889 550.25C342.889 551.85 346.489 552.65 350.689 552.65C354.289 552.65 357.389 552.1 359.989 551C362.689 549.8 364.739 548.15 366.139 546.05C367.639 543.85 368.389 541.3 368.389 538.4C368.389 535.1 367.589 532.4 365.989 530.3C364.489 528.1 362.389 526.25 359.689 524.75C356.989 523.25 353.889 521.95 350.389 520.85C346.889 519.65 343.189 518.4 339.289 517.1C330.989 514.3 324.739 510.75 320.539 506.45C316.339 502.05 314.239 496.2 314.239 488.9C314.239 482.8 315.689 477.55 318.589 473.15C321.489 468.75 325.539 465.35 330.739 462.95C336.039 460.45 342.139 459.2 349.039 459.2C356.039 459.2 362.139 460.45 367.339 462.95C372.639 465.45 376.789 468.95 379.789 473.45C382.889 477.85 384.489 483.15 384.589 489.35H365.389C365.289 486.75 364.589 484.35 363.289 482.15C361.989 479.85 360.089 478 357.589 476.6C355.189 475.1 352.239 474.35 348.739 474.35C345.739 474.25 343.039 474.75 340.639 475.85C338.339 476.85 336.489 478.35 335.089 480.35C333.789 482.25 333.139 484.65 333.139 487.55C333.139 490.35 333.739 492.7 334.939 494.6C336.239 496.4 338.089 497.95 340.489 499.25C342.889 500.45 345.689 501.6 348.889 502.7C352.089 503.8 355.589 505 359.389 506.3C364.589 508 369.289 510.1 373.489 512.6C377.789 515 381.189 518.15 383.689 522.05C386.189 525.95 387.439 531 387.439 537.2C387.439 542.6 386.039 547.65 383.239 552.35C380.439 556.95 376.339 560.7 370.939 563.6C365.539 566.4 358.789 567.8 350.689 567.8ZM404.341 599V490.4H420.391L422.341 501.35C423.941 499.15 425.841 497.1 428.041 495.2C430.341 493.2 433.091 491.6 436.291 490.4C439.591 489.2 443.341 488.6 447.541 488.6C454.641 488.6 460.891 490.35 466.291 493.85C471.791 497.35 476.091 502.1 479.191 508.1C482.291 514 483.841 520.75 483.841 528.35C483.841 535.95 482.241 542.75 479.041 548.75C475.941 554.65 471.641 559.3 466.141 562.7C460.741 566.1 454.541 567.8 447.541 567.8C441.841 567.8 436.841 566.75 432.541 564.65C428.341 562.45 424.941 559.35 422.341 555.35V599H404.341ZM443.791 552.2C447.991 552.2 451.741 551.2 455.041 549.2C458.341 547.2 460.891 544.4 462.691 540.8C464.591 537.2 465.541 533.05 465.541 528.35C465.541 523.55 464.591 519.35 462.691 515.75C460.891 512.15 458.341 509.35 455.041 507.35C451.741 505.35 447.991 504.35 443.791 504.35C439.491 504.35 435.691 505.35 432.391 507.35C429.191 509.35 426.641 512.15 424.741 515.75C422.941 519.35 422.041 523.5 422.041 528.2C422.041 533 422.941 537.2 424.741 540.8C426.641 544.3 429.191 547.1 432.391 549.2C435.691 551.2 439.491 552.2 443.791 552.2ZM526.514 567.8C520.314 567.8 515.164 566.75 511.064 564.65C506.964 562.55 503.914 559.75 501.914 556.25C499.914 552.75 498.914 548.95 498.914 544.85C498.914 540.05 500.114 535.9 502.514 532.4C505.014 528.9 508.664 526.2 513.464 524.3C518.264 522.3 524.164 521.3 531.164 521.3H550.214C550.214 517.3 549.664 514 548.564 511.4C547.464 508.7 545.764 506.7 543.464 505.4C541.164 504.1 538.214 503.45 534.614 503.45C530.514 503.45 527.014 504.4 524.114 506.3C521.214 508.1 519.414 510.9 518.714 514.7H501.014C501.614 509.3 503.414 504.7 506.414 500.9C509.414 497 513.364 494 518.264 491.9C523.264 489.7 528.714 488.6 534.614 488.6C541.714 488.6 547.764 489.85 552.764 492.35C557.764 494.75 561.564 498.25 564.164 502.85C566.864 507.35 568.214 512.8 568.214 519.2V566H552.914L551.114 553.85C550.114 555.85 548.814 557.7 547.214 559.4C545.714 561.1 543.964 562.6 541.964 563.9C539.964 565.1 537.664 566.05 535.064 566.75C532.564 567.45 529.714 567.8 526.514 567.8ZM530.564 553.55C533.464 553.55 536.014 553.05 538.214 552.05C540.514 550.95 542.464 549.45 544.064 547.55C545.764 545.55 547.064 543.35 547.964 540.95C548.864 538.55 549.464 536 549.764 533.3V533H533.114C529.614 533 526.714 533.45 524.414 534.35C522.114 535.15 520.464 536.35 519.464 537.95C518.464 539.55 517.964 541.4 517.964 543.5C517.964 545.6 518.464 547.4 519.464 548.9C520.464 550.4 521.914 551.55 523.814 552.35C525.714 553.15 527.964 553.55 530.564 553.55ZM588.046 566V461H625.846C634.246 461 641.196 462.45 646.696 465.35C652.196 468.15 656.296 471.95 658.996 476.75C661.696 481.55 663.046 487.05 663.046 493.25C663.046 499.05 661.746 504.4 659.146 509.3C656.546 514.1 652.496 518 646.996 521C641.496 523.9 634.446 525.35 625.846 525.35H606.046V566H588.046ZM606.046 510.65H624.796C631.896 510.65 636.996 509.1 640.096 506C643.196 502.8 644.746 498.55 644.746 493.25C644.746 487.75 643.196 483.45 640.096 480.35C636.996 477.25 631.896 475.7 624.796 475.7H606.046V510.65ZM677.974 566V490.4H694.024L695.674 504.5C697.474 501.2 699.724 498.4 702.424 496.1C705.124 493.7 708.274 491.85 711.874 490.55C715.574 489.25 719.624 488.6 724.024 488.6V507.65H717.724C714.724 507.65 711.874 508.05 709.174 508.85C706.474 509.55 704.124 510.75 702.124 512.45C700.224 514.05 698.724 516.3 697.624 519.2C696.524 522 695.974 525.55 695.974 529.85V566H677.974ZM771.232 567.8C764.032 567.8 757.532 566.15 751.732 562.85C746.032 559.45 741.532 554.8 738.232 548.9C735.032 542.9 733.432 536.05 733.432 528.35C733.432 520.45 735.082 513.55 738.382 507.65C741.682 501.65 746.182 497 751.882 493.7C757.682 490.3 764.182 488.6 771.382 488.6C778.582 488.6 785.032 490.3 790.732 493.7C796.532 497 801.032 501.6 804.232 507.5C807.532 513.4 809.182 520.3 809.182 528.2C809.182 536.1 807.532 543 804.232 548.9C800.932 554.8 796.382 559.45 790.582 562.85C784.882 566.15 778.432 567.8 771.232 567.8ZM771.232 552.35C774.832 552.35 778.082 551.45 780.982 549.65C783.982 547.85 786.382 545.15 788.182 541.55C789.982 537.95 790.882 533.5 790.882 528.2C790.882 522.9 789.982 518.5 788.182 515C786.482 511.4 784.132 508.7 781.132 506.9C778.232 505.1 774.982 504.2 771.382 504.2C767.882 504.2 764.632 505.1 761.632 506.9C758.632 508.7 756.232 511.4 754.432 515C752.632 518.5 751.732 522.9 751.732 528.2C751.732 533.5 752.632 537.95 754.432 541.55C756.232 545.15 758.582 547.85 761.482 549.65C764.482 551.45 767.732 552.35 771.232 552.35Z" fill="white"/>
<path d="M385.99 65.2662C393.659 75.8524 381.575 81.3131 373.61 82.7127C360.974 84.9403 332.724 88.2128 331.187 70.3917C329.945 56.0008 346.09 50.9344 357.721 51.8018C368.091 52.5904 379.958 56.9274 385.99 65.2662Z" fill="white"/>
<path d="M480.14 108.676C486.311 120.918 422.281 126.319 416.17 126.773C390.463 128.691 370.835 130.065 357.285 130.893C340.831 131.892 324.85 131.326 309.342 129.197C303.152 128.356 297.869 125.833 293.492 121.627C292.976 121.138 292.602 120.518 292.408 119.833C288.229 105.305 325.231 99.3905 332.683 98.4442C357.982 95.3032 384.589 94.1204 412.503 94.8958C427.032 95.2901 474.246 97.0052 480.14 108.676Z" fill="white"/>
<path d="M321.898 189.68C310.05 179.567 306.127 162.633 322.529 154.235C334.225 148.242 347.289 144.51 361.719 143.038C395.14 139.621 427.924 141.526 460.07 148.755C465.748 150.03 471.636 152.665 477.734 156.66C493.643 167.088 498.689 191.987 483.431 205.254C463.619 222.444 430.559 222.76 405.03 219.29C380.48 215.939 358.848 209.979 340.133 201.41C333.614 198.426 327.536 194.517 321.898 189.68Z" fill="white"/>
<path d="M536.088 305.635C523.136 321.287 492.837 322.371 471.23 324.165C436.153 327.07 401.793 328.029 368.148 327.044C342.928 326.308 319.718 323.278 298.52 317.956C276.441 312.436 251.976 299.878 252.055 273.344C252.107 256.167 260.295 243.189 276.618 234.41C290.142 227.142 305.091 222.864 321.466 221.576C347.449 219.526 374.522 221.675 402.686 228.022C443.257 237.189 480.299 247.263 513.358 265.596C523.807 271.392 548.764 290.297 536.088 305.635Z" fill="white"/>
<circle cx="395.5" cy="208.5" r="200.5" stroke="#2CB6CE" stroke-width="16"/>
</svg>
