<svg xmlns="http://www.w3.org/2000/svg" id="Layer_2" data-name="Layer 2" viewBox="0 0 36.03 36.03"><defs><style> .cls-1 { fill: #fbfbfe; } .cls-2 { fill: #9b86fe; } </style></defs><g id="Layer_2-2" data-name="Layer 2"><g id="Layer_1-2" data-name="Layer 1-2"><circle class="cls-1" cx="19.66" cy="18.97" r="11.99"></circle><path class="cls-2" d="M36.03,18.01c0,9.93-8.08,18.01-18.01,18.01S0,27.95,0,18.01,8.08,0,18.01,0s18.01,8.08,18.01,18.01ZM15.75,20.48c-1.64-.75-2.95-3.22-5.07-2.95-.68.07-1.44.75-1.51,1.44,0,.96,1.51,1.51,2.12,2.12,1.37,1.37,2.74,4.11,5.07,3.49,1.85-.48,4.04-5.21,5.27-6.85,1.92-2.53,4.59-4.93,4.59-5.55,0-.89-1.16-1.1-1.92-1.03-2.47.34-7.26,6.99-8.7,9.18h0l.14.14Z"></path></g></g></svg>