<svg width="905" height="168" viewBox="0 0 905 168" fill="none" xmlns="http://www.w3.org/2000/svg">
<path d="M102.793 2.22283C102.802 2.2253 102.81 2.22995 102.817 2.23637C102.824 2.2428 102.83 2.25081 102.833 2.25972C102.836 2.26863 102.837 2.27817 102.835 2.28753C102.834 2.29689 102.831 2.30579 102.825 2.31346L49.9292 75.1643C49.92 75.1769 49.9079 75.1873 49.8939 75.1944C49.88 75.2015 49.8645 75.2052 49.8488 75.2052C49.8332 75.2052 49.8177 75.2015 49.8037 75.1944C49.7898 75.1873 49.7777 75.1769 49.7684 75.1643L18.2368 31.7695C18.2139 31.7369 18.2021 31.6979 18.2032 31.6583C18.2042 31.6188 18.2181 31.5809 18.2426 31.5502C38.4286 6.32727 71.191 -5.20257 102.793 2.22283Z" fill="white"/>
<path d="M81.2881 48.9323C81.2684 48.9261 81.2504 48.9153 81.2356 48.9007C81.2207 48.8862 81.2095 48.8683 81.2027 48.8485C81.1959 48.8287 81.1938 48.8075 81.1964 48.7865C81.1991 48.7656 81.2064 48.7454 81.218 48.7277L110.636 3.42105C110.679 3.35498 110.744 3.30579 110.819 3.28182C110.894 3.25785 110.975 3.26056 111.048 3.2895C130.053 10.6301 145.851 24.6448 156.013 42.2436C162.179 52.9257 165.843 64.3834 167.005 76.6168C167.006 76.6355 167.003 76.6542 166.995 76.6714C166.988 76.6885 166.976 76.7035 166.961 76.7151C166.947 76.7266 166.929 76.7344 166.911 76.7376C166.892 76.7409 166.873 76.7396 166.856 76.7337L81.2881 48.9323Z" fill="#2CB6CE"/>
<path d="M0.00164689 84.9316V84.7796C-0.0938504 68.7341 3.96381 53.8872 12.1746 40.2389C12.1795 40.2306 12.1863 40.2237 12.1946 40.2188C12.203 40.2139 12.2124 40.2113 12.2223 40.211C12.2321 40.2107 12.2419 40.2128 12.251 40.2172C12.26 40.2215 12.2679 40.228 12.274 40.236L65.1815 113.055C65.1923 113.07 65.1994 113.087 65.2021 113.106C65.2048 113.124 65.2032 113.143 65.1972 113.161C65.1912 113.179 65.1812 113.195 65.1678 113.209C65.1544 113.222 65.1381 113.232 65.1201 113.239L14.2093 129.782C14.1538 129.8 14.094 129.799 14.039 129.78C13.9841 129.76 13.9371 129.723 13.9053 129.674C6.28303 118.105 1.78296 105.404 0.405074 91.5706C0.266701 90.1694 0.132225 87.9564 0.00164689 84.9316Z" fill="#9B86FE"/>
<path d="M115.977 160.692C115.968 160.695 115.959 160.696 115.949 160.695C115.94 160.694 115.931 160.69 115.923 160.685C115.915 160.679 115.909 160.672 115.905 160.664C115.901 160.655 115.898 160.646 115.898 160.636L115.91 70.6136C115.91 70.5981 115.914 70.583 115.921 70.5693C115.928 70.5556 115.939 70.5437 115.951 70.5346C115.964 70.5256 115.978 70.5195 115.993 70.517C116.008 70.5144 116.024 70.5155 116.039 70.52L167.046 87.1132C167.084 87.1264 167.116 87.1512 167.138 87.1838C167.16 87.2165 167.171 87.2553 167.169 87.2944C165.652 119.56 145.913 148.136 115.977 160.692Z" fill="#9B86FE"/>
<path d="M20.3415 138.181C20.3353 138.173 20.3311 138.164 20.3292 138.155C20.3273 138.145 20.3279 138.135 20.3308 138.126C20.3337 138.117 20.3389 138.108 20.3459 138.101C20.3528 138.095 20.3614 138.09 20.3708 138.087L105.97 110.286C105.985 110.281 106.001 110.28 106.017 110.283C106.032 110.285 106.047 110.292 106.059 110.301C106.072 110.311 106.082 110.323 106.089 110.337C106.096 110.351 106.099 110.366 106.099 110.382L106.079 164.006C106.078 164.046 106.065 164.084 106.042 164.116C106.018 164.148 105.985 164.17 105.947 164.181C74.7955 172.706 41.5273 162.763 20.3415 138.181Z" fill="#2CB6CE"/>
<path d="M224.696 127V51.352H198.456V37.4H267.96V51.352H241.848V127H224.696ZM279.823 127V34.84H297.103V72.088C299.236 68.6747 302.052 65.9867 305.551 64.024C309.135 61.976 313.274 60.952 317.967 60.952C323.343 60.952 327.866 62.104 331.535 64.408C335.204 66.6267 337.978 69.8693 339.855 74.136C341.732 78.4027 342.671 83.6933 342.671 90.008V127H325.519V91.544C325.519 86.424 324.452 82.4987 322.319 79.768C320.186 76.952 316.815 75.544 312.207 75.544C309.391 75.544 306.831 76.2267 304.527 77.592C302.223 78.9573 300.388 80.9627 299.023 83.608C297.743 86.168 297.103 89.24 297.103 92.824V127H279.823ZM380.708 128.536C375.332 128.536 370.895 127.683 367.396 125.976C363.897 124.184 361.295 121.837 359.588 118.936C357.967 115.949 357.156 112.664 357.156 109.08C357.156 105.155 358.137 101.699 360.1 98.712C362.148 95.7253 365.177 93.3787 369.188 91.672C373.284 89.9653 378.404 89.112 384.548 89.112H400.548C400.548 85.9547 400.121 83.352 399.268 81.304C398.415 79.1707 397.092 77.592 395.3 76.568C393.508 75.544 391.119 75.032 388.132 75.032C384.889 75.032 382.116 75.7573 379.812 77.208C377.593 78.5733 376.228 80.7067 375.716 83.608H358.948C359.375 79 360.868 75.032 363.428 71.704C366.073 68.2907 369.529 65.6453 373.796 63.768C378.148 61.8907 382.969 60.952 388.26 60.952C394.319 60.952 399.567 61.976 404.004 64.024C408.441 66.072 411.855 69.016 414.244 72.856C416.633 76.696 417.828 81.432 417.828 87.064V127H403.236L401.316 117.144C400.377 118.851 399.268 120.387 397.988 121.752C396.708 123.117 395.215 124.312 393.508 125.336C391.801 126.36 389.881 127.128 387.748 127.64C385.615 128.237 383.268 128.536 380.708 128.536ZM384.804 115.224C387.023 115.224 388.985 114.84 390.692 114.072C392.484 113.219 394.02 112.109 395.3 110.744C396.58 109.293 397.561 107.672 398.244 105.88C399.012 104.003 399.524 101.997 399.78 99.864V99.736H386.596C383.951 99.736 381.775 100.077 380.068 100.76C378.447 101.357 377.252 102.253 376.484 103.448C375.716 104.643 375.332 106.008 375.332 107.544C375.332 109.251 375.716 110.659 376.484 111.768C377.252 112.877 378.361 113.731 379.812 114.328C381.263 114.925 382.927 115.224 384.804 115.224ZM434.332 127V62.488H451.612V127H434.332ZM443.036 53.656C439.964 53.656 437.404 52.76 435.356 50.968C433.393 49.0907 432.412 46.744 432.412 43.928C432.412 41.112 433.393 38.808 435.356 37.016C437.404 35.1387 439.964 34.2 443.036 34.2C446.193 34.2 448.753 35.1387 450.716 37.016C452.764 38.808 453.788 41.112 453.788 43.928C453.788 46.744 452.764 49.0907 450.716 50.968C448.753 52.76 446.193 53.656 443.036 53.656ZM500.305 128.536C493.82 128.536 488.017 127.427 482.897 125.208C477.862 122.989 473.852 119.747 470.865 115.48C467.964 111.213 466.47 106.051 466.385 99.992H484.689C484.774 102.637 485.457 105.027 486.737 107.16C488.017 109.293 489.766 111 491.985 112.28C494.289 113.475 497.02 114.072 500.177 114.072C502.908 114.072 505.254 113.645 507.217 112.792C509.265 111.853 510.844 110.573 511.953 108.952C513.062 107.331 513.617 105.411 513.617 103.192C513.617 100.632 512.977 98.4987 511.697 96.792C510.502 95.0853 508.796 93.6347 506.577 92.44C504.444 91.2453 501.926 90.1787 499.025 89.24C496.209 88.216 493.222 87.1493 490.065 86.04C482.982 83.736 477.564 80.664 473.809 76.824C470.14 72.984 468.305 67.9067 468.305 61.592C468.305 56.216 469.585 51.608 472.145 47.768C474.79 43.928 478.417 40.984 483.025 38.936C487.633 36.888 492.881 35.864 498.769 35.864C504.828 35.864 510.118 36.9307 514.641 39.064C519.249 41.112 522.876 44.0987 525.521 48.024C528.252 51.9493 529.66 56.5573 529.745 61.848H511.313C511.228 59.8853 510.63 58.0507 509.521 56.344C508.497 54.552 507.046 53.144 505.169 52.12C503.292 51.0107 501.073 50.456 498.513 50.456C496.294 50.3707 494.246 50.712 492.369 51.48C490.577 52.248 489.126 53.4 488.017 54.936C486.993 56.3867 486.481 58.2213 486.481 60.44C486.481 62.5733 486.993 64.3653 488.017 65.816C489.126 67.2667 490.62 68.5467 492.497 69.656C494.374 70.68 496.593 71.6613 499.153 72.6C501.713 73.4533 504.486 74.3493 507.473 75.288C511.91 76.824 516.006 78.6587 519.761 80.792C523.516 82.84 526.502 85.528 528.721 88.856C530.94 92.184 532.049 96.5787 532.049 102.04C532.049 106.733 530.812 111.085 528.337 115.096C525.862 119.107 522.278 122.349 517.585 124.824C512.977 127.299 507.217 128.536 500.305 128.536ZM546.323 155.16V62.488H561.683L563.603 71.448C564.968 69.5707 566.59 67.864 568.467 66.328C570.344 64.7067 572.563 63.4267 575.123 62.488C577.768 61.464 580.84 60.952 584.339 60.952C590.398 60.952 595.731 62.4453 600.339 65.432C604.947 68.4187 608.574 72.472 611.219 77.592C613.95 82.6267 615.315 88.3867 615.315 94.872C615.315 101.357 613.95 107.16 611.219 112.28C608.488 117.315 604.819 121.283 600.211 124.184C595.603 127.085 590.355 128.536 584.467 128.536C579.688 128.536 575.55 127.683 572.051 125.976C568.638 124.184 565.822 121.752 563.603 118.68V155.16H546.323ZM580.371 113.432C583.784 113.432 586.771 112.664 589.331 111.128C591.976 109.592 594.024 107.416 595.475 104.6C596.926 101.784 597.651 98.5413 597.651 94.872C597.651 91.2027 596.926 87.96 595.475 85.144C594.024 82.2427 591.976 80.024 589.331 78.488C586.771 76.8667 583.784 76.056 580.371 76.056C577.043 76.056 574.056 76.8667 571.411 78.488C568.851 80.024 566.803 82.2 565.267 85.016C563.816 87.832 563.091 91.0747 563.091 94.744C563.091 98.4133 563.816 101.699 565.267 104.6C566.803 107.416 568.851 109.592 571.411 111.128C574.056 112.664 577.043 113.432 580.371 113.432ZM651.958 128.536C646.582 128.536 642.145 127.683 638.646 125.976C635.147 124.184 632.545 121.837 630.838 118.936C629.217 115.949 628.406 112.664 628.406 109.08C628.406 105.155 629.387 101.699 631.35 98.712C633.398 95.7253 636.427 93.3787 640.438 91.672C644.534 89.9653 649.654 89.112 655.798 89.112H671.798C671.798 85.9547 671.371 83.352 670.518 81.304C669.665 79.1707 668.342 77.592 666.55 76.568C664.758 75.544 662.369 75.032 659.382 75.032C656.139 75.032 653.366 75.7573 651.062 77.208C648.843 78.5733 647.478 80.7067 646.966 83.608H630.198C630.625 79 632.118 75.032 634.678 71.704C637.323 68.2907 640.779 65.6453 645.046 63.768C649.398 61.8907 654.219 60.952 659.51 60.952C665.569 60.952 670.817 61.976 675.254 64.024C679.691 66.072 683.105 69.016 685.494 72.856C687.883 76.696 689.078 81.432 689.078 87.064V127H674.486L672.566 117.144C671.627 118.851 670.518 120.387 669.238 121.752C667.958 123.117 666.465 124.312 664.758 125.336C663.051 126.36 661.131 127.128 658.998 127.64C656.865 128.237 654.518 128.536 651.958 128.536ZM656.054 115.224C658.273 115.224 660.235 114.84 661.942 114.072C663.734 113.219 665.27 112.109 666.55 110.744C667.83 109.293 668.811 107.672 669.494 105.88C670.262 104.003 670.774 101.997 671.03 99.864V99.736H657.846C655.201 99.736 653.025 100.077 651.318 100.76C649.697 101.357 648.502 102.253 647.734 103.448C646.966 104.643 646.582 106.008 646.582 107.544C646.582 109.251 646.966 110.659 647.734 111.768C648.502 112.877 649.611 113.731 651.062 114.328C652.513 114.925 654.177 115.224 656.054 115.224ZM705.582 127V37.4H739.118C746.371 37.4 752.387 38.6373 757.166 41.112C761.945 43.5867 765.486 46.9147 767.79 51.096C770.094 55.2773 771.246 60.056 771.246 65.432C771.246 70.3813 770.137 74.9467 767.918 79.128C765.699 83.3093 762.201 86.7227 757.422 89.368C752.643 91.928 746.542 93.208 739.118 93.208H722.862V127H705.582ZM722.862 79.256H738.094C743.641 79.256 747.609 78.0187 749.998 75.544C752.473 72.984 753.71 69.6133 753.71 65.432C753.71 60.9947 752.473 57.5813 749.998 55.192C747.609 52.7173 743.641 51.48 738.094 51.48H722.862V79.256ZM783.823 127V62.488H799.183L800.847 74.392C802.383 71.576 804.303 69.1867 806.607 67.224C808.996 65.2613 811.684 63.7253 814.671 62.616C817.743 61.5067 821.114 60.952 824.783 60.952V79.256H818.895C816.335 79.256 813.946 79.5547 811.727 80.152C809.594 80.7493 807.716 81.7307 806.095 83.096C804.474 84.376 803.236 86.168 802.383 88.472C801.53 90.776 801.103 93.6773 801.103 97.176V127H783.823ZM865.662 128.536C859.518 128.536 853.971 127.128 849.022 124.312C844.158 121.411 840.275 117.443 837.374 112.408C834.558 107.288 833.15 101.443 833.15 94.872C833.15 88.1307 834.558 82.2427 837.374 77.208C840.275 72.088 844.201 68.12 849.15 65.304C854.099 62.4027 859.646 60.952 865.79 60.952C872.019 60.952 877.566 62.4027 882.43 65.304C887.379 68.12 891.262 72.088 894.078 77.208C896.979 82.2427 898.43 88.088 898.43 94.744C898.43 101.4 896.979 107.288 894.078 112.408C891.262 117.443 887.379 121.411 882.43 124.312C877.481 127.128 871.891 128.536 865.662 128.536ZM865.662 113.56C868.563 113.56 871.123 112.877 873.342 111.512C875.646 110.147 877.438 108.056 878.718 105.24C880.083 102.424 880.766 98.9253 880.766 94.744C880.766 90.5627 880.083 87.1067 878.718 84.376C877.438 81.56 875.646 79.4693 873.342 78.104C871.123 76.6533 868.606 75.928 865.79 75.928C863.059 75.928 860.542 76.6533 858.238 78.104C855.934 79.4693 854.099 81.56 852.734 84.376C851.454 87.1067 850.814 90.5627 850.814 94.744C850.814 98.9253 851.454 102.424 852.734 105.24C854.099 108.056 855.891 110.147 858.11 111.512C860.414 112.877 862.931 113.56 865.662 113.56Z" fill="white"/>
</svg>
