<svg width="168" height="57" viewBox="0 0 168 57" fill="none" xmlns="http://www.w3.org/2000/svg">
<path d="M0.0133324 20.2799H5.41333C5.52 21.1866 5.93333 22.0132 6.65333 22.7599C7.4 23.4799 8.37333 24.0532 9.57333 24.4799C10.7733 24.8799 12.12 25.0799 13.6133 25.0799C14.9733 25.0799 16.0933 24.9332 16.9733 24.6399C17.8533 24.3466 18.5066 23.9332 18.9333 23.3999C19.36 22.8666 19.5733 22.2266 19.5733 21.4799C19.5733 20.7599 19.3066 20.2132 18.7733 19.8399C18.24 19.4399 17.4 19.1199 16.2533 18.8799C15.1066 18.6132 13.6 18.3466 11.7333 18.0799C10.2666 17.8666 8.88003 17.5732 7.57333 17.1999C6.26666 16.7999 5.10666 16.2932 4.09333 15.6799C3.10666 15.0666 2.32 14.3199 1.73333 13.4399C1.17333 12.5332 0.893332 11.4666 0.893332 10.2399C0.893332 8.7199 1.32 7.3866 2.17333 6.2399C3.05333 5.0932 4.34666 4.1999 6.05333 3.5599C7.76 2.9199 9.85333 2.5999 12.3333 2.5999C16.0666 2.5999 18.9333 3.3999 20.9333 4.9999C22.96 6.5732 23.9466 8.7466 23.8933 11.5199H18.6933C18.5866 9.9466 17.92 8.8132 16.6933 8.1199C15.4933 7.4266 13.9733 7.0799 12.1333 7.0799C10.4266 7.0799 9.01333 7.3332 7.89333 7.8399C6.8 8.3466 6.25333 9.2132 6.25333 10.4399C6.25333 10.9199 6.38666 11.3466 6.65333 11.7199C6.92 12.0666 7.37333 12.3732 8.01333 12.6399C8.65333 12.9066 9.52003 13.1599 10.6133 13.3999C11.7066 13.6399 13.0666 13.8799 14.6933 14.1199C16.2133 14.3332 17.5866 14.6266 18.8133 14.9999C20.0666 15.3466 21.1333 15.8132 22.0133 16.3999C22.92 16.9599 23.6133 17.6799 24.0933 18.5599C24.5733 19.4399 24.8133 20.5199 24.8133 21.7999C24.8133 23.3732 24.4 24.7466 23.5733 25.9199C22.7733 27.0666 21.52 27.9599 19.8133 28.5999C18.1333 29.2399 15.9466 29.5599 13.2533 29.5599C11.3333 29.5599 9.64003 29.3599 8.17333 28.9599C6.70666 28.5332 5.44 27.9732 4.37333 27.2799C3.30666 26.5866 2.44 25.8266 1.77333 24.9999C1.10666 24.1732 0.626662 23.3466 0.333332 22.5199C0.0666624 21.6932 -0.0399976 20.9466 0.0133324 20.2799ZM28.8267 9.1199H34.0267V28.9999H28.8267V9.1199ZM43.2667 8.6799C44.4934 8.6799 45.6267 8.8399 46.6667 9.1599C47.7067 9.4799 48.6134 9.9732 49.3867 10.6399C50.1601 11.3066 50.7601 12.1599 51.1867 13.1999C51.6134 14.2132 51.8267 15.4266 51.8267 16.8399V28.9999H46.6267V17.7599C46.6267 16.0799 46.2134 14.8532 45.3867 14.0799C44.5867 13.2799 43.2667 12.8799 41.4267 12.8799C40.0401 12.8799 38.7867 13.1466 37.6667 13.6799C36.5467 14.2132 35.6401 14.8932 34.9467 15.7199C34.2534 16.5199 33.8534 17.3599 33.7467 18.2399L33.7067 16.1999C33.8401 15.2666 34.1467 14.3599 34.6267 13.4799C35.1067 12.5999 35.7467 11.7999 36.5467 11.0799C37.3734 10.3332 38.3467 9.7466 39.4667 9.3199C40.5867 8.8932 41.8534 8.6799 43.2667 8.6799ZM60.5867 8.6799C61.8134 8.6799 62.9467 8.8399 63.9867 9.1599C65.0267 9.4799 65.9334 9.9732 66.7067 10.6399C67.4801 11.3066 68.0801 12.1599 68.5067 13.1999C68.9601 14.2132 69.1867 15.4266 69.1867 16.8399V28.9999H63.9867V17.7599C63.9867 16.0799 63.5734 14.8532 62.7467 14.0799C61.9201 13.2799 60.5867 12.8799 58.7467 12.8799C57.3601 12.8799 56.1067 13.1466 54.9867 13.6799C53.8667 14.2132 52.9601 14.8932 52.2667 15.7199C51.5734 16.5199 51.1867 17.3599 51.1067 18.2399L51.0267 16.0799C51.1601 15.1999 51.4801 14.3199 51.9867 13.4399C52.4934 12.5599 53.1601 11.7599 53.9867 11.0399C54.8134 10.3199 55.7734 9.7466 56.8667 9.3199C57.9867 8.8932 59.2267 8.6799 60.5867 8.6799ZM79.8649 0.399902V4.9599H73.8249V0.399902H79.8649ZM74.2249 9.1199H79.4249V28.9999H74.2249V9.1199ZM85.008 1.1199H90.208V28.9999H85.008V1.1199ZM113.587 22.3999H118.627C118.414 23.7599 117.84 24.9732 116.907 26.0399C116 27.1066 114.76 27.9466 113.187 28.5599C111.614 29.1732 109.694 29.4799 107.427 29.4799C104.894 29.4799 102.654 29.0799 100.707 28.2799C98.7603 27.4532 97.2407 26.2666 96.1474 24.7199C95.054 23.1732 94.5074 21.3066 94.5074 19.1199C94.5074 16.9332 95.0407 15.0666 96.1074 13.5199C97.174 11.9466 98.6543 10.7466 100.547 9.9199C102.467 9.0932 104.707 8.6799 107.267 8.6799C109.88 8.6799 112.054 9.0932 113.787 9.9199C115.52 10.7466 116.8 11.9999 117.627 13.6799C118.48 15.3332 118.84 17.4532 118.707 20.0399H99.7473C99.8803 21.0532 100.254 21.9732 100.867 22.7999C101.507 23.6266 102.36 24.2799 103.427 24.7599C104.52 25.2399 105.814 25.4799 107.307 25.4799C108.96 25.4799 110.334 25.1999 111.427 24.6399C112.547 24.0532 113.267 23.3066 113.587 22.3999ZM107.027 12.6399C105.107 12.6399 103.547 13.0666 102.347 13.9199C101.147 14.7466 100.374 15.7732 100.027 16.9999H113.547C113.414 15.6666 112.774 14.6132 111.627 13.8399C110.507 13.0399 108.974 12.6399 107.027 12.6399Z" fill="#1A1A1A"/>
<path d="M1.61719 50.9998V33.8543H11.5017C13.7984 33.8543 15.5385 34.243 16.7222 35.0203C17.9235 35.78 18.5242 36.9195 18.5242 38.4388C18.5242 39.4105 18.2857 40.179 17.8087 40.7443C17.3317 41.292 16.6515 41.6983 15.7682 41.9633C14.9025 42.2283 13.8779 42.3961 12.6942 42.4668L12.8002 42.2813C13.6659 42.299 14.4785 42.3608 15.2382 42.4668C16.0155 42.5728 16.6957 42.7671 17.2787 43.0498C17.8617 43.3325 18.321 43.73 18.6567 44.2423C18.9924 44.737 19.1602 45.3906 19.1602 46.2033C19.1602 47.2633 18.8775 48.1466 18.3122 48.8533C17.7469 49.5423 16.9607 50.0635 15.9537 50.4168C14.9467 50.7701 13.7807 50.9645 12.4557 50.9998H1.61719ZM5.14169 48.0848H12.0847C13.1977 48.0848 14.0545 47.9081 14.6552 47.5548C15.2559 47.1838 15.5562 46.6008 15.5562 45.8058C15.5562 45.2228 15.3795 44.7988 15.0262 44.5338C14.6729 44.2688 14.2047 44.1098 13.6217 44.0568C13.0387 43.9861 12.4115 43.9508 11.7402 43.9508H5.14169V48.0848ZM5.14169 41.1153H11.3692C12.4822 41.1153 13.339 40.9563 13.9397 40.6383C14.5404 40.3026 14.8407 39.7373 14.8407 38.9423C14.8407 38.1473 14.5404 37.5908 13.9397 37.2728C13.339 36.9371 12.544 36.7693 11.5547 36.7693H5.14169V41.1153ZM33.8485 46.6273H37.1875C37.0461 47.5283 36.6663 48.3321 36.048 49.0388C35.4473 49.7455 34.6258 50.302 33.5835 50.7083C32.5411 51.1146 31.2691 51.3178 29.7675 51.3178C28.0891 51.3178 26.6051 51.0528 25.3155 50.5228C24.0258 49.9751 23.0188 49.189 22.2945 48.1643C21.5701 47.1396 21.208 45.903 21.208 44.4543C21.208 43.0056 21.5613 41.769 22.268 40.7443C22.9746 39.702 23.9551 38.907 25.2095 38.3593C26.4815 37.8116 27.9655 37.5378 29.6615 37.5378C31.3928 37.5378 32.8326 37.8116 33.981 38.3593C35.1293 38.907 35.9773 39.7373 36.525 40.8503C37.0903 41.9456 37.3288 43.3501 37.2405 45.0638H24.6795C24.7678 45.7351 25.0151 46.3446 25.4215 46.8923C25.8455 47.44 26.4108 47.8728 27.1175 48.1908C27.8418 48.5088 28.6986 48.6678 29.688 48.6678C30.7833 48.6678 31.6931 48.4823 32.4175 48.1113C33.1595 47.7226 33.6365 47.228 33.8485 46.6273ZM29.5025 40.1613C28.2305 40.1613 27.197 40.444 26.402 41.0093C25.607 41.557 25.0946 42.2371 24.865 43.0498H33.822C33.7336 42.1665 33.3096 41.4686 32.55 40.9563C31.808 40.4263 30.7921 40.1613 29.5025 40.1613ZM46.2169 51.2913C44.9096 51.2913 43.7171 51.0086 42.6394 50.4433C41.5794 49.8603 40.7314 49.0565 40.0954 48.0318C39.4771 46.9895 39.1679 45.7881 39.1679 44.4278C39.1679 43.0321 39.4859 41.822 40.1219 40.7973C40.7579 39.7726 41.6148 38.9776 42.6924 38.4123C43.7878 37.8293 45.0244 37.5378 46.4024 37.5378C47.9218 37.5378 49.1408 37.847 50.0594 38.4653C50.9958 39.066 51.6759 39.8875 52.0999 40.9298C52.5239 41.9721 52.7359 43.1381 52.7359 44.4278C52.7359 45.2051 52.6123 46.0001 52.3649 46.8128C52.1176 47.6078 51.7378 48.3498 51.2254 49.0388C50.7131 49.7101 50.0418 50.2578 49.2114 50.6818C48.3811 51.0881 47.3829 51.2913 46.2169 51.2913ZM47.3299 48.6413C48.3723 48.6413 49.2733 48.4646 50.0329 48.1113C50.7926 47.758 51.3756 47.2633 51.7819 46.6273C52.1883 45.9913 52.3914 45.2581 52.3914 44.4278C52.3914 43.5268 52.1794 42.7671 51.7554 42.1488C51.3491 41.5128 50.7661 41.0358 50.0064 40.7178C49.2644 40.3821 48.3723 40.2143 47.3299 40.2143C45.8636 40.2143 44.7241 40.603 43.9114 41.3803C43.0988 42.14 42.6924 43.1558 42.6924 44.4278C42.6924 45.2758 42.8868 46.0178 43.2754 46.6538C43.6641 47.2721 44.2029 47.758 44.8919 48.1113C45.5986 48.4646 46.4113 48.6413 47.3299 48.6413ZM52.3914 37.8293H55.8364V50.9998H52.6299C52.6299 50.9998 52.6034 50.832 52.5504 50.4963C52.5151 50.143 52.4798 49.7013 52.4444 49.1713C52.4091 48.6413 52.3914 48.1201 52.3914 47.6078V37.8293ZM74.1918 50.9998H70.7468V37.8293H74.1918V50.9998ZM70.9323 44.6663L70.9588 45.5673C70.9235 45.8146 70.8351 46.1768 70.6938 46.6538C70.5525 47.1131 70.3316 47.6078 70.0313 48.1378C69.7486 48.6678 69.3776 49.1801 68.9183 49.6748C68.459 50.1518 67.8936 50.5493 67.2223 50.8673C66.551 51.1676 65.756 51.3178 64.8373 51.3178C64.113 51.3178 63.3975 51.2295 62.6908 51.0528C62.0018 50.8761 61.3746 50.5846 60.8093 50.1783C60.244 49.7543 59.7935 49.189 59.4578 48.4823C59.1221 47.7756 58.9543 46.8835 58.9543 45.8058V37.8293H62.3993V45.2228C62.3993 46.0708 62.5318 46.7421 62.7968 47.2368C63.0795 47.7138 63.4858 48.0495 64.0158 48.2438C64.5458 48.4381 65.173 48.5353 65.8973 48.5353C66.8513 48.5353 67.6728 48.3321 68.3618 47.9258C69.0508 47.5018 69.6073 46.9895 70.0313 46.3888C70.473 45.7881 70.7733 45.214 70.9323 44.6663ZM76.4008 37.8293H86.6298V40.5058H76.4008V37.8293ZM79.7928 34.2253H83.2378V50.9998H79.7928V34.2253ZM87.6261 37.8293H91.2831L96.9806 50.4698L94.0126 50.9998L87.6261 37.8293ZM103.738 37.8293L94.6221 56.2998H91.0446L94.9401 49.0388L100.055 37.8293H103.738ZM111.447 45.2228H115.024C115.095 45.8235 115.369 46.3711 115.846 46.8658C116.341 47.3428 116.985 47.7226 117.78 48.0053C118.575 48.2703 119.468 48.4028 120.457 48.4028C121.358 48.4028 122.1 48.3056 122.683 48.1113C123.266 47.917 123.699 47.6431 123.981 47.2898C124.264 46.9365 124.405 46.5125 124.405 46.0178C124.405 45.5408 124.229 45.1786 123.875 44.9313C123.522 44.6663 122.966 44.4543 122.206 44.2953C121.446 44.1186 120.448 43.942 119.211 43.7653C118.24 43.624 117.321 43.4296 116.455 43.1823C115.59 42.9173 114.821 42.5816 114.15 42.1753C113.496 41.769 112.975 41.2743 112.586 40.6913C112.215 40.0906 112.03 39.384 112.03 38.5713C112.03 37.5643 112.313 36.681 112.878 35.9213C113.461 35.1616 114.318 34.5698 115.448 34.1458C116.579 33.7218 117.966 33.5098 119.609 33.5098C122.082 33.5098 123.981 34.0398 125.306 35.0998C126.649 36.1421 127.303 37.582 127.267 39.4193H123.822C123.752 38.377 123.31 37.6261 122.497 37.1668C121.702 36.7075 120.695 36.4778 119.476 36.4778C118.346 36.4778 117.409 36.6456 116.667 36.9813C115.943 37.317 115.581 37.8911 115.581 38.7038C115.581 39.0218 115.669 39.3045 115.846 39.5518C116.023 39.7815 116.323 39.9846 116.747 40.1613C117.171 40.338 117.745 40.5058 118.469 40.6648C119.194 40.8238 120.095 40.9828 121.172 41.1418C122.179 41.2831 123.089 41.4775 123.902 41.7248C124.732 41.9545 125.439 42.2636 126.022 42.6523C126.623 43.0233 127.082 43.5003 127.4 44.0833C127.718 44.6663 127.877 45.3818 127.877 46.2298C127.877 47.2721 127.603 48.182 127.055 48.9593C126.525 49.719 125.695 50.3108 124.564 50.7348C123.451 51.1588 122.003 51.3708 120.218 51.3708C118.946 51.3708 117.825 51.2383 116.853 50.9733C115.881 50.6906 115.042 50.3196 114.335 49.8603C113.629 49.401 113.055 48.8975 112.613 48.3498C112.171 47.8021 111.853 47.2545 111.659 46.7068C111.482 46.1591 111.412 45.6645 111.447 45.2228ZM140.129 51.3178C138.963 51.3178 137.965 51.1146 137.134 50.7083C136.322 50.2843 135.659 49.7366 135.147 49.0653C134.634 48.3763 134.255 47.6255 134.007 46.8128C133.76 46.0001 133.636 45.2051 133.636 44.4278C133.636 43.4561 133.751 42.5551 133.981 41.7248C134.228 40.8945 134.608 40.1701 135.12 39.5518C135.633 38.9158 136.295 38.4211 137.108 38.0678C137.938 37.7145 138.945 37.5378 140.129 37.5378C141.454 37.5378 142.646 37.8293 143.706 38.4123C144.766 38.9953 145.605 39.808 146.224 40.8503C146.86 41.875 147.178 43.0675 147.178 44.4278C147.178 45.8235 146.86 47.0425 146.224 48.0848C145.588 49.1095 144.74 49.9045 143.68 50.4698C142.62 51.0351 141.436 51.3178 140.129 51.3178ZM139.016 48.6413C139.952 48.6413 140.765 48.4646 141.454 48.1113C142.16 47.758 142.699 47.2721 143.07 46.6538C143.459 46.0178 143.653 45.2758 143.653 44.4278C143.653 43.1558 143.247 42.1311 142.434 41.3538C141.639 40.5765 140.5 40.1878 139.016 40.1878C138.079 40.1878 137.223 40.3556 136.445 40.6913C135.686 41.027 135.085 41.5128 134.643 42.1488C134.202 42.7671 133.981 43.5268 133.981 44.4278C133.981 45.2758 134.184 46.0178 134.59 46.6538C134.997 47.2721 135.58 47.758 136.339 48.1113C137.099 48.4646 137.991 48.6413 139.016 48.6413ZM130.536 37.8293H133.822L133.981 41.3273V56.2998H130.536V37.8293ZM156.125 51.2913C154.818 51.2913 153.625 51.0086 152.548 50.4433C151.488 49.8603 150.64 49.0565 150.004 48.0318C149.385 46.9895 149.076 45.7881 149.076 44.4278C149.076 43.0321 149.394 41.822 150.03 40.7973C150.666 39.7726 151.523 38.9776 152.601 38.4123C153.696 37.8293 154.933 37.5378 156.311 37.5378C157.83 37.5378 159.049 37.847 159.968 38.4653C160.904 39.066 161.584 39.8875 162.008 40.9298C162.432 41.9721 162.644 43.1381 162.644 44.4278C162.644 45.2051 162.52 46.0001 162.273 46.8128C162.026 47.6078 161.646 48.3498 161.134 49.0388C160.621 49.7101 159.95 50.2578 159.12 50.6818C158.289 51.0881 157.291 51.2913 156.125 51.2913ZM157.238 48.6413C158.28 48.6413 159.181 48.4646 159.941 48.1113C160.701 47.758 161.284 47.2633 161.69 46.6273C162.096 45.9913 162.3 45.2581 162.3 44.4278C162.3 43.5268 162.088 42.7671 161.664 42.1488C161.257 41.5128 160.674 41.0358 159.915 40.7178C159.173 40.3821 158.28 40.2143 157.238 40.2143C155.772 40.2143 154.632 40.603 153.82 41.3803C153.007 42.14 152.601 43.1558 152.601 44.4278C152.601 45.2758 152.795 46.0178 153.184 46.6538C153.572 47.2721 154.111 47.758 154.8 48.1113C155.507 48.4646 156.319 48.6413 157.238 48.6413ZM162.3 37.8293H165.745V50.9998H162.538C162.538 50.9998 162.512 50.832 162.459 50.4963C162.423 50.143 162.388 49.7013 162.353 49.1713C162.317 48.6413 162.3 48.1201 162.3 47.6078V37.8293Z" fill="#1A1A1A"/>
<path d="M153.021 28.0594C155.911 27.639 157.014 28.1119 157.014 28.1119C157.014 28.1119 156.594 26.9034 154.913 26.1152C155.28 25.9576 155.648 25.7474 156.069 25.5372C156.226 25.4321 156.436 25.327 156.594 25.2219C158.906 27.1136 159.904 29.8459 160.272 31.4223C159.169 29.3205 154.86 29.6883 151.707 29.6357C144.876 29.5306 143.773 24.4863 143.773 24.4863C144.509 26.6932 147.714 28.8476 153.021 28.0594Z" fill="#E31A6A"/>
<path d="M130.795 10.9292C128.221 13.7141 126.697 14.1345 126.697 14.1345C126.697 14.1345 128.115 15.0277 130.48 14.4497C130.217 14.9226 130.007 15.4481 129.797 15.9735C129.692 16.2363 129.587 16.499 129.482 16.7092C125.593 16.6566 122.335 14.6599 120.654 13.3988C123.491 14.6599 127.59 10.7716 130.848 8.19684C137.941 2.73214 143.143 6.98834 143.143 6.98834C140.516 5.35944 135.472 5.77974 130.795 10.9292Z" fill="#E31A6A"/>
<path d="M135.262 4.04556C132.372 4.46586 131.268 3.99296 131.268 3.99296C131.268 3.99296 131.689 5.20156 133.37 5.98966C133.002 6.14736 132.634 6.35756 132.214 6.56766C132.056 6.67276 131.846 6.77786 131.689 6.88296C129.377 4.99136 128.378 2.25896 128.01 0.682617C129.114 2.78446 133.423 2.41666 136.575 2.46916C143.406 2.57426 144.51 7.61866 144.51 7.61866C143.774 5.41166 140.516 3.25736 135.262 4.04556Z" fill="#E31A6A"/>
<path d="M130.375 16.184C128.641 20.6503 126.907 26.9558 123.334 27.3762C125.804 27.6389 130.322 27.6389 134.263 25.2744C134.368 24.1184 134.421 22.8572 134.474 21.6487C132.214 24.4861 129.744 24.4862 129.744 24.4862C129.744 24.4862 131.006 23.1725 131.899 18.9163C133.528 11.0345 138.257 7.619 141.83 7.7241C141.882 7.7241 134.158 6.5681 130.375 16.184Z" fill="#E31A6A"/>
<path d="M135.263 19.2842C135 24.0659 135.315 30.5815 132.057 32.1053C134.737 31.5273 139.624 29.8984 142.619 25.6422C146.402 20.23 141.883 14.0297 142.724 9.51084C141.989 10.9295 141.305 13.3991 141.516 17.6028C141.883 25.905 137.207 27.3762 137.207 27.3762C137.207 27.3762 137.995 25.7473 137.522 21.386C136.576 13.3991 140.044 8.67004 143.46 7.61914C143.512 7.67174 135.841 8.98534 135.263 19.2842Z" fill="#E31A6A"/>
<path d="M157.489 21.1755C160.064 18.3906 161.588 17.9702 161.588 17.9702C161.588 17.9702 160.169 17.0769 157.805 17.6549C158.067 17.182 158.278 16.6566 158.488 16.1311C158.593 15.8684 158.698 15.6056 158.803 15.3955C162.639 15.448 165.844 17.3922 167.578 18.6533C164.741 17.4973 160.695 21.3331 157.437 23.8553C150.343 29.32 145.141 25.0638 145.141 25.0638C147.768 26.7453 152.813 26.3249 157.489 21.1755Z" fill="#E31A6A"/>
<path d="M157.908 15.9214C159.642 11.455 161.376 5.14959 164.949 4.72919C162.479 4.46649 157.96 4.46649 154.019 6.83099C153.914 7.98699 153.862 9.24809 153.809 10.4567C156.069 7.61918 158.538 7.61919 158.538 7.61919C158.538 7.61919 157.277 8.93279 156.384 13.189C154.755 21.0708 150.026 24.4863 146.453 24.3812C146.4 24.3812 154.124 25.5372 157.908 15.9214Z" fill="#E31A6A"/>
<path d="M153.189 12.8211C153.452 8.0395 153.137 1.52382 156.394 0C153.715 0.578 148.828 2.2069 145.833 6.4631C142.05 11.8753 146.568 18.0756 145.728 22.5945C146.463 21.1758 147.146 18.7062 146.936 14.5025C146.568 6.2004 151.245 4.7291 151.245 4.7291C151.245 4.7291 150.457 6.358 150.93 10.7193C151.876 18.7062 148.408 23.4353 144.992 24.4862C144.94 24.4336 152.611 23.12 153.189 12.8211Z" fill="#E31A6A"/>
</svg>
